<svg version="1.1" xmlns="http://www.w3.org/2000/svg" viewBox="0 0 644.5714111328125 525.7143707275391" width="644.5714111328125" height="525.7143707275391">
  <!-- svg-source:excalidraw -->
  
  <defs>
    <style class="style-fonts">
      @font-face {
        font-family: "Virgil";
        src: url("https://excalidraw.com/Virgil.woff2");
      }
      @font-face {
        font-family: "Cascadia";
        src: url("https://excalidraw.com/Cascadia.woff2");
      }
      @font-face {
        font-family: "Assistant";
        src: url("https://excalidraw.com/Assistant-Regular.woff2");
      }
    </style>
    
  </defs>
  <rect x="0" y="0" width="644.5714111328125" height="525.7143707275391" fill="#ffffff"></rect><g stroke-linecap="round" transform="translate(219.71432495117188 111.14288330078125) rotate(0 40.28569030761719 40)"><path d="M12.01 11.76 C12.01 11.76, 12.01 11.76, 12.01 11.76 M12.01 11.76 C12.01 11.76, 12.01 11.76, 12.01 11.76 M2.96 34.37 C12.14 23.44, 18.72 14.29, 31.17 1.92 M2.96 34.37 C12.6 23.36, 21.51 12.1, 31.17 1.92 M4.4 44.9 C13.92 32.39, 26.27 21.06, 41.14 2.64 M4.4 44.9 C17.52 29.11, 30.42 15.11, 41.14 2.64 M5.85 55.43 C19.99 38.1, 32.34 23.15, 51.77 2.6 M5.85 55.43 C21.97 36.52, 38.08 17.94, 51.77 2.6 M10.57 62.19 C26.09 40.79, 42.4 23.25, 58.47 7.1 M10.57 62.19 C23.14 47.78, 32.96 35.38, 58.47 7.1 M15.3 68.95 C33.43 48.6, 50.29 26.39, 65.16 11.59 M15.3 68.95 C25.57 57.12, 35.81 45.81, 65.16 11.59 M20.68 74.95 C36.3 59, 46.16 44.75, 72.51 15.33 M20.68 74.95 C37.44 54.37, 52.82 36.09, 72.51 15.33 M28.69 77.94 C48.86 55.5, 64.96 38.26, 75.92 23.6 M28.69 77.94 C46.82 55.84, 64.06 35.7, 75.92 23.6 M38 79.41 C52.53 62.34, 66.68 47.26, 79.34 31.87 M38 79.41 C48.74 66.65, 59.64 55.84, 79.34 31.87 M50.6 77.11 C62.55 61.91, 74.48 49.66, 83.41 39.38 M50.6 77.11 C62.35 63.99, 73.76 50.23, 83.41 39.38 M61.89 76.32 C69.92 68.31, 76.42 61.65, 80.26 55.19 M61.89 76.32 C66.35 70.99, 68.69 66.76, 80.26 55.19" stroke="#ffc9c9" stroke-width="1" fill="none"></path><path d="M54.02 2.85 C60.57 4.29, 66.89 8.83, 71.41 14.57 C75.93 20.3, 80.22 29.84, 81.15 37.24 C82.09 44.64, 80.48 52.73, 77 58.94 C73.53 65.15, 66.91 71.09, 60.32 74.51 C53.74 77.93, 44.68 79.83, 37.49 79.44 C30.29 79.06, 22.75 76.37, 17.14 72.18 C11.53 67.99, 6.58 60.93, 3.83 54.3 C1.09 47.67, -0.65 39.46, 0.67 32.41 C2 25.36, 6.74 17.1, 11.79 12.02 C16.83 6.94, 22.97 3.25, 30.95 1.94 C38.93 0.63, 54.29 2.99, 59.66 4.13 C65.03 5.28, 63.52 8.03, 63.15 8.8 M45.18 -0.33 C51.76 -0.05, 60.93 4.17, 66.65 9.36 C72.36 14.55, 77.59 23.53, 79.45 30.8 C81.3 38.08, 79.82 46.23, 77.79 53.02 C75.76 59.81, 72.76 67.31, 67.25 71.56 C61.75 75.81, 52.01 78, 44.76 78.53 C37.51 79.06, 30.2 77.6, 23.77 74.75 C17.35 71.91, 10.06 67.56, 6.2 61.46 C2.34 55.37, 0.56 45.26, 0.61 38.18 C0.66 31.1, 2.41 24.59, 6.51 19 C10.62 13.41, 18.56 7.63, 25.24 4.64 C31.93 1.65, 42.9 1.6, 46.6 1.05 C50.31 0.5, 47.39 0.72, 47.48 1.34" stroke="#1e1e1e" stroke-width="2" fill="none"></path></g><g transform="translate(257.3037313730191 138.85861205331935) rotate(0 2.7099990844726562 12.5)"><text x="2.7099990844726562" y="0" font-family="Virgil, Segoe UI Emoji" font-size="20px" fill="#1e1e1e" text-anchor="middle" style="white-space: pre;" direction="ltr" dominant-baseline="text-before-edge">1</text></g><g stroke-linecap="round" transform="translate(135.0000457763672 247.8571014404297) rotate(0 40.28569030761719 40)"><path d="M7.6 17.21 C7.6 17.21, 7.6 17.21, 7.6 17.21 M7.6 17.21 C7.6 17.21, 7.6 17.21, 7.6 17.21 M0.52 37.55 C12.43 22.96, 23.14 13.15, 30.7 2.84 M0.52 37.55 C12.81 24.45, 23.68 10.84, 30.7 2.84 M2.62 47.33 C13.46 36.52, 24.44 23.44, 41.99 2.05 M2.62 47.33 C10.82 38.31, 18.91 27.63, 41.99 2.05 M4.07 57.86 C15.38 44.85, 27.74 31.46, 51.96 2.77 M4.07 57.86 C20.79 38.54, 36.45 21.05, 51.96 2.77 M9.45 63.86 C26.07 46.51, 42.79 24.99, 59.31 6.51 M9.45 63.86 C21.9 49.29, 34.84 34.59, 59.31 6.51 M14.83 69.87 C27.76 53.56, 43.07 36.71, 66.66 10.25 M14.83 69.87 C29.39 54.54, 43.21 38.26, 66.66 10.25 M20.87 75.12 C36.44 58, 52.99 37.93, 72.04 16.25 M20.87 75.12 C35.28 60.86, 47.95 43.7, 72.04 16.25 M29.53 77.35 C40.86 63.79, 52.84 51.13, 76.11 23.76 M29.53 77.35 C45.13 58.3, 61.51 40.41, 76.11 23.76 M38.85 78.82 C50.02 62.9, 64.68 48.43, 80.18 31.27 M38.85 78.82 C52.46 61.69, 65.97 47.45, 80.18 31.27 M50.13 78.03 C60.04 65.06, 74.32 53.84, 79 44.82 M50.13 78.03 C59.06 67.45, 70.61 55.36, 79 44.82" stroke="#b2f2bb" stroke-width="1" fill="none"></path><path d="M26.05 3.23 C32.57 0.54, 42.76 0.24, 49.96 1.59 C57.15 2.94, 64.18 6.2, 69.22 11.32 C74.26 16.43, 78.82 25.3, 80.18 32.3 C81.54 39.3, 79.87 46.72, 77.37 53.34 C74.88 59.95, 70.86 67.6, 65.23 71.99 C59.61 76.37, 50.98 79.11, 43.61 79.67 C36.24 80.22, 27.6 78.76, 21.03 75.33 C14.47 71.89, 7.64 65.37, 4.22 59.06 C0.8 52.75, -0.11 44.5, 0.5 37.47 C1.11 30.45, 2.78 22.84, 7.87 16.9 C12.97 10.96, 26.74 4.32, 31.08 1.83 C35.42 -0.66, 33.72 1.53, 33.9 1.96 M22.53 5.43 C28.5 2.04, 36.31 0.75, 43.41 1.28 C50.52 1.82, 59.33 4.68, 65.16 8.66 C70.99 12.64, 75.96 18.62, 78.41 25.15 C80.86 31.68, 81.44 40.85, 79.85 47.83 C78.26 54.81, 74.27 61.65, 68.88 67.04 C63.49 72.43, 54.56 78.58, 47.49 80.16 C40.43 81.75, 33.03 79.05, 26.47 76.55 C19.91 74.05, 12.49 70.87, 8.13 65.16 C3.76 59.46, 0.76 49.87, 0.28 42.31 C-0.21 34.76, 1.9 25.9, 5.2 19.82 C8.5 13.75, 17.37 8.4, 20.09 5.88 C22.82 3.35, 20.9 4.49, 21.53 4.69" stroke="#1e1e1e" stroke-width="2" fill="none"></path></g><g transform="translate(168.17945616549957 275.5728301929678) rotate(0 7.1199951171875 12.5)"><text x="7.1199951171875" y="0" font-family="Virgil, Segoe UI Emoji" font-size="20px" fill="#1e1e1e" text-anchor="middle" style="white-space: pre;" direction="ltr" dominant-baseline="text-before-edge">2</text></g><g stroke-linecap="round" transform="translate(173.8571319580078 388.57142639160156) rotate(0 40.28569030761719 40)"><path d="M15.71 8.36 C15.71 8.36, 15.71 8.36, 15.71 8.36 M15.71 8.36 C15.71 8.36, 15.71 8.36, 15.71 8.36 M6.66 30.96 C14.18 20.07, 25.1 10.88, 30.93 3.04 M6.66 30.96 C13.79 21.36, 22.18 13.85, 30.93 3.04 M5.48 44.51 C17.29 30.13, 29.43 17.7, 40.91 3.76 M5.48 44.51 C13.57 35.91, 20.91 27.21, 40.91 3.76 M7.58 54.29 C21.56 39.26, 38.12 19.38, 49.57 5.99 M7.58 54.29 C22.08 37.31, 36.63 21.53, 49.57 5.99 M11.65 61.8 C29.08 43.74, 44.05 25.41, 59.54 6.71 M11.65 61.8 C22.98 47.26, 34.35 34.25, 59.54 6.71 M14.41 70.83 C29.13 52.94, 44.02 39.31, 66.24 11.2 M14.41 70.83 C28.78 52, 44.23 35.85, 66.24 11.2 M21.76 74.56 C31.61 59.56, 45.65 49.7, 72.27 16.45 M21.76 74.56 C33.91 62.23, 45.63 47.71, 72.27 16.45 M29.76 77.55 C44.31 60.26, 59.54 40.52, 78.31 21.7 M29.76 77.55 C41.77 64.99, 51.34 51.14, 78.31 21.7 M36.46 82.04 C50.66 68.89, 62.23 50.74, 79.76 32.23 M36.46 82.04 C47.3 68.23, 58.79 54.59, 79.76 32.23 M47.74 81.25 C62.23 64.79, 71.73 52.87, 80.55 43.52 M47.74 81.25 C59.57 67.21, 71.98 52.69, 80.55 43.52" stroke="#a5d8ff" stroke-width="1" fill="none"></path><path d="M58.31 4.99 C64.7 7.48, 72.3 13.15, 75.87 19.47 C79.44 25.8, 80.23 35.52, 79.73 42.92 C79.24 50.32, 77.05 58.14, 72.92 63.88 C68.79 69.62, 61.61 74.9, 54.94 77.36 C48.26 79.82, 39.95 79.97, 32.87 78.63 C25.79 77.28, 17.66 74.2, 12.45 69.28 C7.24 64.35, 3.13 56.03, 1.6 49.09 C0.06 42.15, 0.84 34.49, 3.24 27.64 C5.65 20.79, 10.36 12.42, 16.03 7.99 C21.7 3.56, 29.36 1.27, 37.27 1.07 C45.18 0.87, 58.41 5.02, 63.49 6.8 C68.57 8.59, 67.86 10.99, 67.74 11.75 M42.68 0.38 C49.24 0.05, 56.87 3.43, 62.56 7.57 C68.26 11.71, 74.18 18.77, 76.85 25.21 C79.51 31.65, 79.59 39.09, 78.54 46.21 C77.5 53.32, 75.5 62.42, 70.58 67.89 C65.66 73.36, 56.04 77.32, 49.03 79.01 C42.02 80.69, 35.31 80.35, 28.52 78.02 C21.73 75.7, 13.15 70.89, 8.28 65.04 C3.41 59.19, -0.24 50.14, -0.71 42.94 C-1.18 35.74, 2.14 27.95, 5.46 21.85 C8.77 15.74, 13.29 10.15, 19.19 6.3 C25.08 2.46, 36.82 -0.47, 40.82 -1.23 C44.82 -1.98, 43.22 0.8, 43.18 1.78" stroke="#1e1e1e" stroke-width="2" fill="none"></path></g><g transform="translate(207.97654478854645 416.28715514413966) rotate(0 6.17999267578125 12.5)"><text x="6.17999267578125" y="0" font-family="Virgil, Segoe UI Emoji" font-size="20px" fill="#1e1e1e" text-anchor="middle" style="white-space: pre;" direction="ltr" dominant-baseline="text-before-edge">5</text></g><g stroke-linecap="round" transform="translate(288.0000457763672 257.8571014404297) rotate(0 40.28569030761719 40)"><path d="M9.61 12.33 C9.61 12.33, 9.61 12.33, 9.61 12.33 M9.61 12.33 C9.61 12.33, 9.61 12.33, 9.61 12.33 M2.53 32.67 C11.18 20.69, 20.68 8.44, 28.77 2.48 M2.53 32.67 C10.35 22.24, 18.55 13.38, 28.77 2.48 M2.66 44.71 C10.28 34.11, 19.87 25.62, 35.46 6.98 M2.66 44.71 C12.51 33.48, 22.13 22.71, 35.46 6.98 M2.79 56.75 C19.34 38.82, 35.11 19.56, 46.09 6.94 M2.79 56.75 C15.6 40.2, 30.57 24.92, 46.09 6.94 M8.18 62.76 C22.48 47.68, 33.36 31.5, 58.04 5.4 M8.18 62.76 C19.2 49.64, 30.94 36.14, 58.04 5.4 M13.56 68.76 C32.01 49.23, 46.64 26.93, 64.73 9.89 M13.56 68.76 C25.19 55.13, 35.97 40.98, 64.73 9.89 M18.94 74.76 C34.51 54.2, 52.88 37.4, 71.42 14.39 M18.94 74.76 C34.79 57.13, 49.6 39.27, 71.42 14.39 M26.95 77.75 C38.79 66.18, 50.36 54.64, 77.46 19.64 M26.95 77.75 C38.43 65.19, 50.29 52.78, 77.46 19.64 M34.95 80.73 C51.33 66.33, 62.73 48.5, 80.88 27.9 M34.95 80.73 C46.41 68.42, 57.4 54.86, 80.88 27.9 M42.3 84.47 C51.27 75.81, 59.18 64.27, 82.98 37.68 M42.3 84.47 C53.66 71.02, 64.73 58.84, 82.98 37.68" stroke="#ffec99" stroke-width="1" fill="none"></path><path d="M54.07 1.96 C60.98 3.7, 67.93 9.06, 72.34 14.76 C76.76 20.46, 80 28.94, 80.55 36.15 C81.09 43.36, 78.85 51.58, 75.62 58.05 C72.38 64.52, 67.31 71.13, 61.11 74.95 C54.92 78.77, 45.64 81.23, 38.46 80.97 C31.27 80.7, 24 77.53, 18.01 73.36 C12.01 69.18, 5.24 62.79, 2.5 55.91 C-0.24 49.03, 0.33 39.39, 1.56 32.07 C2.79 24.75, 5.2 16.98, 9.9 12 C14.6 7.02, 21.7 3.5, 29.74 2.17 C37.79 0.85, 52.7 3.16, 58.16 4.05 C63.62 4.94, 62.76 6.86, 62.48 7.49 M27.5 0.81 C33.6 -1.62, 41.67 0.42, 48.74 2.22 C55.82 4.03, 64.74 6.38, 69.96 11.66 C75.18 16.94, 78.74 26.76, 80.04 33.92 C81.35 41.08, 80.52 48.32, 77.79 54.63 C75.07 60.95, 69.83 67.4, 63.7 71.8 C57.57 76.19, 48.29 80.69, 41.01 81 C33.73 81.32, 25.99 77.71, 20.03 73.7 C14.07 69.68, 8.78 62.99, 5.27 56.9 C1.75 50.81, -1.8 44.32, -1.06 37.14 C-0.33 29.96, 4.86 19.44, 9.69 13.82 C14.51 8.19, 25.11 5.02, 27.92 3.4 C30.72 1.77, 26.57 3.68, 26.51 4.06" stroke="#1e1e1e" stroke-width="2" fill="none"></path></g><g transform="translate(321.4894537240933 285.5728301929678) rotate(0 6.80999755859375 12.5)"><text x="6.80999755859375" y="0" font-family="Virgil, Segoe UI Emoji" font-size="20px" fill="#1e1e1e" text-anchor="middle" style="white-space: pre;" direction="ltr" dominant-baseline="text-before-edge">3</text></g><g stroke-linecap="round" transform="translate(475.1427764892578 198.85714721679688) rotate(0 40.28569030761719 40)"><path d="M37.89 0.38 C44.53 -0.58, 52.83 1.53, 59.21 5.06 C65.59 8.59, 72.67 15.05, 76.17 21.56 C79.66 28.07, 80.69 36.93, 80.19 44.13 C79.69 51.34, 77.6 59.08, 73.17 64.78 C68.73 70.47, 60.39 76.05, 53.58 78.3 C46.78 80.56, 39.5 80.14, 32.34 78.33 C25.18 76.52, 15.97 72.29, 10.6 67.44 C5.24 62.58, 1.41 56.12, 0.15 49.19 C-1.11 42.25, 0.2 32.67, 3.03 25.84 C5.87 19.02, 10.45 12.49, 17.16 8.23 C23.87 3.98, 38.28 1.4, 43.29 0.31 C48.3 -0.78, 47.42 1.03, 47.22 1.68 M23.43 2.97 C29.65 -0.43, 38.47 0.62, 45.63 1.62 C52.8 2.63, 60.87 4.71, 66.43 8.99 C71.99 13.27, 77.05 20.17, 78.99 27.3 C80.94 34.43, 80.07 44.83, 78.1 51.78 C76.13 58.73, 72.26 64.61, 67.15 69.02 C62.04 73.44, 54.84 76.8, 47.45 78.26 C40.05 79.71, 29.43 80.67, 22.79 77.76 C16.16 74.85, 11.33 66.78, 7.64 60.79 C3.94 54.8, 1.05 48.61, 0.62 41.81 C0.19 35.02, 1.48 26.38, 5.04 20 C8.61 13.63, 18.82 6.27, 22 3.55 C25.19 0.84, 23.47 3.2, 24.16 3.72" stroke="#1e1e1e" stroke-width="2" fill="none"></path></g><g transform="translate(509.0421880990933 226.57287596933497) rotate(0 6.399993896484375 12.5)"><text x="6.399993896484375" y="0" font-family="Virgil, Segoe UI Emoji" font-size="20px" fill="#1e1e1e" text-anchor="middle" style="white-space: pre;" direction="ltr" dominant-baseline="text-before-edge">4</text></g><g stroke-linecap="round" transform="translate(490.0000762939453 357.8571319580078) rotate(0 40.28569030761719 40)"><path d="M46.57 0.91 C53.54 1.52, 61 6.12, 66.54 10.88 C72.07 15.63, 77.82 22.59, 79.79 29.47 C81.76 36.35, 80.44 45.46, 78.38 52.15 C76.32 58.85, 73.03 65.17, 67.44 69.64 C61.85 74.11, 52.32 77.7, 44.86 78.97 C37.4 80.24, 29.05 80.18, 22.69 77.28 C16.33 74.38, 10.35 67.75, 6.7 61.58 C3.05 55.41, 0.75 47.45, 0.78 40.26 C0.81 33.08, 3.18 24.55, 6.89 18.46 C10.6 12.37, 15.81 6.52, 23.04 3.7 C30.28 0.88, 45.13 1.67, 50.32 1.53 C55.5 1.38, 54.14 2.16, 54.17 2.82 M28.8 1.29 C35.25 -1.59, 44.74 -1.59, 51.53 0.63 C58.32 2.84, 64.75 9.18, 69.52 14.6 C74.3 20.02, 78.77 26.39, 80.18 33.14 C81.58 39.88, 81.13 48.15, 77.95 55.06 C74.77 61.98, 67.14 70.68, 61.08 74.62 C55.01 78.56, 48.51 78.62, 41.56 78.7 C34.61 78.78, 25.87 78.53, 19.4 75.09 C12.93 71.65, 6.07 64.87, 2.73 58.08 C-0.62 51.29, -1.96 41.82, -0.68 34.34 C0.6 26.86, 5.28 18.78, 10.39 13.21 C15.51 7.63, 27.1 2.53, 30 0.9 C32.89 -0.73, 27.57 2.57, 27.76 3.41" stroke="#1e1e1e" stroke-width="2" fill="none"></path></g><g transform="translate(523.8994879037808 385.5728607105459) rotate(0 6.399993896484375 12.5)"><text x="6.399993896484375" y="0" font-family="Virgil, Segoe UI Emoji" font-size="20px" fill="#1e1e1e" text-anchor="middle" style="white-space: pre;" direction="ltr" dominant-baseline="text-before-edge">6</text></g><g stroke-linecap="round"><g transform="translate(231.14288330078125 178.57144165039062) rotate(0 -24.857162475585938 34.28571319580078)"><path d="M0.26 0.72 C-8.13 12.11, -41.8 57.54, -50.03 68.66 M-1.06 0.06 C-9.66 11.63, -43.07 58.89, -51.14 70.25" stroke="#1e1e1e" stroke-width="2" fill="none"></path></g></g><mask></mask><g stroke-linecap="round"><g transform="translate(174.00003051757812 328.2857208251953) rotate(0 9.714263916015625 31.714309692382812)"><path d="M-0.49 -0.26 C2.76 10.55, 16.76 54.01, 19.91 64.58 M1.46 -1.44 C4.55 9.09, 15.99 52.09, 19.22 63.06" stroke="#1e1e1e" stroke-width="2" fill="none"></path></g></g><mask></mask><g stroke-linecap="round"><g transform="translate(320.85711669921875 255.71434020996094) rotate(0 -15.42852783203125 -38.00000762939453)"><path d="M0.55 -0.4 C-4.38 -13.14, -25.41 -64.26, -30.72 -76.84 M-0.62 -1.65 C-5.59 -14.23, -26.32 -63.61, -31.6 -75.75" stroke="#1e1e1e" stroke-width="2" fill="none"></path></g></g><mask></mask><g stroke-linecap="round"><g transform="translate(310.5714111328125 334.00001525878906) rotate(0 -31.428543090820312 34.285736083984375)"><path d="M-1.12 -0.35 C-11.53 11.06, -52.64 57.76, -63.11 69.26 M0.49 -1.58 C-10.04 9.42, -53.85 55.56, -64.19 67.5" stroke="#1e1e1e" stroke-width="2" fill="none"></path></g></g><mask></mask><g stroke-linecap="round"><g transform="translate(301.4285888671875 144.85714721679688) rotate(0 87.71432495117188 36.00000762939453)"><path d="M1.06 0.96 C30.35 13.09, 147.37 60.19, 176.47 71.9 M0.16 0.41 C29.32 12.82, 146.93 61.43, 176.06 73.38" stroke="#1e1e1e" stroke-width="2" fill="none"></path></g></g><mask></mask><g stroke-linecap="round"><g transform="translate(519.1429443359375 276.85719299316406) rotate(0 0.571380615234375 41.42857360839844)"><path d="M-0.19 -0.01 C0.07 13.7, 1.29 68.7, 1.49 82.38 M-1.75 -1.06 C-1.61 12.8, 0.41 69.66, 0.72 83.67" stroke="#1e1e1e" stroke-width="2" fill="none"></path></g></g><mask></mask><g transform="translate(232.857177734375 180.85716247558594) rotate(0 -23.714309692382812 32.28570556640625)" stroke="none"><path fill="#e03131" d="M 5.01,0 Q 5.01,0 5.10,1.16 5.19,2.33 4.57,5.09 3.95,7.85 2.54,9.74 1.12,11.63 -0.52,13.24 -2.17,14.86 -3.74,16.63 -5.31,18.41 -7.97,20.74 -10.63,23.08 -12.07,24.93 -13.51,26.78 -15.24,28.59 -16.96,30.39 -18.54,31.97 -20.13,33.54 -21.09,35.61 -22.06,37.67 -23.10,40.73 -24.14,43.79 -25.12,46.09 -26.10,48.38 -27.19,50.62 -28.28,52.85 -29.13,54.90 -29.98,56.95 -31.34,58.72 -32.70,60.48 -34.37,62.49 -36.04,64.51 -37.63,66.42 -39.22,68.33 -40.76,69.59 -42.30,70.85 -43.35,71.52 -44.39,72.18 -45.60,72.48 -46.80,72.78 -48.04,72.68 -49.28,72.58 -50.42,72.09 -51.56,71.60 -52.48,70.77 -53.40,69.94 -54.01,68.86 -54.62,67.78 -54.86,66.56 -55.09,65.34 -54.92,64.12 -54.76,62.89 -54.20,61.77 -53.65,60.66 -52.78,59.78 -51.90,58.91 -50.79,58.36 -49.67,57.80 -48.44,57.64 -47.21,57.47 -46.00,57.70 -44.78,57.94 -43.70,58.55 -42.62,59.16 -41.79,60.08 -40.96,61.01 -40.47,62.15 -39.98,63.29 -39.88,64.53 -39.78,65.76 -40.08,66.97 -40.38,68.17 -41.05,69.22 -41.71,70.26 -42.68,71.04 -43.65,71.82 -44.81,72.24 -45.98,72.67 -47.22,72.71 -48.46,72.74 -49.65,72.37 -50.83,72.01 -51.84,71.28 -52.85,70.56 -53.57,69.55 -54.30,68.54 -54.66,67.36 -55.02,66.17 -54.99,64.93 -54.96,63.69 -54.53,62.53 -54.10,61.36 -53.32,60.39 -52.54,59.43 -52.55,59.43 -52.55,59.43 -50.87,58.10 -49.20,56.77 -46.87,54.14 -44.54,51.50 -42.94,48.70 -41.33,45.90 -40.20,43.73 -39.07,41.57 -38.19,39.56 -37.31,37.56 -36.20,34.82 -35.10,32.08 -34.23,29.85 -33.36,27.63 -31.84,25.30 -30.32,22.97 -28.54,21.58 -26.76,20.18 -25.05,18.56 -23.35,16.94 -21.51,15.25 -19.68,13.55 -17.95,12.24 -16.21,10.93 -14.40,9.31 -12.58,7.69 -10.77,6.15 -8.95,4.60 -7.07,3.43 -5.19,2.26 -5.10,1.13 -5.01,0 -4.93,-0.59 -4.86,-1.19 -4.65,-1.76 -4.43,-2.32 -4.09,-2.82 -3.75,-3.32 -3.29,-3.72 -2.84,-4.12 -2.31,-4.40 -1.77,-4.68 -1.19,-4.83 -0.60,-4.97 0.00,-4.97 0.60,-4.97 1.19,-4.83 1.77,-4.68 2.31,-4.40 2.84,-4.12 3.29,-3.72 3.75,-3.32 4.09,-2.82 4.43,-2.32 4.65,-1.76 4.86,-1.19 4.93,-0.59 5.01,0.00 5.01,0.00 L 5.01,0 Z"></path></g><g transform="translate(290.5714111328125 178.00003051757812) rotate(0 12.571441650390625 34.57141876220703)" stroke="none"><path fill="#e03131" d="M 4.70,-2.56 Q 4.70,-2.56 5.73,-0.78 6.76,0.99 8.09,2.94 9.41,4.89 10.78,7.21 12.16,9.53 13.39,11.31 14.62,13.09 16.19,15.36 17.75,17.63 19.64,20.51 21.53,23.39 23.02,25.62 24.51,27.84 25.99,29.54 27.48,31.25 28.44,33.39 29.39,35.54 29.85,37.97 30.30,40.41 30.67,43.14 31.05,45.87 31.11,48.33 31.17,50.79 31.21,53.07 31.26,55.36 31.29,57.75 31.31,60.14 31.32,62.89 31.33,65.64 31.66,66.02 31.98,66.40 32.24,67.56 32.50,68.72 32.37,69.91 32.25,71.10 31.75,72.18 31.25,73.26 30.43,74.13 29.61,75.00 28.56,75.56 27.51,76.12 26.33,76.32 25.15,76.51 23.97,76.32 22.80,76.13 21.74,75.57 20.69,75.02 19.86,74.15 19.04,73.29 18.54,72.21 18.04,71.12 17.91,69.94 17.77,68.75 18.03,67.59 18.28,66.42 18.90,65.40 19.51,64.37 20.42,63.60 21.33,62.83 22.43,62.38 23.54,61.94 24.73,61.87 25.92,61.81 27.07,62.12 28.22,62.44 29.21,63.11 30.20,63.78 30.92,64.72 31.65,65.67 32.03,66.80 32.41,67.93 32.41,69.13 32.42,70.32 32.04,71.45 31.66,72.58 30.94,73.53 30.22,74.48 29.23,75.15 28.25,75.82 27.10,76.15 25.95,76.47 24.76,76.40 23.56,76.34 22.46,75.90 21.35,75.46 20.44,74.69 19.53,73.92 18.91,72.90 18.29,71.88 18.29,71.88 18.29,71.88 17.48,68.89 16.66,65.91 16.66,63.64 16.66,61.37 16.69,58.88 16.72,56.38 16.76,54.10 16.80,51.81 16.85,49.32 16.90,46.83 17.07,44.59 17.24,42.35 16.82,40.25 16.40,38.16 14.79,36.09 13.19,34.01 12.05,32.18 10.91,30.34 9.15,27.56 7.39,24.77 6.11,22.65 4.84,20.53 3.31,17.96 1.77,15.39 0.80,13.30 -0.17,11.21 -1.50,8.72 -2.82,6.23 -3.76,4.39 -4.70,2.56 -4.94,1.96 -5.18,1.36 -5.27,0.72 -5.36,0.08 -5.29,-0.55 -5.22,-1.19 -5.00,-1.80 -4.78,-2.41 -4.42,-2.95 -4.06,-3.49 -3.59,-3.92 -3.11,-4.36 -2.54,-4.67 -1.98,-4.98 -1.35,-5.14 -0.73,-5.31 -0.08,-5.32 0.56,-5.33 1.19,-5.18 1.82,-5.04 2.39,-4.75 2.97,-4.46 3.46,-4.04 3.95,-3.61 4.33,-3.09 4.70,-2.56 4.70,-2.56 L 4.70,-2.56 Z"></path></g><g transform="translate(303.1429443359375 140.2857208251953) rotate(0 84.57138061523438 26.571426391601562)" stroke="none"><path fill="#e03131" d="M 2.44,-4.27 Q 2.44,-4.27 4.75,-2.99 7.07,-1.70 9.00,-0.74 10.94,0.21 15.26,2.31 19.58,4.40 21.86,5.55 24.13,6.71 26.42,7.85 28.70,8.99 31.30,10.34 33.89,11.68 36.43,13.14 38.97,14.59 41.12,15.56 43.28,16.52 45.50,17.41 47.72,18.30 50.45,19.60 53.17,20.91 55.83,22.09 58.49,23.27 61.50,24.28 64.51,25.29 68.30,26.95 72.09,28.61 75.87,29.85 79.64,31.09 83.36,32.31 87.09,33.52 90.70,34.53 94.32,35.53 97.93,36.64 101.53,37.74 104.70,38.62 107.87,39.51 111.05,40.17 114.22,40.84 117.55,41.45 120.87,42.06 124.17,42.46 127.46,42.87 130.92,43.38 134.38,43.90 137.83,44.44 141.27,44.99 144.61,45.37 147.96,45.75 151.44,46.25 154.93,46.75 157.81,47.21 160.70,47.67 162.99,47.94 165.29,48.20 167.46,48.40 169.63,48.61 170.34,48.81 171.05,49.00 171.66,49.42 172.27,49.83 172.72,50.42 173.16,51.00 173.40,51.70 173.63,52.40 173.63,53.14 173.63,53.87 173.40,54.57 173.16,55.27 172.72,55.86 172.27,56.45 171.66,56.86 171.05,57.27 170.34,57.47 169.63,57.67 168.89,57.63 168.16,57.59 167.47,57.31 166.79,57.04 166.23,56.56 165.67,56.09 165.29,55.46 164.91,54.82 164.75,54.10 164.59,53.38 164.67,52.65 164.75,51.92 165.06,51.25 165.37,50.58 165.87,50.05 166.38,49.51 167.03,49.17 167.68,48.82 168.41,48.70 169.14,48.58 169.87,48.70 170.59,48.82 171.24,49.17 171.90,49.51 172.40,50.05 172.91,50.58 173.22,51.25 173.53,51.92 173.61,52.65 173.69,53.39 173.53,54.10 173.37,54.82 172.99,55.46 172.61,56.09 172.05,56.56 171.49,57.04 170.80,57.31 170.12,57.59 169.38,57.63 168.64,57.67 168.65,57.67 168.65,57.67 166.23,57.29 163.82,56.91 161.46,56.39 159.10,55.86 156.44,55.24 153.79,54.62 150.41,54.13 147.04,53.64 143.53,53.23 140.02,52.81 136.62,52.27 133.21,51.72 129.83,51.20 126.46,50.69 122.94,50.22 119.42,49.75 115.98,49.09 112.55,48.42 109.11,47.62 105.67,46.82 102.54,45.81 99.40,44.80 95.92,43.77 92.44,42.73 88.65,41.80 84.86,40.87 81.20,39.84 77.55,38.82 73.25,37.87 68.94,36.93 65.32,35.77 61.70,34.62 58.09,33.64 54.49,32.67 51.63,31.49 48.77,30.32 46.25,29.17 43.72,28.02 41.32,27.01 38.92,25.99 36.38,24.80 33.85,23.60 31.53,22.30 29.22,21.00 26.58,19.72 23.94,18.44 21.64,17.27 19.34,16.09 17.01,14.89 14.69,13.70 12.47,12.52 10.25,11.34 8.18,10.29 6.10,9.24 4.11,8.10 2.12,6.95 -0.15,5.61 -2.44,4.27 -2.92,3.92 -3.39,3.56 -3.77,3.11 -4.15,2.65 -4.40,2.11 -4.66,1.58 -4.78,0.99 -4.90,0.41 -4.88,-0.17 -4.86,-0.76 -4.70,-1.34 -4.54,-1.91 -4.24,-2.42 -3.95,-2.94 -3.54,-3.37 -3.13,-3.80 -2.63,-4.12 -2.13,-4.44 -1.56,-4.63 -1.00,-4.82 -0.41,-4.87 0.17,-4.92 0.76,-4.83 1.35,-4.73 1.89,-4.50 2.44,-4.27 2.44,-4.27 L 2.44,-4.27 Z"></path></g><g transform="translate(175.14288330078125 327.1428680419922) rotate(0 8.285690307617188 33.71430969238281)" stroke="none"><path fill="#2f9e44" d="M 4.87,-1.62 Q 4.87,-1.62 5.45,-0.17 6.02,1.27 7.16,3.94 8.30,6.61 8.84,8.96 9.38,11.32 10.40,13.89 11.42,16.45 12.08,19.08 12.74,21.70 13.44,24.43 14.14,27.17 15.20,29.65 16.25,32.13 16.75,34.95 17.25,37.76 17.57,40.15 17.90,42.53 18.24,45.26 18.59,47.98 18.64,50.17 18.69,52.36 19.62,54.56 20.56,56.76 21.32,58.80 22.08,60.83 23.05,64.24 24.03,67.64 23.89,68.84 23.75,70.04 23.23,71.13 22.72,72.23 21.88,73.10 21.05,73.97 19.98,74.53 18.91,75.09 17.71,75.27 16.52,75.46 15.33,75.26 14.14,75.06 13.07,74.48 12.01,73.91 11.18,73.03 10.36,72.15 9.86,71.05 9.36,69.95 9.24,68.74 9.11,67.54 9.38,66.36 9.65,65.19 10.28,64.15 10.91,63.12 11.83,62.35 12.76,61.57 13.88,61.13 15.01,60.69 16.22,60.63 17.42,60.58 18.58,60.91 19.75,61.24 20.74,61.92 21.74,62.61 22.46,63.57 23.19,64.54 23.57,65.69 23.94,66.84 23.94,68.04 23.93,69.25 23.53,70.39 23.14,71.54 22.40,72.49 21.67,73.45 20.66,74.12 19.66,74.79 18.49,75.11 17.32,75.42 16.12,75.35 14.91,75.28 13.79,74.82 12.67,74.37 11.76,73.58 10.84,72.79 10.23,71.75 9.61,70.71 9.36,69.53 9.11,68.35 9.11,68.35 9.11,68.35 8.94,67.27 8.78,66.18 7.95,64.16 7.12,62.14 6.22,59.81 5.31,57.48 4.75,53.96 4.19,50.43 4.24,48.25 4.29,46.07 3.96,43.74 3.63,41.41 3.41,39.28 3.19,37.15 2.36,34.35 1.54,31.55 0.82,28.69 0.11,25.83 -0.36,23.51 -0.83,21.20 -0.95,19.05 -1.06,16.91 -1.90,13.09 -2.74,9.28 -3.40,6.96 -4.05,4.63 -4.46,3.13 -4.87,1.62 -4.99,1.01 -5.12,0.41 -5.09,-0.20 -5.07,-0.82 -4.89,-1.42 -4.72,-2.01 -4.41,-2.55 -4.10,-3.08 -3.67,-3.53 -3.24,-3.98 -2.72,-4.31 -2.20,-4.64 -1.61,-4.83 -1.02,-5.03 -0.40,-5.08 0.20,-5.13 0.82,-5.03 1.43,-4.93 2.00,-4.69 2.57,-4.44 3.06,-4.07 3.56,-3.70 3.95,-3.22 4.34,-2.74 4.60,-2.18 4.87,-1.62 4.87,-1.62 L 4.87,-1.62 Z"></path></g><g transform="translate(243.71432495117188 408.2857208251953) rotate(0 28.571395874023438 -33.142852783203125)" stroke="none"><path fill="#1971c2" d="M -3.11,-4.15 Q -3.11,-4.15 -1.85,-5.20 -0.59,-6.25 1.64,-8.66 3.88,-11.08 5.49,-12.86 7.09,-14.64 8.64,-16.12 10.20,-17.59 12.35,-19.64 14.50,-21.68 16.59,-23.26 18.68,-24.84 20.43,-26.64 22.17,-28.43 23.68,-30.07 25.20,-31.71 26.71,-33.31 28.23,-34.91 29.76,-36.89 31.29,-38.87 32.81,-41.08 34.32,-43.28 35.34,-45.15 36.37,-47.02 37.67,-49.04 38.98,-51.05 40.44,-53.14 41.89,-55.22 43.24,-57.44 44.59,-59.65 45.63,-61.84 46.67,-64.02 48.03,-66.07 49.39,-68.11 50.15,-69.41 50.92,-70.70 51.79,-71.58 52.65,-72.45 53.76,-73.01 54.86,-73.56 56.08,-73.74 57.30,-73.91 58.52,-73.68 59.73,-73.46 60.81,-72.85 61.89,-72.25 62.72,-71.34 63.55,-70.42 64.04,-69.29 64.53,-68.16 64.64,-66.93 64.75,-65.70 64.45,-64.50 64.16,-63.30 63.50,-62.26 62.84,-61.21 61.89,-60.44 60.93,-59.66 59.77,-59.23 58.61,-58.79 57.38,-58.76 56.15,-58.72 54.96,-59.07 53.78,-59.43 52.78,-60.14 51.77,-60.86 51.04,-61.86 50.32,-62.86 49.95,-64.03 49.58,-65.21 49.61,-66.45 49.64,-67.68 50.06,-68.84 50.48,-70.00 51.25,-70.97 52.01,-71.93 53.05,-72.60 54.09,-73.27 55.28,-73.58 56.48,-73.88 57.71,-73.79 58.94,-73.69 60.08,-73.21 61.21,-72.73 62.14,-71.91 63.06,-71.09 63.67,-70.02 64.29,-68.95 64.53,-67.74 64.76,-66.53 64.60,-65.30 64.44,-64.08 63.90,-62.97 63.36,-61.86 63.36,-61.86 63.36,-61.86 62.11,-60.46 60.87,-59.06 59.28,-55.93 57.70,-52.79 56.24,-51.08 54.78,-49.37 53.88,-47.30 52.97,-45.24 51.08,-42.34 49.19,-39.43 47.82,-37.41 46.45,-35.39 44.75,-32.98 43.05,-30.56 41.61,-28.57 40.17,-26.58 38.03,-24.53 35.89,-22.48 34.18,-20.84 32.47,-19.20 30.88,-17.51 29.30,-15.82 27.10,-14.52 24.90,-13.22 22.82,-11.57 20.73,-9.91 18.90,-8.49 17.07,-7.07 15.35,-5.59 13.62,-4.11 11.80,-2.75 9.97,-1.40 7.91,0.45 5.85,2.31 4.48,3.23 3.11,4.15 2.57,4.46 2.03,4.78 1.43,4.95 0.82,5.12 0.20,5.15 -0.42,5.17 -1.03,5.05 -1.65,4.92 -2.21,4.65 -2.78,4.38 -3.26,3.99 -3.75,3.59 -4.12,3.09 -4.50,2.59 -4.74,2.01 -4.99,1.44 -5.09,0.82 -5.19,0.20 -5.14,-0.42 -5.09,-1.04 -4.89,-1.63 -4.69,-2.23 -4.35,-2.76 -4.02,-3.29 -3.56,-3.72 -3.11,-4.15 -3.11,-4.15 L -3.11,-4.15 Z"></path></g><g transform="translate(492.85723876953125 90.57145690917969) rotate(0 50 12.5)"><text x="0" y="0" font-family="Virgil, Segoe UI Emoji" font-size="20px" fill="#e03131" text-anchor="start" style="white-space: pre;" direction="ltr" dominant-baseline="text-before-edge">第一层递归</text></g><g transform="translate(10 322.5714874267578) rotate(0 30 12.5)"><text x="0" y="0" font-family="Virgil, Segoe UI Emoji" font-size="20px" fill="#2f9e44" text-anchor="start" style="white-space: pre;" direction="ltr" dominant-baseline="text-before-edge">第二层</text></g><g transform="translate(318.5714111328125 415.1428680419922) rotate(0 30 12.5)"><text x="0" y="0" font-family="Virgil, Segoe UI Emoji" font-size="20px" fill="#1971c2" text-anchor="start" style="white-space: pre;" direction="ltr" dominant-baseline="text-before-edge">第三层</text></g><g transform="translate(365.42864990234375 251.71434020996094) rotate(0 30 12.5)"><text x="0" y="0" font-family="Virgil, Segoe UI Emoji" font-size="20px" fill="#f08c00" text-anchor="start" style="white-space: pre;" direction="ltr" dominant-baseline="text-before-edge">第四层</text></g><g transform="translate(424.85711669921875 308.2857208251953) rotate(0 -156.28570556640625 -4.571388244628906)" stroke="none"><path fill="#f08c00" d="M 1.67,0.41 Q 1.67,0.41 1.14,2.38 0.62,4.34 0.32,5.59 0.02,6.84 -0.20,8.11 -0.44,9.38 -0.95,11.25 -1.46,13.11 -2.24,15.27 -3.03,17.42 -4.05,19.97 -5.06,22.52 -5.64,24.81 -6.22,27.10 -6.83,29.28 -7.43,31.45 -8.20,33.72 -8.97,35.99 -9.45,38.18 -9.92,40.37 -10.81,43.04 -11.70,45.72 -12.22,48.38 -12.73,51.04 -13.30,53.70 -13.86,56.36 -14.60,59.16 -15.34,61.96 -16.32,64.98 -17.30,67.99 -18.20,71.21 -19.10,74.42 -20.32,77.81 -21.54,81.21 -23.05,84.80 -24.56,88.39 -25.67,91.82 -26.79,95.25 -28.27,98.91 -29.75,102.57 -31.20,106.08 -32.64,109.60 -34.09,112.75 -35.53,115.91 -36.97,119.05 -38.40,122.19 -40.01,125.20 -41.62,128.21 -43.12,131.11 -44.61,134.01 -46.06,137.04 -47.51,140.06 -48.96,143.01 -50.40,145.95 -51.83,148.84 -53.27,151.73 -54.70,154.76 -56.12,157.78 -57.57,160.42 -59.02,163.06 -60.09,165.44 -61.17,167.82 -62.48,170.20 -63.80,172.59 -65.18,174.92 -66.56,177.25 -67.96,179.55 -69.37,181.86 -70.78,184.30 -72.19,186.74 -73.65,188.82 -75.10,190.89 -75.97,192.18 -76.84,193.46 -77.69,194.57 -78.54,195.67 -79.66,196.62 -80.78,197.56 -81.60,198.38 -82.42,199.20 -83.44,199.89 -84.45,200.57 -85.63,201.09 -86.81,201.60 -87.93,202.21 -89.06,202.82 -90.79,203.34 -92.52,203.85 -93.83,204.46 -95.15,205.07 -96.76,205.80 -98.37,206.54 -100.54,207.14 -102.71,207.75 -104.34,208.10 -105.96,208.45 -107.17,208.65 -108.38,208.85 -109.80,209.08 -111.22,209.31 -112.40,209.46 -113.58,209.61 -114.77,209.70 -115.95,209.79 -117.28,209.83 -118.61,209.86 -120.32,209.83 -122.04,209.79 -124.08,209.68 -126.12,209.57 -128.47,209.46 -130.81,209.35 -133.45,209.27 -136.09,209.18 -138.69,209.12 -141.29,209.06 -144.37,209.02 -147.45,208.97 -150.73,208.94 -154.00,208.91 -157.21,208.89 -160.41,208.86 -163.74,208.85 -167.07,208.83 -170.13,208.82 -173.19,208.80 -176.29,208.79 -179.40,208.79 -182.73,208.61 -186.05,208.44 -189.44,208.20 -192.82,207.96 -196.42,207.53 -200.02,207.09 -203.05,206.58 -206.08,206.06 -208.97,205.68 -211.86,205.30 -214.83,204.46 -217.81,203.62 -220.68,202.78 -223.56,201.93 -226.42,201.08 -229.28,200.23 -231.80,199.54 -234.31,198.86 -236.74,198.06 -239.16,197.26 -241.50,196.43 -243.85,195.60 -246.16,194.75 -248.47,193.91 -250.47,193.04 -252.47,192.17 -254.19,191.35 -255.91,190.53 -257.62,189.70 -259.32,188.88 -260.79,188.06 -262.26,187.23 -263.30,186.57 -264.33,185.92 -265.59,184.99 -266.84,184.07 -267.84,183.12 -268.84,182.18 -270.31,180.68 -271.79,179.18 -272.50,178.09 -273.20,177.00 -274.01,176.08 -274.81,175.17 -276.31,173.29 -277.80,171.42 -278.54,170.39 -279.27,169.37 -280.50,167.62 -281.73,165.87 -282.42,164.69 -283.11,163.52 -283.89,162.57 -284.67,161.62 -285.32,160.74 -285.97,159.87 -286.75,158.41 -287.52,156.95 -288.25,155.80 -288.99,154.65 -289.61,153.28 -290.23,151.91 -290.66,150.66 -291.09,149.40 -291.99,147.40 -292.90,145.41 -293.42,143.60 -293.94,141.80 -294.34,139.91 -294.75,138.03 -295.56,136.13 -296.36,134.24 -297.22,131.95 -298.07,129.67 -299.04,127.43 -300.00,125.18 -300.61,122.94 -301.21,120.70 -301.91,118.51 -302.62,116.32 -303.54,114.12 -304.47,111.91 -305.07,109.52 -305.66,107.13 -306.13,105.34 -306.59,103.55 -307.06,101.48 -307.53,99.41 -307.86,97.99 -308.19,96.57 -308.88,94.49 -309.57,92.41 -309.76,90.97 -309.96,89.53 -310.05,88.10 -310.14,86.68 -310.44,85.12 -310.74,83.55 -310.96,81.44 -311.19,79.32 -311.56,76.82 -311.93,74.32 -312.16,72.54 -312.38,70.75 -312.55,69.49 -312.72,68.23 -312.79,66.68 -312.87,65.13 -313.02,63.41 -313.17,61.70 -313.16,59.39 -313.14,57.08 -313.11,54.96 -313.08,52.84 -313.36,50.75 -313.64,48.65 -313.76,46.49 -313.89,44.33 -314.00,42.60 -314.12,40.87 -314.16,38.97 -314.20,37.08 -314.17,34.96 -314.13,32.84 -314.19,31.12 -314.24,29.40 -314.25,27.52 -314.26,25.63 -314.31,24.01 -314.36,22.39 -314.37,20.55 -314.37,18.71 -314.41,17.11 -314.45,15.51 -314.45,13.68 -314.44,11.84 -314.51,10.57 -314.59,9.30 -314.71,7.19 -314.83,5.08 -314.27,3.61 -313.72,2.14 -313.43,0.61 -313.15,-0.91 -312.90,-1.98 -312.66,-3.05 -311.81,-5.05 -310.95,-7.05 -310.49,-8.96 -310.02,-10.87 -309.77,-12.24 -309.52,-13.61 -309.22,-15.10 -308.93,-16.59 -308.09,-17.98 -307.24,-19.38 -307.04,-20.67 -306.84,-21.96 -306.30,-23.85 -305.77,-25.75 -305.28,-27.00 -304.80,-28.25 -304.44,-29.38 -304.08,-30.51 -303.75,-31.64 -303.42,-32.77 -302.88,-34.19 -302.35,-35.60 -301.49,-37.44 -300.64,-39.28 -299.69,-41.34 -298.75,-43.39 -297.80,-45.56 -296.85,-47.73 -295.92,-49.55 -294.99,-51.37 -294.54,-52.71 -294.09,-54.05 -293.78,-55.15 -293.46,-56.25 -292.97,-57.36 -292.47,-58.48 -292.20,-59.65 -291.93,-60.82 -291.63,-62.20 -291.33,-63.57 -290.84,-64.98 -290.35,-66.39 -289.81,-68.34 -289.27,-70.30 -288.76,-71.46 -288.25,-72.61 -287.66,-74.28 -287.07,-75.95 -286.79,-77.26 -286.50,-78.58 -285.77,-80.47 -285.05,-82.36 -284.71,-83.43 -284.38,-84.50 -283.66,-86.39 -282.94,-88.28 -282.56,-89.71 -282.17,-91.13 -281.32,-92.71 -280.47,-94.29 -280.08,-96.00 -279.68,-97.70 -279.53,-98.78 -279.38,-99.86 -278.87,-101.41 -278.36,-102.96 -277.76,-104.39 -277.16,-105.83 -276.69,-106.85 -276.22,-107.88 -275.79,-109.05 -275.35,-110.21 -274.67,-111.65 -273.99,-113.08 -273.36,-114.34 -272.73,-115.61 -271.67,-117.67 -270.61,-119.72 -269.25,-121.43 -267.88,-123.14 -267.43,-124.71 -266.97,-126.28 -266.55,-127.44 -266.13,-128.59 -265.48,-129.66 -264.84,-130.74 -264.33,-131.80 -263.82,-132.86 -263.42,-134.42 -263.02,-135.98 -262.52,-137.65 -262.01,-139.32 -261.68,-140.48 -261.35,-141.65 -260.52,-143.43 -259.70,-145.21 -258.92,-146.52 -258.15,-147.83 -257.55,-149.35 -256.95,-150.86 -256.38,-151.90 -255.82,-152.94 -254.96,-154.55 -254.10,-156.16 -253.41,-157.12 -252.72,-158.07 -252.21,-159.16 -251.70,-160.24 -250.97,-161.57 -250.24,-162.91 -249.37,-164.56 -248.50,-166.21 -247.71,-167.01 -246.91,-167.81 -245.88,-168.62 -244.85,-169.43 -242.98,-170.79 -241.11,-172.14 -240.11,-172.61 -239.11,-173.07 -237.75,-174.30 -236.39,-175.52 -235.31,-176.48 -234.24,-177.44 -233.28,-178.59 -232.32,-179.75 -231.59,-180.55 -230.85,-181.35 -229.77,-181.98 -228.69,-182.62 -227.51,-183.39 -226.32,-184.16 -225.43,-185.17 -224.54,-186.19 -223.45,-186.93 -222.37,-187.67 -221.25,-188.36 -220.13,-189.05 -218.70,-189.95 -217.26,-190.85 -216.26,-191.52 -215.25,-192.19 -213.81,-192.90 -212.36,-193.61 -210.76,-194.63 -209.16,-195.65 -207.68,-196.33 -206.19,-197.01 -204.73,-197.89 -203.28,-198.78 -202.26,-199.20 -201.24,-199.63 -199.76,-200.61 -198.29,-201.59 -196.87,-202.32 -195.45,-203.04 -194.33,-203.65 -193.22,-204.26 -192.20,-204.89 -191.18,-205.52 -189.65,-206.23 -188.13,-206.94 -186.31,-207.97 -184.49,-209.00 -183.22,-209.85 -181.95,-210.70 -180.29,-211.59 -178.63,-212.47 -177.35,-213.15 -176.06,-213.83 -175.02,-214.48 -173.98,-215.13 -173.09,-215.72 -172.20,-216.32 -170.80,-217.08 -169.40,-217.85 -168.09,-218.35 -166.77,-218.85 -165.40,-219.22 -164.02,-219.58 -162.72,-219.59 -161.41,-219.60 -160.01,-219.87 -158.60,-220.14 -157.10,-220.17 -155.60,-220.20 -154.36,-220.21 -153.12,-220.22 -151.91,-220.23 -150.71,-220.25 -149.56,-220.26 -148.42,-220.27 -147.27,-220.28 -146.13,-220.29 -144.34,-219.88 -142.55,-219.47 -141.29,-218.60 -140.03,-217.73 -138.88,-217.06 -137.72,-216.38 -135.85,-215.36 -133.98,-214.34 -133.13,-213.59 -132.27,-212.84 -131.41,-211.98 -130.54,-211.12 -129.26,-210.05 -127.99,-208.98 -126.69,-207.53 -125.38,-206.07 -123.46,-203.07 -121.54,-200.07 -121.53,-199.48 -121.52,-198.89 -121.70,-198.33 -121.88,-197.76 -122.23,-197.29 -122.58,-196.81 -123.07,-196.47 -123.55,-196.13 -124.12,-195.97 -124.68,-195.80 -125.28,-195.82 -125.87,-195.84 -126.42,-196.05 -126.97,-196.26 -127.43,-196.64 -127.88,-197.01 -128.20,-197.52 -128.51,-198.02 -128.65,-198.59 -128.78,-199.17 -128.73,-199.76 -128.67,-200.34 -128.43,-200.89 -128.19,-201.43 -127.79,-201.86 -127.39,-202.30 -126.88,-202.58 -126.36,-202.87 -125.78,-202.97 -125.20,-203.08 -124.61,-202.99 -124.03,-202.90 -123.50,-202.64 -122.97,-202.37 -122.56,-201.94 -122.15,-201.52 -121.89,-200.99 -121.63,-200.46 -121.56,-199.87 -121.49,-199.28 -121.60,-198.70 -121.72,-198.12 -122.02,-197.61 -122.32,-197.10 -122.76,-196.71 -123.21,-196.32 -123.75,-196.10 -124.30,-195.87 -124.89,-195.83 -125.48,-195.79 -126.05,-195.93 -126.62,-196.08 -127.11,-196.41 -127.61,-196.73 -127.97,-197.20 -128.34,-197.66 -128.54,-198.22 -128.73,-198.78 -128.73,-198.78 -128.73,-198.77 -129.70,-199.93 -130.67,-201.09 -131.63,-202.24 -132.59,-203.38 -133.64,-204.18 -134.69,-204.98 -135.54,-205.81 -136.38,-206.64 -137.36,-207.67 -138.33,-208.71 -139.62,-209.22 -140.90,-209.73 -142.74,-210.90 -144.58,-212.08 -145.64,-212.46 -146.70,-212.85 -147.85,-212.86 -148.99,-212.87 -150.14,-212.88 -151.28,-212.89 -152.57,-212.91 -153.85,-212.92 -155.18,-212.92 -156.51,-212.92 -157.68,-212.89 -158.85,-212.86 -160.00,-212.62 -161.14,-212.39 -162.42,-212.53 -163.70,-212.68 -165.13,-212.09 -166.57,-211.50 -167.63,-210.87 -168.69,-210.24 -169.61,-209.65 -170.52,-209.06 -171.68,-208.35 -172.83,-207.65 -174.41,-206.77 -175.98,-205.90 -177.15,-205.18 -178.33,-204.46 -179.24,-203.88 -180.16,-203.29 -181.21,-202.90 -182.27,-202.50 -183.21,-201.76 -184.15,-201.02 -185.31,-200.54 -186.46,-200.06 -187.45,-199.41 -188.45,-198.76 -189.83,-197.91 -191.22,-197.05 -192.80,-196.26 -194.38,-195.48 -195.57,-195.04 -196.76,-194.61 -198.10,-193.65 -199.43,-192.69 -200.89,-191.83 -202.36,-190.97 -203.72,-190.23 -205.09,-189.49 -206.18,-188.86 -207.28,-188.24 -208.55,-187.61 -209.82,-186.99 -210.98,-186.28 -212.14,-185.58 -213.41,-184.93 -214.68,-184.28 -215.94,-183.38 -217.20,-182.48 -218.18,-182.02 -219.17,-181.56 -220.12,-180.86 -221.07,-180.17 -222.28,-179.10 -223.50,-178.04 -224.78,-177.29 -226.06,-176.54 -227.05,-175.49 -228.03,-174.44 -228.81,-173.47 -229.59,-172.49 -230.45,-171.75 -231.30,-171.01 -232.49,-170.17 -233.68,-169.34 -234.73,-168.23 -235.78,-167.13 -237.16,-166.39 -238.53,-165.66 -239.95,-164.49 -241.36,-163.33 -242.46,-162.47 -243.56,-161.62 -244.30,-160.12 -245.03,-158.63 -245.68,-157.08 -246.34,-155.52 -247.11,-154.27 -247.88,-153.02 -248.68,-151.34 -249.48,-149.66 -250.41,-148.29 -251.34,-146.91 -251.82,-145.39 -252.29,-143.88 -253.04,-142.61 -253.79,-141.33 -254.22,-140.21 -254.65,-139.08 -255.00,-137.88 -255.34,-136.68 -255.92,-135.02 -256.51,-133.36 -256.93,-131.93 -257.34,-130.49 -257.90,-129.21 -258.46,-127.92 -259.35,-126.69 -260.24,-125.46 -260.58,-124.24 -260.91,-123.02 -261.54,-121.42 -262.17,-119.81 -263.09,-118.80 -264.01,-117.78 -264.86,-116.33 -265.71,-114.87 -266.25,-113.33 -266.78,-111.78 -267.76,-110.31 -268.74,-108.84 -269.23,-107.28 -269.71,-105.71 -270.30,-104.37 -270.88,-103.04 -271.41,-101.96 -271.93,-100.88 -272.40,-99.77 -272.86,-98.66 -273.17,-97.27 -273.49,-95.88 -273.93,-94.45 -274.38,-93.01 -275.16,-91.39 -275.93,-89.76 -276.38,-88.72 -276.82,-87.69 -277.16,-86.65 -277.50,-85.62 -278.09,-84.05 -278.67,-82.48 -279.31,-80.96 -279.95,-79.45 -280.48,-78.19 -281.01,-76.93 -281.44,-75.59 -281.88,-74.25 -282.70,-72.34 -283.52,-70.43 -284.02,-69.41 -284.51,-68.38 -285.19,-66.56 -285.87,-64.74 -286.32,-63.63 -286.76,-62.52 -287.11,-61.07 -287.45,-59.62 -288.42,-57.21 -289.39,-54.80 -289.84,-53.72 -290.30,-52.64 -290.90,-51.17 -291.49,-49.70 -292.25,-48.00 -293.02,-46.29 -293.72,-44.04 -294.42,-41.78 -295.05,-39.62 -295.67,-37.45 -296.20,-35.54 -296.72,-33.63 -297.11,-32.41 -297.49,-31.19 -297.79,-29.98 -298.09,-28.77 -298.43,-27.49 -298.76,-26.21 -299.15,-24.88 -299.54,-23.55 -299.93,-22.19 -300.32,-20.83 -300.71,-19.48 -301.10,-18.12 -301.84,-16.55 -302.58,-14.99 -302.94,-13.92 -303.30,-12.85 -303.49,-11.77 -303.69,-10.69 -304.18,-9.44 -304.67,-8.19 -305.24,-6.54 -305.81,-4.89 -306.69,-3.33 -307.56,-1.76 -308.16,0.29 -308.76,2.35 -309.53,3.82 -310.31,5.29 -310.43,7.30 -310.55,9.30 -310.62,10.57 -310.69,11.84 -310.68,13.68 -310.68,15.51 -310.72,17.11 -310.76,18.71 -310.76,20.55 -310.77,22.39 -310.82,24.01 -310.87,25.63 -310.87,27.51 -310.88,29.39 -310.92,31.11 -310.97,32.82 -310.91,34.93 -310.85,37.03 -310.84,38.89 -310.83,40.75 -310.82,42.43 -310.82,44.12 -310.65,46.14 -310.48,48.16 -310.07,50.47 -309.67,52.79 -309.57,54.87 -309.48,56.96 -309.31,59.13 -309.14,61.30 -308.94,63.16 -308.73,65.03 -308.74,66.49 -308.74,67.96 -308.74,69.15 -308.74,70.34 -308.58,72.01 -308.41,73.68 -307.86,76.20 -307.31,78.73 -306.91,80.72 -306.51,82.70 -306.10,84.61 -305.70,86.51 -305.69,87.83 -305.69,89.15 -305.65,90.30 -305.62,91.45 -305.42,92.59 -305.23,93.73 -305.06,94.89 -304.89,96.06 -304.79,97.39 -304.68,98.72 -304.15,100.79 -303.62,102.87 -303.26,104.65 -302.90,106.43 -302.34,108.59 -301.77,110.74 -300.75,113.04 -299.72,115.34 -298.92,117.57 -298.12,119.80 -297.50,121.77 -296.89,123.73 -295.75,125.98 -294.62,128.22 -293.63,130.32 -292.64,132.42 -291.43,134.64 -290.22,136.87 -289.75,138.49 -289.27,140.12 -288.25,142.83 -287.22,145.55 -286.64,146.64 -286.07,147.72 -285.35,149.76 -284.63,151.80 -283.76,153.10 -282.89,154.40 -281.74,156.32 -280.59,158.24 -279.52,159.52 -278.46,160.80 -277.90,161.79 -277.34,162.77 -276.19,164.58 -275.04,166.38 -273.77,168.35 -272.49,170.32 -271.78,171.17 -271.07,172.02 -269.58,174.16 -268.08,176.30 -266.94,177.81 -265.80,179.32 -265.12,180.17 -264.43,181.02 -263.27,182.00 -262.10,182.98 -261.31,183.71 -260.52,184.44 -259.24,185.32 -257.96,186.21 -256.28,187.10 -254.61,187.99 -253.02,188.88 -251.42,189.76 -249.49,190.60 -247.56,191.44 -245.27,192.28 -242.97,193.12 -240.65,193.94 -238.34,194.76 -235.98,195.54 -233.62,196.32 -231.08,197.01 -228.53,197.70 -225.67,198.55 -222.81,199.40 -219.95,200.24 -217.09,201.08 -214.30,201.88 -211.51,202.68 -208.57,203.06 -205.63,203.44 -202.67,203.95 -199.70,204.45 -196.17,204.87 -192.63,205.29 -189.28,205.52 -185.92,205.75 -182.66,205.91 -179.40,206.06 -176.29,206.05 -173.19,206.04 -170.13,206.03 -167.07,206.02 -163.74,206.00 -160.41,205.98 -157.21,205.96 -154.00,205.94 -150.73,205.90 -147.45,205.87 -144.37,205.83 -141.29,205.78 -138.69,205.72 -136.09,205.66 -133.45,205.58 -130.82,205.50 -128.47,205.38 -126.13,205.27 -124.09,205.16 -122.06,205.04 -120.37,204.99 -118.67,204.93 -117.40,204.94 -116.12,204.95 -113.99,204.92 -111.86,204.90 -109.29,204.66 -106.71,204.42 -105.33,204.21 -103.95,204.00 -102.12,203.28 -100.29,202.57 -98.68,201.74 -97.07,200.91 -95.45,200.15 -93.83,199.40 -92.51,199.03 -91.20,198.66 -89.80,197.96 -88.41,197.27 -86.75,196.68 -85.10,196.10 -84.05,195.30 -83.01,194.49 -82.06,193.93 -81.11,193.36 -80.18,192.47 -79.24,191.58 -78.25,190.48 -77.25,189.38 -75.86,187.40 -74.46,185.42 -73.04,182.96 -71.61,180.49 -70.21,178.20 -68.81,175.91 -67.46,173.62 -66.10,171.33 -64.83,169.03 -63.56,166.73 -62.44,164.26 -61.32,161.80 -59.91,159.23 -58.50,156.66 -57.06,153.61 -55.62,150.57 -54.19,147.68 -52.76,144.79 -51.32,141.86 -49.88,138.93 -48.41,135.87 -46.95,132.81 -45.44,129.89 -43.94,126.97 -42.36,124.03 -40.79,121.09 -39.36,117.95 -37.93,114.81 -36.50,111.70 -35.08,108.59 -33.63,105.09 -32.19,101.58 -30.74,98.01 -29.29,94.44 -28.15,90.90 -27.00,87.37 -25.51,83.84 -24.03,80.31 -22.84,77.01 -21.65,73.71 -20.74,70.44 -19.83,67.17 -18.88,64.23 -17.93,61.28 -17.21,58.54 -16.49,55.81 -15.95,53.17 -15.40,50.53 -14.86,47.69 -14.32,44.86 -13.49,42.32 -12.66,39.79 -12.18,37.44 -11.70,35.10 -11.00,32.90 -10.30,30.70 -9.76,28.54 -9.23,26.39 -8.67,23.89 -8.12,21.38 -7.23,18.86 -6.35,16.33 -5.75,14.26 -5.16,12.19 -4.73,10.31 -4.30,8.43 -3.90,7.07 -3.49,5.71 -3.04,4.62 -2.59,3.54 -2.13,1.56 -1.67,-0.41 -1.59,-0.61 -1.52,-0.80 -1.40,-0.97 -1.28,-1.14 -1.13,-1.28 -0.97,-1.42 -0.79,-1.51 -0.60,-1.61 -0.40,-1.66 -0.20,-1.71 0.00,-1.71 0.21,-1.71 0.41,-1.65 0.61,-1.60 0.80,-1.51 0.98,-1.41 1.13,-1.27 1.29,-1.13 1.41,-0.96 1.52,-0.79 1.60,-0.60 1.67,-0.40 1.69,-0.20 1.72,0.00 1.69,0.21 1.67,0.41 1.67,0.41 L 1.67,0.41 Z"></path></g><g transform="translate(283.7143249511719 108.28572082519531) rotate(0 14.285690307617188 -5.7142791748046875)" stroke="none"><path fill="#f08c00" d="M 0.43,-2.59 Q 0.43,-2.59 1.43,-2.46 2.43,-2.32 3.67,-1.84 4.92,-1.37 6.00,-0.70 7.07,-0.04 7.98,0.63 8.89,1.31 10.29,2.23 11.69,3.16 12.66,2.58 13.63,2.00 14.66,1.35 15.69,0.70 16.34,-0.32 17.00,-1.35 18.03,-2.60 19.05,-3.86 19.93,-5.91 20.80,-7.96 21.48,-9.55 22.16,-11.15 23.32,-12.92 24.49,-14.69 24.84,-15.95 25.19,-17.21 25.29,-17.74 25.39,-18.28 25.66,-18.76 25.92,-19.23 26.33,-19.60 26.73,-19.97 27.23,-20.19 27.73,-20.41 28.27,-20.45 28.82,-20.50 29.35,-20.37 29.88,-20.25 30.34,-19.95 30.80,-19.66 31.15,-19.24 31.49,-18.82 31.68,-18.31 31.88,-17.79 31.89,-17.25 31.91,-16.70 31.75,-16.18 31.60,-15.66 31.28,-15.21 30.97,-14.77 30.53,-14.45 30.08,-14.13 29.56,-13.96 29.04,-13.80 28.50,-13.81 27.95,-13.82 27.44,-14.01 26.92,-14.19 26.50,-14.53 26.07,-14.87 25.77,-15.33 25.48,-15.79 25.34,-16.31 25.21,-16.84 25.25,-17.39 25.29,-17.93 25.50,-18.43 25.71,-18.94 26.07,-19.35 26.44,-19.75 26.91,-20.03 27.38,-20.30 27.92,-20.40 28.45,-20.51 29.00,-20.44 29.54,-20.37 30.03,-20.13 30.52,-19.89 30.91,-19.51 31.29,-19.12 31.54,-18.64 31.79,-18.15 31.86,-17.61 31.94,-17.07 31.94,-17.07 31.94,-17.07 31.21,-14.22 30.47,-11.37 29.68,-10.49 28.88,-9.60 28.31,-8.37 27.74,-7.13 27.36,-6.12 26.98,-5.11 26.26,-3.31 25.54,-1.52 24.99,-0.47 24.44,0.56 23.52,1.74 22.60,2.92 21.55,3.91 20.50,4.90 19.28,6.00 18.06,7.09 16.41,7.78 14.75,8.48 12.98,8.69 11.21,8.91 9.81,8.60 8.40,8.29 7.39,7.45 6.38,6.61 5.21,5.73 4.03,4.85 2.77,3.91 1.50,2.98 0.53,2.78 -0.43,2.59 -0.73,2.50 -1.04,2.41 -1.31,2.25 -1.58,2.09 -1.81,1.87 -2.04,1.65 -2.21,1.38 -2.38,1.11 -2.48,0.81 -2.58,0.51 -2.60,0.19 -2.62,-0.11 -2.57,-0.42 -2.52,-0.74 -2.39,-1.03 -2.27,-1.32 -2.08,-1.57 -1.89,-1.83 -1.64,-2.03 -1.39,-2.23 -1.11,-2.36 -0.82,-2.50 -0.51,-2.56 -0.20,-2.62 0.11,-2.61 0.43,-2.59 0.43,-2.59 L 0.43,-2.59 Z"></path></g><g transform="translate(365.42864990234375 288.2857208251953) rotate(0 24.571380615234375 18.857147216796875)" stroke="none"><path fill="#f08c00" d="M 0,-2.66 Q 0,-2.66 0.98,-2.69 1.97,-2.72 3.20,-2.79 4.43,-2.86 5.82,-2.91 7.21,-2.96 8.33,-3.01 9.45,-3.06 10.92,-3.12 12.40,-3.18 13.65,-3.22 14.90,-3.27 16.24,-3.04 17.58,-2.81 18.98,-2.77 20.38,-2.74 21.64,-2.17 22.91,-1.60 24.28,-1.06 25.65,-0.51 27.37,-0.03 29.08,0.44 30.08,0.85 31.07,1.27 31.95,1.98 32.82,2.70 33.78,3.39 34.74,4.08 35.87,5.35 36.99,6.62 37.84,7.57 38.69,8.52 39.65,9.35 40.61,10.19 42.00,11.66 43.39,13.14 44.28,14.11 45.17,15.08 46.01,15.80 46.86,16.53 47.67,17.44 48.49,18.36 49.41,19.30 50.33,20.23 50.90,21.87 51.46,23.50 51.81,24.88 52.15,26.25 52.38,27.65 52.61,29.05 52.70,30.27 52.80,31.50 52.81,32.68 52.83,33.86 52.84,35.78 52.84,37.71 52.75,38.30 52.65,38.89 52.37,39.42 52.09,39.95 51.65,40.36 51.22,40.78 50.67,41.03 50.13,41.28 49.53,41.35 48.94,41.41 48.35,41.28 47.77,41.15 47.25,40.84 46.74,40.53 46.35,40.08 45.96,39.62 45.74,39.06 45.52,38.51 45.49,37.91 45.45,37.31 45.61,36.73 45.77,36.15 46.11,35.66 46.45,35.16 46.92,34.80 47.40,34.43 47.97,34.24 48.54,34.05 49.14,34.05 49.74,34.05 50.31,34.24 50.87,34.43 51.35,34.80 51.83,35.16 52.17,35.66 52.50,36.15 52.66,36.73 52.82,37.31 52.79,37.91 52.76,38.51 52.54,39.06 52.31,39.62 51.93,40.08 51.54,40.53 51.02,40.84 50.51,41.15 49.92,41.28 49.34,41.41 48.74,41.35 48.15,41.28 47.60,41.03 47.06,40.78 46.62,40.36 46.19,39.95 45.91,39.42 45.62,38.89 45.53,38.30 45.43,37.71 45.43,37.71 45.43,37.71 45.44,35.22 45.45,32.73 45.46,31.51 45.47,30.29 45.29,28.26 45.11,26.22 44.53,24.98 43.96,23.73 43.29,22.86 42.62,22.00 41.38,20.94 40.14,19.87 39.09,18.74 38.04,17.60 37.23,16.75 36.41,15.89 34.98,14.64 33.55,13.38 32.83,12.57 32.11,11.77 31.13,10.70 30.16,9.64 28.95,8.45 27.74,7.27 26.28,6.84 24.82,6.41 23.36,5.81 21.90,5.20 20.79,4.54 19.69,3.87 18.58,3.86 17.48,3.86 16.16,3.56 14.85,3.27 13.62,3.22 12.40,3.18 10.92,3.12 9.45,3.06 8.33,3.01 7.21,2.96 5.82,2.91 4.43,2.86 3.20,2.79 1.97,2.72 0.98,2.69 0,2.66 -0.31,2.62 -0.63,2.59 -0.93,2.47 -1.23,2.36 -1.50,2.17 -1.76,1.99 -1.98,1.75 -2.19,1.51 -2.34,1.23 -2.49,0.94 -2.57,0.63 -2.64,0.32 -2.64,-0.00 -2.64,-0.32 -2.57,-0.63 -2.49,-0.94 -2.34,-1.23 -2.19,-1.51 -1.98,-1.75 -1.76,-1.99 -1.50,-2.17 -1.23,-2.36 -0.93,-2.47 -0.63,-2.59 -0.31,-2.62 0.00,-2.66 0.00,-2.66 L 0,-2.66 Z"></path></g><g transform="translate(172.857177734375 68.28572845458984) rotate(0 50 12.5)"><text x="0" y="0" font-family="Virgil, Segoe UI Emoji" font-size="20px" fill="#1e1e1e" text-anchor="start" style="white-space: pre;" direction="ltr" dominant-baseline="text-before-edge">返回第一层</text></g><g transform="translate(380.28570556640625 113.42857360839844) rotate(0 117.4285888671875 128.2857208251953)" stroke="none"><path fill="#f08c00" d="M 0.30,-1.81 Q 0.30,-1.81 2.26,-1.44 4.23,-1.08 6.05,-0.78 7.88,-0.48 9.45,-0.05 11.02,0.37 13.11,0.65 15.20,0.92 17.40,1.65 19.61,2.37 22.65,3.37 25.70,4.37 28.89,5.13 32.09,5.89 35.76,6.73 39.44,7.58 43.27,8.27 47.10,8.97 51.24,9.94 55.39,10.91 59.42,11.82 63.46,12.73 67.98,13.78 72.49,14.83 76.68,15.60 80.86,16.37 85.47,17.37 90.07,18.36 94.27,18.94 98.47,19.52 102.78,20.44 107.10,21.35 111.24,22.40 115.38,23.45 119.04,24.05 122.71,24.65 126.26,25.24 129.82,25.83 133.51,26.74 137.21,27.66 140.67,28.20 144.14,28.74 147.35,29.65 150.57,30.56 153.55,31.43 156.53,32.30 159.06,32.82 161.59,33.35 163.86,33.91 166.13,34.47 167.77,34.78 169.40,35.10 171.20,35.32 173.00,35.53 174.11,36.17 175.23,36.81 176.33,37.59 177.44,38.36 178.64,39.29 179.83,40.22 180.87,40.86 181.91,41.51 182.88,42.41 183.85,43.31 184.77,44.26 185.70,45.21 187.43,46.58 189.17,47.95 190.36,49.08 191.54,50.22 192.52,51.51 193.49,52.80 194.40,53.85 195.30,54.89 196.68,56.39 198.06,57.89 199.68,59.80 201.31,61.72 202.65,63.58 203.99,65.44 205.60,67.13 207.20,68.82 208.94,70.96 210.67,73.09 211.91,74.63 213.14,76.17 213.97,77.35 214.80,78.53 215.61,79.59 216.42,80.65 217.30,81.96 218.18,83.28 219.28,85.20 220.37,87.12 221.13,88.67 221.89,90.21 222.30,91.46 222.72,92.70 223.06,94.02 223.40,95.33 223.96,96.70 224.52,98.07 225.18,100.09 225.84,102.11 226.73,104.61 227.63,107.11 228.19,110.31 228.76,113.50 229.29,117.12 229.83,120.73 230.37,124.57 230.91,128.41 231.78,132.45 232.64,136.50 233.18,140.60 233.72,144.69 234.27,148.71 234.82,152.72 235.38,157.23 235.94,161.74 236.18,166.33 236.41,170.93 236.51,175.67 236.61,180.41 236.65,185.06 236.69,189.70 236.71,194.30 236.72,198.91 236.73,203.98 236.74,209.06 236.74,213.85 236.74,218.63 236.74,222.97 236.74,227.30 236.74,231.12 236.74,234.93 236.74,238.03 236.74,241.13 236.80,242.94 236.87,244.75 236.99,245.85 237.11,246.94 237.28,248.24 237.45,249.54 237.58,250.71 237.71,251.88 237.80,254.22 237.89,256.57 237.82,256.96 237.76,257.35 237.57,257.70 237.38,258.06 237.09,258.33 236.81,258.60 236.44,258.77 236.08,258.94 235.69,258.98 235.29,259.02 234.90,258.94 234.51,258.85 234.17,258.65 233.83,258.44 233.57,258.14 233.31,257.84 233.17,257.47 233.02,257.10 233.00,256.70 232.98,256.30 233.08,255.92 233.19,255.53 233.41,255.20 233.64,254.87 233.95,254.63 234.27,254.39 234.65,254.26 235.03,254.14 235.42,254.14 235.82,254.14 236.20,254.26 236.58,254.39 236.89,254.63 237.21,254.87 237.43,255.20 237.66,255.53 237.76,255.92 237.87,256.30 237.85,256.70 237.83,257.10 237.68,257.47 237.53,257.84 237.27,258.14 237.02,258.44 236.68,258.65 236.33,258.85 235.95,258.94 235.56,259.02 235.16,258.98 234.76,258.94 234.40,258.77 234.04,258.60 233.75,258.33 233.46,258.06 233.28,257.70 233.09,257.35 233.03,256.96 232.96,256.57 232.96,256.57 232.96,256.57 233.05,254.22 233.14,251.88 233.27,250.71 233.40,249.54 233.57,248.24 233.74,246.94 233.86,245.85 233.98,244.75 234.04,242.94 234.11,241.13 234.11,238.03 234.11,234.93 234.10,231.12 234.10,227.30 234.10,222.97 234.10,218.64 234.09,213.85 234.09,209.06 234.08,203.99 234.07,198.92 234.05,194.32 234.03,189.73 233.98,185.10 233.93,180.47 233.83,175.77 233.72,171.07 233.48,166.58 233.23,162.08 232.66,157.60 232.08,153.11 231.51,149.09 230.93,145.07 230.38,141.09 229.83,137.12 228.89,132.98 227.96,128.85 227.35,125.04 226.75,121.23 226.13,117.67 225.52,114.12 224.92,111.26 224.33,108.40 223.27,105.95 222.21,103.50 221.36,101.58 220.52,99.67 219.85,97.97 219.18,96.27 218.80,94.02 218.43,91.78 217.86,90.41 217.29,89.05 216.04,87.23 214.80,85.42 214.02,84.12 213.25,82.82 212.49,81.60 211.74,80.37 211.20,79.26 210.66,78.16 209.45,76.65 208.24,75.13 206.53,73.17 204.82,71.21 202.97,69.45 201.12,67.69 199.74,66.08 198.36,64.46 196.67,62.83 194.98,61.20 193.21,59.77 191.44,58.34 190.34,57.14 189.24,55.94 188.59,55.04 187.94,54.13 186.85,53.19 185.76,52.24 184.61,51.38 183.47,50.51 182.63,49.80 181.78,49.09 180.43,47.64 179.07,46.18 177.68,45.08 176.28,43.98 175.40,43.05 174.51,42.11 173.20,40.65 171.90,39.19 170.29,38.59 168.68,37.99 167.09,37.51 165.50,37.02 163.28,36.47 161.06,35.92 158.43,35.37 155.80,34.83 152.82,33.96 149.85,33.09 146.79,32.21 143.73,31.34 140.15,30.78 136.57,30.22 132.98,29.33 129.39,28.43 125.83,27.85 122.28,27.26 118.51,26.64 114.73,26.03 110.64,24.99 106.55,23.96 102.33,23.07 98.10,22.18 93.80,21.59 89.51,21.00 84.94,20.03 80.37,19.06 76.12,18.29 71.87,17.52 67.36,16.50 62.85,15.48 58.80,14.60 54.74,13.73 50.67,12.82 46.59,11.91 42.69,11.27 38.78,10.63 35.08,9.88 31.38,9.12 28.03,8.45 24.69,7.78 21.63,6.96 18.57,6.13 16.45,5.67 14.33,5.20 12.10,4.59 9.87,3.98 8.58,3.49 7.29,3.01 5.47,2.70 3.65,2.39 1.67,2.10 -0.30,1.81 -0.51,1.75 -0.72,1.68 -0.91,1.57 -1.11,1.46 -1.27,1.31 -1.42,1.15 -1.54,0.96 -1.66,0.78 -1.73,0.57 -1.80,0.36 -1.82,0.13 -1.83,-0.08 -1.80,-0.30 -1.76,-0.51 -1.67,-0.72 -1.58,-0.92 -1.45,-1.10 -1.32,-1.27 -1.14,-1.41 -0.97,-1.55 -0.77,-1.65 -0.57,-1.74 -0.35,-1.79 -0.14,-1.83 0.08,-1.82 0.30,-1.81 0.30,-1.81 L 0.30,-1.81 Z"></path></g><g transform="translate(599.1429443359375 360.85719299316406) rotate(0 17.7142333984375 -1.1428985595703125)" stroke="none"><path fill="#f08c00" d="M 0.51,-2.58 Q 0.51,-2.58 1.38,-2.44 2.24,-2.29 3.55,-1.53 4.86,-0.76 5.54,0.54 6.21,1.86 7.07,3.45 7.93,5.04 8.49,5.98 9.06,6.91 9.53,5.66 10.01,4.42 11.01,3.73 12.01,3.05 14.05,1.39 16.09,-0.26 17.89,-1.74 19.69,-3.21 20.65,-4.01 21.62,-4.80 23.17,-5.94 24.71,-7.08 26.05,-8.07 27.38,-9.07 28.44,-9.87 29.51,-10.67 31.24,-12.19 32.97,-13.72 33.22,-14.08 33.47,-14.44 33.82,-14.71 34.17,-14.97 34.58,-15.11 35.00,-15.24 35.44,-15.24 35.88,-15.24 36.29,-15.10 36.71,-14.95 37.05,-14.69 37.40,-14.42 37.65,-14.06 37.89,-13.69 38.01,-13.27 38.12,-12.84 38.09,-12.41 38.07,-11.97 37.90,-11.56 37.74,-11.16 37.45,-10.82 37.17,-10.49 36.79,-10.27 36.41,-10.04 35.98,-9.95 35.56,-9.86 35.12,-9.91 34.68,-9.96 34.29,-10.14 33.89,-10.33 33.57,-10.63 33.26,-10.94 33.05,-11.33 32.85,-11.72 32.78,-12.15 32.71,-12.58 32.79,-13.01 32.86,-13.45 33.07,-13.83 33.27,-14.22 33.59,-14.52 33.91,-14.82 34.31,-15.00 34.71,-15.18 35.15,-15.23 35.59,-15.27 36.01,-15.18 36.44,-15.08 36.82,-14.85 37.19,-14.62 37.47,-14.29 37.75,-13.95 37.91,-13.54 38.07,-13.13 38.10,-12.70 38.12,-12.26 38.00,-11.84 37.88,-11.41 37.88,-11.41 37.88,-11.41 35.22,-8.96 32.57,-6.50 31.57,-5.79 30.57,-5.07 29.36,-4.04 28.15,-3.02 26.81,-1.71 25.48,-0.40 23.55,1.17 21.62,2.74 19.84,4.31 18.06,5.89 16.97,7.08 15.88,8.27 14.50,9.19 13.13,10.12 11.54,11.55 9.94,12.97 8.76,13.06 7.58,13.14 6.08,12.28 4.59,11.42 3.95,10.35 3.30,9.28 2.70,8.30 2.09,7.31 1.52,6.25 0.94,5.18 0.99,4.07 1.03,2.95 0.25,2.77 -0.51,2.58 -0.81,2.48 -1.11,2.38 -1.38,2.21 -1.65,2.04 -1.87,1.81 -2.09,1.59 -2.25,1.31 -2.41,1.04 -2.50,0.73 -2.59,0.43 -2.61,0.11 -2.62,-0.20 -2.56,-0.51 -2.50,-0.82 -2.36,-1.11 -2.23,-1.39 -2.03,-1.64 -1.83,-1.89 -1.57,-2.08 -1.32,-2.27 -1.03,-2.40 -0.74,-2.52 -0.42,-2.57 -0.11,-2.63 0.20,-2.60 0.51,-2.58 0.51,-2.58 L 0.51,-2.58 Z"></path></g><g transform="translate(333.4285888671875 103.71430969238281) rotate(0 4.857177734375 -0.5714263916015625)" stroke="none"><path fill="#f08c00" d="M -0.82,-2.47 Q -0.82,-2.47 0.15,-2.82 1.12,-3.18 2.34,-3.51 3.56,-3.83 4.68,-3.96 5.80,-4.09 8.96,-3.24 12.13,-2.39 12.36,-1.96 12.58,-1.52 12.66,-1.04 12.74,-0.55 12.66,-0.07 12.58,0.40 12.34,0.83 12.11,1.27 11.76,1.60 11.40,1.94 10.95,2.14 10.51,2.35 10.02,2.40 9.53,2.45 9.05,2.34 8.58,2.23 8.16,1.98 7.74,1.72 7.42,1.35 7.11,0.97 6.93,0.52 6.75,0.06 6.72,-0.42 6.70,-0.91 6.83,-1.38 6.97,-1.85 7.24,-2.25 7.52,-2.66 7.91,-2.95 8.30,-3.25 8.77,-3.40 9.23,-3.56 9.72,-3.56 10.21,-3.55 10.68,-3.39 11.14,-3.24 11.53,-2.94 11.92,-2.64 12.19,-2.23 12.46,-1.83 12.59,-1.35 12.72,-0.88 12.69,-0.39 12.66,0.09 12.48,0.54 12.30,1.00 11.98,1.37 11.66,1.74 11.24,1.99 10.82,2.24 10.34,2.35 9.86,2.45 9.37,2.39 8.89,2.34 8.44,2.13 8.00,1.92 7.64,1.58 7.29,1.25 7.29,1.25 7.29,1.25 6.32,1.51 5.35,1.78 4.08,1.82 2.81,1.87 1.81,2.17 0.82,2.47 0.51,2.53 0.20,2.59 -0.10,2.58 -0.41,2.57 -0.72,2.48 -1.02,2.39 -1.29,2.23 -1.56,2.08 -1.79,1.86 -2.01,1.64 -2.18,1.38 -2.35,1.11 -2.45,0.81 -2.55,0.51 -2.57,0.20 -2.60,-0.10 -2.55,-0.41 -2.50,-0.72 -2.37,-1.01 -2.25,-1.30 -2.06,-1.55 -1.87,-1.80 -1.63,-2.00 -1.39,-2.20 -1.10,-2.33 -0.82,-2.47 -0.82,-2.47 L -0.82,-2.47 Z"></path></g><g transform="translate(366 107.14288330078125) rotate(0 2 0.28571319580078125)" stroke="none"><path d="M0 0 C0 0, 0 0, 0 0 M0 0 C0 0, 0 0, 0 0" stroke="#ffec99" stroke-width="0.5" fill="none"></path><path fill="#f08c00" d="M 0,-2.34 Q 0,-2.34 0.82,-2.40 1.64,-2.46 2.53,-2.38 3.43,-2.30 3.74,-2.26 4.06,-2.22 4.36,-2.11 4.65,-2.00 4.91,-1.82 5.17,-1.64 5.39,-1.40 5.60,-1.16 5.74,-0.88 5.89,-0.60 5.97,-0.29 6.04,0.01 6.04,0.32 6.04,0.64 5.97,0.95 5.89,1.26 5.74,1.54 5.60,1.82 5.39,2.06 5.17,2.29 4.91,2.47 4.65,2.65 4.36,2.77 4.06,2.88 3.74,2.92 3.43,2.96 1.60,2.69 -0.23,2.42 -0.61,2.32 -0.99,2.22 -1.32,2.00 -1.65,1.79 -1.89,1.47 -2.13,1.16 -2.26,0.79 -2.39,0.42 -2.40,0.03 -2.40,-0.36 -2.28,-0.73 -2.16,-1.11 -1.93,-1.43 -1.69,-1.74 -1.37,-1.97 -1.05,-2.19 -0.67,-2.30 -0.29,-2.41 0.09,-2.40 0.49,-2.38 0.86,-2.24 1.22,-2.10 1.53,-1.85 1.83,-1.60 2.04,-1.26 2.25,-0.93 2.34,-0.54 2.43,-0.16 2.39,0.22 2.35,0.62 2.19,0.98 2.03,1.34 1.76,1.63 1.49,1.92 1.15,2.10 0.80,2.29 0.41,2.36 0.03,2.43 -0.35,2.37 -0.74,2.31 -1.09,2.13 -1.44,1.95 -1.72,1.67 -1.99,1.39 -2.16,1.03 -2.33,0.68 -2.38,0.29 -2.43,-0.10 -2.35,-0.48 -2.27,-0.87 -2.07,-1.21 -1.87,-1.55 -1.57,-1.81 -1.28,-2.07 -0.91,-2.22 -0.55,-2.37 -0.16,-2.39 0.23,-2.42 0.23,-2.42 0.23,-2.42 1.83,-2.36 3.43,-2.30 3.74,-2.26 4.06,-2.22 4.36,-2.11 4.65,-2.00 4.91,-1.82 5.17,-1.64 5.39,-1.40 5.60,-1.16 5.74,-0.88 5.89,-0.60 5.97,-0.29 6.04,0.01 6.04,0.32 6.04,0.64 5.97,0.95 5.89,1.26 5.74,1.54 5.60,1.82 5.39,2.06 5.17,2.29 4.91,2.47 4.65,2.65 4.36,2.77 4.06,2.88 3.74,2.92 3.43,2.96 2.53,2.71 1.64,2.46 0.82,2.40 0,2.34 -0.28,2.31 -0.56,2.27 -0.82,2.17 -1.09,2.07 -1.32,1.91 -1.55,1.75 -1.74,1.54 -1.93,1.33 -2.06,1.08 -2.19,0.83 -2.26,0.55 -2.32,0.28 -2.32,-0.00 -2.32,-0.28 -2.26,-0.55 -2.19,-0.83 -2.06,-1.08 -1.93,-1.33 -1.74,-1.54 -1.55,-1.75 -1.32,-1.91 -1.09,-2.07 -0.82,-2.17 -0.56,-2.27 -0.28,-2.31 0.00,-2.34 0.00,-2.34 L 0,-2.34 Z"></path></g><g transform="translate(379.71429443359375 10) rotate(0 19.61998748779297 12.5)"><text x="0" y="0" font-family="Virgil, Segoe UI Emoji" font-size="20px" fill="#1e1e1e" text-anchor="start" style="white-space: pre;" direction="ltr" dominant-baseline="text-before-edge">DFS</text></g></svg>