<svg version="1.1" xmlns="http://www.w3.org/2000/svg" viewBox="0 0 548.8570861816406 431.0000534057617" width="548.8570861816406" height="431.0000534057617">
  <!-- svg-source:excalidraw -->
  
  <defs>
    <style class="style-fonts">
      @font-face {
        font-family: "Virgil";
        src: url("https://excalidraw.com/Virgil.woff2");
      }
      @font-face {
        font-family: "Cascadia";
        src: url("https://excalidraw.com/Cascadia.woff2");
      }
      @font-face {
        font-family: "Assistant";
        src: url("https://excalidraw.com/Assistant-Regular.woff2");
      }
    </style>
    
  </defs>
  <rect x="0" y="0" width="548.8570861816406" height="431.0000534057617" fill="#ffffff"></rect><g stroke-linecap="round" transform="translate(10 214.57142639160156) rotate(0 67.14283752441406 24.285728454589844)"><path d="M12.14 0 C41.15 -0.99, 71.04 1.51, 122.14 0 M12.14 0 C53.28 1.46, 93.65 1.31, 122.14 0 M122.14 0 C129.21 -0.04, 133.42 4.26, 134.29 12.14 M122.14 0 C131.66 -0.66, 135.68 3.59, 134.29 12.14 M134.29 12.14 C132.42 21.2, 135.41 30.36, 134.29 36.43 M134.29 12.14 C133.33 18.51, 134.34 25.22, 134.29 36.43 M134.29 36.43 C133.18 46.25, 129.17 49.52, 122.14 48.57 M134.29 36.43 C132.36 45.24, 131.61 46.39, 122.14 48.57 M122.14 48.57 C91.36 48.91, 60.89 46.21, 12.14 48.57 M122.14 48.57 C94.62 49.78, 66.44 48.52, 12.14 48.57 M12.14 48.57 C5.36 47.71, 0.63 44.18, 0 36.43 M12.14 48.57 C6.28 46.34, -2.1 45.05, 0 36.43 M0 36.43 C-1.88 27.93, -0.36 22.68, 0 12.14 M0 36.43 C0.16 31.67, 0.6 27.13, 0 12.14 M0 12.14 C-1.66 2.27, 4.29 1.51, 12.14 0 M0 12.14 C-1.3 3.13, 4.75 -0.54, 12.14 0" stroke="#1e1e1e" stroke-width="2" fill="none"></path></g><g stroke-linecap="round" transform="translate(13.714248657226562 266.2856674194336) rotate(0 67.14283752441406 24.285728454589844)"><path d="M12.14 0 C45.81 0.64, 75.4 0.32, 122.14 0 M12.14 0 C42.14 0.16, 72.23 0.56, 122.14 0 M122.14 0 C129.63 1.96, 135.47 3.37, 134.29 12.14 M122.14 0 C128.7 0.96, 134.09 3.01, 134.29 12.14 M134.29 12.14 C135.83 18.58, 135.69 28.61, 134.29 36.43 M134.29 12.14 C133.73 18.03, 134.98 22.32, 134.29 36.43 M134.29 36.43 C135.79 44.19, 128.77 47.13, 122.14 48.57 M134.29 36.43 C132.95 45.02, 130.81 50.19, 122.14 48.57 M122.14 48.57 C92.79 49.1, 64.31 48.71, 12.14 48.57 M122.14 48.57 C84.18 48.69, 44.35 47.77, 12.14 48.57 M12.14 48.57 C4.87 49.59, -0.3 46.23, 0 36.43 M12.14 48.57 C3.27 50.37, 0.5 46.33, 0 36.43 M0 36.43 C0.49 31.89, 1.03 25.57, 0 12.14 M0 36.43 C0.28 26.23, -0.05 18.6, 0 12.14 M0 12.14 C-0.63 5.27, 5.56 -1.75, 12.14 0 M0 12.14 C-1.64 3.02, 2.47 -1.15, 12.14 0" stroke="#1e1e1e" stroke-width="2" fill="none"></path></g><g stroke-linecap="round" transform="translate(16.428482055664062 318.8571243286133) rotate(0 67.14283752441406 24.285728454589844)"><path d="M12.14 0 C43.49 -0.84, 73.94 0.52, 122.14 0 M12.14 0 C43.3 -0.23, 75.49 -0.35, 122.14 0 M122.14 0 C129.99 1.71, 133.64 5.53, 134.29 12.14 M122.14 0 C130.97 2.02, 132.81 4.93, 134.29 12.14 M134.29 12.14 C134.19 21.51, 135.38 29.09, 134.29 36.43 M134.29 12.14 C134.99 16.81, 134.65 23.82, 134.29 36.43 M134.29 36.43 C135.19 46.1, 130.82 48.39, 122.14 48.57 M134.29 36.43 C132.9 44.42, 132.31 46.72, 122.14 48.57 M122.14 48.57 C92 48.49, 56.21 46.62, 12.14 48.57 M122.14 48.57 C97.24 48.03, 71.05 47.26, 12.14 48.57 M12.14 48.57 C2.62 47.96, 0.1 44.17, 0 36.43 M12.14 48.57 C2.02 48.21, -0.31 43.39, 0 36.43 M0 36.43 C-0.1 29.65, 0.1 21.38, 0 12.14 M0 36.43 C-0.4 29.69, 1.03 21.19, 0 12.14 M0 12.14 C1.61 2.52, 3.73 1.3, 12.14 0 M0 12.14 C0.88 5.6, 5.74 1.93, 12.14 0" stroke="#1e1e1e" stroke-width="2" fill="none"></path></g><g stroke-linecap="round" transform="translate(16.571395874023438 372.42859649658203) rotate(0 67.14283752441406 24.285728454589844)"><path d="M12.14 0 C48.8 2.03, 90.42 -0.87, 122.14 0 M12.14 0 C52.03 -0.2, 90.26 -1.1, 122.14 0 M122.14 0 C130.15 1.8, 132.68 3.88, 134.29 12.14 M122.14 0 C128.09 -0.56, 136.52 4.27, 134.29 12.14 M134.29 12.14 C133.93 16.69, 134.68 22, 134.29 36.43 M134.29 12.14 C133.74 17.8, 133.87 22.48, 134.29 36.43 M134.29 36.43 C133.97 44.26, 129.25 48.02, 122.14 48.57 M134.29 36.43 C135.78 45.38, 130.31 48.38, 122.14 48.57 M122.14 48.57 C86.58 48.3, 52.23 49.42, 12.14 48.57 M122.14 48.57 C78.6 49.3, 37.24 49.84, 12.14 48.57 M12.14 48.57 C5.4 50.04, 1.68 43.2, 0 36.43 M12.14 48.57 C3.36 50.69, -0.75 46.19, 0 36.43 M0 36.43 C-1.15 27.96, -1.94 21.04, 0 12.14 M0 36.43 C-0.31 28.44, -0.99 18.53, 0 12.14 M0 12.14 C1.93 4.94, 5.87 0.04, 12.14 0 M0 12.14 C1.33 5.34, 4.85 -2.03, 12.14 0" stroke="#1e1e1e" stroke-width="2" fill="none"></path></g><g stroke-linecap="round" transform="translate(249.42843627929688 216.2857208251953) rotate(0 54.5714111328125 24.857154846191406)"><path d="M12.43 0 C34.14 -0.34, 53.36 0.75, 96.71 0 M12.43 0 C40.14 0.37, 69.24 0.82, 96.71 0 M96.71 0 C104.19 -1.61, 109.82 3.47, 109.14 12.43 M96.71 0 C103.21 1.31, 110.45 5.41, 109.14 12.43 M109.14 12.43 C108.18 20.79, 108.2 30.85, 109.14 37.29 M109.14 12.43 C108.79 20.18, 108.98 28.29, 109.14 37.29 M109.14 37.29 C108.94 46.71, 105.23 49.13, 96.71 49.71 M109.14 37.29 C108.54 43.76, 104.92 51.03, 96.71 49.71 M96.71 49.71 C73.63 50.99, 49.39 51.01, 12.43 49.71 M96.71 49.71 C77.45 49.9, 58.13 49.18, 12.43 49.71 M12.43 49.71 C5.56 50.52, 1.31 46.87, 0 37.29 M12.43 49.71 C4.86 49.85, 1.01 43.9, 0 37.29 M0 37.29 C0.66 30.79, 1.09 24.34, 0 12.43 M0 37.29 C0.01 27.17, -0.33 17.45, 0 12.43 M0 12.43 C-0.98 5.48, 5.54 -1.67, 12.43 0 M0 12.43 C1.17 3.96, 4.02 -2.17, 12.43 0" stroke="#f08c00" stroke-width="2" fill="none"></path></g><g stroke-linecap="round" transform="translate(429.7142639160156 215.8570785522461) rotate(0 54.5714111328125 24.857154846191406)"><path d="M12.43 0 C34.29 0.03, 58.34 -1.42, 96.71 0 M12.43 0 C30.64 -1.32, 47.47 0.04, 96.71 0 M96.71 0 C105.33 0.05, 109.54 3.19, 109.14 12.43 M96.71 0 C106.31 -2.23, 110.52 3.96, 109.14 12.43 M109.14 12.43 C110.26 17.35, 107 24.33, 109.14 37.29 M109.14 12.43 C108.64 19.75, 108.82 28.6, 109.14 37.29 M109.14 37.29 C109 45.69, 105.34 49.2, 96.71 49.71 M109.14 37.29 C108.93 47.79, 105.12 48.1, 96.71 49.71 M96.71 49.71 C69.61 50.38, 45.71 51.71, 12.43 49.71 M96.71 49.71 C66.32 49.39, 37.71 50.1, 12.43 49.71 M12.43 49.71 C4.74 49.46, -0.13 43.89, 0 37.29 M12.43 49.71 C2.6 47.43, -1.56 45.23, 0 37.29 M0 37.29 C0.31 27.82, 1.83 22.12, 0 12.43 M0 37.29 C0.45 30.47, 0.73 24.03, 0 12.43 M0 12.43 C-1.66 3.96, 5.79 0.62, 12.43 0 M0 12.43 C-2.14 2.58, 6.34 2.19, 12.43 0" stroke="#f08c00" stroke-width="2" fill="none"></path></g><g transform="translate(302.5713806152344 358) rotate(0 3.428619384765625 -1.142852783203125)" stroke="none"><path fill="#1e1e1e" d="M -2.14,-4.28 Q -2.14,-4.28 -1.20,-4.86 -0.26,-5.44 1.67,-6.42 3.60,-7.39 4.90,-7.58 6.20,-7.77 6.86,-7.72 7.52,-7.67 8.15,-7.46 8.78,-7.25 9.34,-6.89 9.90,-6.54 10.36,-6.06 10.82,-5.58 11.15,-5.01 11.49,-4.44 11.67,-3.80 11.86,-3.16 11.88,-2.50 11.91,-1.84 11.78,-1.18 11.65,-0.53 11.36,0.06 11.08,0.65 10.66,1.17 10.24,1.68 9.71,2.08 9.18,2.48 8.57,2.74 7.96,3.00 7.31,3.11 6.65,3.22 4.18,4.04 1.72,4.86 0.90,5.01 0.08,5.15 -0.74,5.03 -1.57,4.91 -2.31,4.53 -3.05,4.15 -3.64,3.55 -4.22,2.96 -4.58,2.20 -4.94,1.45 -5.05,0.62 -5.15,-0.19 -4.98,-1.01 -4.82,-1.83 -4.40,-2.55 -3.98,-3.27 -3.35,-3.82 -2.72,-4.37 -1.95,-4.69 -1.18,-5.02 -0.35,-5.07 0.47,-5.13 1.28,-4.92 2.09,-4.71 2.79,-4.25 3.48,-3.79 4.00,-3.14 4.52,-2.48 4.79,-1.69 5.07,-0.91 5.09,-0.07 5.10,0.75 4.84,1.55 4.59,2.34 4.09,3.01 3.60,3.69 2.92,4.16 2.23,4.64 1.43,4.88 0.63,5.11 -0.19,5.08 -1.03,5.05 -1.81,4.75 -2.59,4.46 -3.23,3.93 -3.88,3.39 -4.32,2.69 -4.76,1.98 -4.95,1.17 -5.14,0.35 -5.06,-0.47 -4.99,-1.30 -4.65,-2.06 -4.31,-2.82 -3.74,-3.44 -3.18,-4.05 -2.45,-4.46 -1.72,-4.86 -1.72,-4.86 -1.72,-4.86 2.23,-6.32 6.20,-7.77 6.86,-7.72 7.52,-7.67 8.15,-7.46 8.78,-7.25 9.34,-6.89 9.90,-6.54 10.36,-6.06 10.82,-5.58 11.15,-5.01 11.49,-4.44 11.67,-3.80 11.86,-3.16 11.88,-2.50 11.91,-1.84 11.78,-1.19 11.65,-0.54 11.36,0.05 11.08,0.65 10.66,1.17 10.24,1.68 9.71,2.08 9.18,2.48 8.57,2.74 7.96,3.00 7.31,3.11 6.65,3.22 5.43,3.35 4.20,3.47 3.17,3.87 2.14,4.28 1.59,4.47 1.05,4.66 0.47,4.72 -0.09,4.78 -0.66,4.70 -1.23,4.62 -1.77,4.40 -2.30,4.19 -2.77,3.85 -3.24,3.51 -3.61,3.08 -3.99,2.64 -4.25,2.12 -4.50,1.60 -4.63,1.04 -4.76,0.48 -4.75,-0.09 -4.73,-0.67 -4.59,-1.22 -4.44,-1.78 -4.16,-2.29 -3.88,-2.79 -3.49,-3.22 -3.10,-3.64 -2.62,-3.96 -2.14,-4.28 -2.14,-4.28 L -2.14,-4.28 Z"></path></g><g transform="translate(345.9999694824219 357.4286193847656) rotate(0 18.28570556640625 0)" stroke="none"><path fill="#1e1e1e" d="M 0,-5.27 Q 0,-5.27 1.64,-5.34 3.28,-5.42 5.53,-5.60 7.78,-5.77 10.69,-5.92 13.60,-6.07 16.90,-6.13 20.20,-6.18 23.28,-6.23 26.36,-6.29 29.58,-6.32 32.81,-6.36 34.69,-6.38 36.57,-6.40 37.59,-6.24 38.61,-6.07 39.53,-5.58 40.45,-5.10 41.16,-4.34 41.87,-3.59 42.31,-2.65 42.74,-1.71 42.85,-0.68 42.97,0.34 42.74,1.36 42.52,2.37 41.99,3.26 41.45,4.14 40.66,4.82 39.87,5.49 38.91,5.87 37.94,6.25 36.91,6.31 35.87,6.37 34.87,6.09 33.87,5.81 33.02,5.23 32.16,4.65 31.53,3.82 30.90,3.00 30.57,2.01 30.24,1.03 30.24,-0.00 30.24,-1.03 30.57,-2.02 30.90,-3.00 31.53,-3.82 32.16,-4.65 33.02,-5.23 33.88,-5.81 34.88,-6.09 35.87,-6.37 36.91,-6.31 37.95,-6.25 38.91,-5.87 39.87,-5.49 40.66,-4.81 41.45,-4.14 41.99,-3.25 42.52,-2.37 42.74,-1.35 42.97,-0.34 42.85,0.68 42.74,1.71 42.31,2.65 41.87,3.59 41.16,4.35 40.44,5.10 39.53,5.58 38.61,6.07 37.59,6.24 36.56,6.40 36.57,6.40 36.57,6.40 34.69,6.38 32.81,6.36 29.58,6.32 26.36,6.29 23.28,6.23 20.20,6.18 16.90,6.13 13.60,6.07 10.69,5.92 7.78,5.77 5.53,5.60 3.28,5.42 1.64,5.34 0,5.27 -0.63,5.19 -1.26,5.11 -1.85,4.89 -2.44,4.66 -2.97,4.30 -3.49,3.94 -3.91,3.46 -4.33,2.99 -4.63,2.43 -4.92,1.86 -5.08,1.25 -5.23,0.63 -5.23,-0.00 -5.23,-0.63 -5.07,-1.25 -4.92,-1.86 -4.63,-2.43 -4.33,-2.99 -3.91,-3.46 -3.49,-3.94 -2.97,-4.30 -2.44,-4.66 -1.85,-4.89 -1.26,-5.11 -0.63,-5.19 0.00,-5.27 0.00,-5.27 L 0,-5.27 Z"></path></g><g transform="translate(445.9999694824219 361.4286193847656) rotate(0 14.857147216796875 -0.8571624755859375)" stroke="none"><path fill="#1e1e1e" d="M 0,-5.30 Q 0,-5.30 2.3,-5.33 4.6,-5.37 8.09,-5.76 11.58,-6.16 13.83,-6.37 16.08,-6.58 18.67,-6.78 21.26,-6.99 25.46,-7.42 29.66,-7.84 30.64,-7.69 31.62,-7.54 32.50,-7.08 33.38,-6.62 34.07,-5.90 34.76,-5.19 35.18,-4.29 35.61,-3.40 35.72,-2.41 35.83,-1.42 35.63,-0.45 35.42,0.51 34.92,1.36 34.41,2.21 33.66,2.86 32.91,3.51 31.99,3.88 31.07,4.26 30.08,4.32 29.09,4.38 28.14,4.12 27.18,3.87 26.35,3.32 25.53,2.76 24.92,1.98 24.31,1.19 23.99,0.26 23.67,-0.67 23.66,-1.66 23.65,-2.66 23.96,-3.60 24.27,-4.54 24.86,-5.33 25.46,-6.13 26.28,-6.69 27.09,-7.26 28.05,-7.53 29.00,-7.80 29.99,-7.75 30.98,-7.71 31.91,-7.35 32.83,-6.99 33.59,-6.35 34.35,-5.71 34.87,-4.87 35.39,-4.02 35.61,-3.05 35.83,-2.09 35.73,-1.10 35.63,-0.11 35.22,0.78 34.81,1.68 34.13,2.41 33.46,3.13 32.58,3.61 31.71,4.08 30.73,4.24 29.76,4.41 29.76,4.41 29.76,4.41 27.14,4.44 24.53,4.46 22.12,4.59 19.71,4.71 16.56,4.78 13.40,4.84 9.00,5.11 4.6,5.37 2.3,5.33 0,5.30 -0.63,5.22 -1.26,5.14 -1.86,4.92 -2.46,4.69 -2.99,4.33 -3.51,3.96 -3.93,3.49 -4.36,3.01 -4.66,2.44 -4.95,1.87 -5.11,1.25 -5.26,0.63 -5.26,-0.00 -5.26,-0.63 -5.11,-1.25 -4.95,-1.88 -4.66,-2.44 -4.36,-3.01 -3.93,-3.49 -3.51,-3.96 -2.98,-4.33 -2.46,-4.69 -1.86,-4.92 -1.26,-5.14 -0.63,-5.22 0.00,-5.30 0.00,-5.30 L 0,-5.30 Z"></path></g><g stroke-linecap="round"><g transform="translate(83.14285278320312 76.28573608398438) rotate(0 -10 52.00001525878906)"><path d="M-0.41 0.74 C-3.8 18.25, -16.91 87.68, -20.04 105.03 M1.58 0.09 C-2.01 17.27, -17.49 86.31, -21.01 103.45" stroke="#1e1e1e" stroke-width="2" fill="none"></path></g><g transform="translate(83.14285278320312 76.28573608398438) rotate(0 -10 52.00001525878906)"><path d="M-24.41 78.68 C-22.05 86.75, -20.45 96.31, -21.01 103.45 M-24.41 78.68 C-22.92 87.65, -22.28 97.26, -21.01 103.45" stroke="#1e1e1e" stroke-width="2" fill="none"></path></g><g transform="translate(83.14285278320312 76.28573608398438) rotate(0 -10 52.00001525878906)"><path d="M-7.69 82.29 C-10.81 89.11, -14.69 97.5, -21.01 103.45 M-7.69 82.29 C-12.37 89.83, -17.92 98.1, -21.01 103.45" stroke="#1e1e1e" stroke-width="2" fill="none"></path></g></g><mask></mask><g transform="translate(69.42852783203125 52.857147216796875) rotate(0 30 12.5)"><text x="0" y="0" font-family="Virgil, Segoe UI Emoji" font-size="20px" fill="#1e1e1e" text-anchor="start" style="white-space: pre;" direction="ltr" dominant-baseline="text-before-edge">邻接表</text></g><g stroke-linecap="round"><g transform="translate(387.7142639160156 94.57145690917969) rotate(0 -17.142822265625 47.42858123779297)"><path d="M-0.91 -1.17 C-6.35 14.42, -28.12 78.04, -33.75 94.06 M0.82 0.82 C-4.64 16.51, -28.34 79.27, -34.41 95.18" stroke="#f08c00" stroke-width="2" fill="none"></path></g><g transform="translate(387.7142639160156 94.57145690917969) rotate(0 -17.142822265625 47.42858123779297)"><path d="M-34.09 70.18 C-36.01 76.25, -35.45 79.92, -34.41 95.18 M-34.09 70.18 C-33.44 78.56, -34.66 85.34, -34.41 95.18" stroke="#f08c00" stroke-width="2" fill="none"></path></g><g transform="translate(387.7142639160156 94.57145690917969) rotate(0 -17.142822265625 47.42858123779297)"><path d="M-18.09 76.24 C-23.35 80.93, -26.11 83.35, -34.41 95.18 M-18.09 76.24 C-22.3 82.72, -28.42 87.64, -34.41 95.18" stroke="#f08c00" stroke-width="2" fill="none"></path></g></g><mask></mask><g transform="translate(378.5713806152344 66.57145690917969) rotate(0 30 12.5)"><text x="0" y="0" font-family="Virgil, Segoe UI Emoji" font-size="20px" fill="#f08c00" text-anchor="start" style="white-space: pre;" direction="ltr" dominant-baseline="text-before-edge">边结点</text></g><g stroke-linecap="round"><g transform="translate(76.85714721679688 212.85714721679688) rotate(0 0.2856903076171875 24.285736083984375)"><path d="M-0.3 0.24 C-0.17 8.21, 0.23 40.13, 0.41 48.26 M0.54 -0.11 C0.63 7.88, -0.1 40.74, -0.11 48.8" stroke="#1e1e1e" stroke-width="2" fill="none"></path></g></g><mask></mask><g stroke-linecap="round"><g transform="translate(78.57138061523438 267.71429443359375) rotate(0 0 22.285736083984375)"><path d="M-0.06 0.18 C0.08 7.45, 0.47 36.8, 0.45 44.13 M-0.75 -0.2 C-0.62 7.35, 0.23 37.15, 0.25 44.6" stroke="#1e1e1e" stroke-width="2" fill="none"></path></g></g><mask></mask><g stroke-linecap="round"><g transform="translate(78.57138061523438 318.5714416503906) rotate(0 0.285736083984375 21.714309692382812)"><path d="M0.4 -0.44 C0.34 6.9, 0.17 36.51, 0.12 43.87 M-0.06 0.52 C0.01 7.73, 0.92 36.09, 1.12 43.13" stroke="#1e1e1e" stroke-width="2" fill="none"></path></g></g><mask></mask><g stroke-linecap="round"><g transform="translate(82 378.5714416503906) rotate(0 0 19.142852783203125)"><path d="M-0.04 0.41 C-0.09 6.65, -0.38 31.65, -0.41 37.94 M-0.72 0.14 C-0.6 6.41, 0.6 32.03, 0.62 38.46" stroke="#1e1e1e" stroke-width="2" fill="none"></path></g></g><mask></mask><g stroke-linecap="round"><g transform="translate(300.2856750488281 215.14291381835938) rotate(0 1.71429443359375 24)"><path d="M0.09 -0.2 C0.65 7.91, 2.78 40.35, 3.35 48.4 M-0.52 -0.77 C-0.05 7.21, 2.26 39.38, 2.88 47.64" stroke="#f08c00" stroke-width="2" fill="none"></path></g></g><mask></mask><g stroke-linecap="round"><g transform="translate(481.4286193847656 215.71429443359375) rotate(0 0.857147216796875 23.714309692382812)"><path d="M-0.15 -0.15 C0.24 7.68, 2 39.52, 2.24 47.49 M0.77 -0.7 C1.15 7.46, 1.81 40.32, 2.08 48.23" stroke="#f08c00" stroke-width="2" fill="none"></path></g></g><mask></mask><g stroke-linecap="round" transform="translate(148.28567504882812 118) rotate(0 55.142852783203125 21.714309692382812)"><path d="M10.86 0 C30.97 0.01, 53.92 1.1, 99.43 0 M10.86 0 C35.01 0.41, 58.9 0.19, 99.43 0 M99.43 0 C105.19 1.96, 111.4 1.87, 110.29 10.86 M99.43 0 C108.64 -0.69, 110.19 5.44, 110.29 10.86 M110.29 10.86 C112.2 15.84, 112.11 21.55, 110.29 32.57 M110.29 10.86 C109.42 16.13, 110.64 21.69, 110.29 32.57 M110.29 32.57 C112.28 39.4, 105.4 44.51, 99.43 43.43 M110.29 32.57 C109.25 41.31, 106.27 42.35, 99.43 43.43 M99.43 43.43 C75.87 42.14, 55.05 45.27, 10.86 43.43 M99.43 43.43 C70.2 43.42, 40.61 43.09, 10.86 43.43 M10.86 43.43 C4.64 42.89, -0.96 39.41, 0 32.57 M10.86 43.43 C3.39 43.5, 1.64 39.39, 0 32.57 M0 32.57 C0.82 27.63, -1.43 23.26, 0 10.86 M0 32.57 C0.87 25.51, -0.19 17.76, 0 10.86 M0 10.86 C-1.37 3.95, 3.34 0.98, 10.86 0 M0 10.86 C-1.13 1.73, 4.6 0.75, 10.86 0" stroke="#2f9e44" stroke-width="2" fill="none"></path></g><g stroke-linecap="round"><g transform="translate(204.85714721679688 116.85714721679688) rotate(0 0 20.285736083984375)"><path d="M0.24 -0.51 C0.33 6.16, 0.29 33.61, 0.25 40.54 M-0.3 0.41 C-0.23 7.41, -0.04 34.58, -0.05 41.22" stroke="#2f9e44" stroke-width="2" fill="none"></path></g></g><mask></mask><g stroke-linecap="round"><g transform="translate(246.57138061523438 39.14288330078125) rotate(0 -17.7142333984375 31.428558349609375)"><path d="M-0.18 0.28 C-6.18 10.99, -29.39 53, -35.16 63.56 M-1.73 -0.61 C-7.95 9.8, -30.38 51.43, -35.96 61.8" stroke="#2f9e44" stroke-width="2" fill="none"></path></g><g transform="translate(246.57138061523438 39.14288330078125) rotate(0 -17.7142333984375 31.428558349609375)"><path d="M-32.33 37.07 C-33.36 46.78, -34.02 56.63, -35.96 61.8 M-32.33 37.07 C-33.64 46.7, -35.62 54.72, -35.96 61.8" stroke="#2f9e44" stroke-width="2" fill="none"></path></g><g transform="translate(246.57138061523438 39.14288330078125) rotate(0 -17.7142333984375 31.428558349609375)"><path d="M-17.28 45.19 C-23.9 51.84, -30.2 58.64, -35.96 61.8 M-17.28 45.19 C-24.09 51.94, -31.53 57.01, -35.96 61.8" stroke="#2f9e44" stroke-width="2" fill="none"></path></g></g><mask></mask><g transform="translate(239.14291381835938 10) rotate(0 40 12.5)"><text x="0" y="0" font-family="Virgil, Segoe UI Emoji" font-size="20px" fill="#2f9e44" text-anchor="start" style="white-space: pre;" direction="ltr" dominant-baseline="text-before-edge">新边结点</text></g><g stroke-linecap="round"><g transform="translate(120.28567504882812 238.57144165039062) rotate(0 60.857177734375 1.7142791748046875)"><path d="M-0.83 -0.83 C19.34 -0.27, 101.74 2.54, 122.22 3.09 M0.93 1.36 C20.89 2.11, 101.45 4.13, 121.53 4.45" stroke="#1e1e1e" stroke-width="2" fill="none"></path></g><g transform="translate(120.28567504882812 238.57144165039062) rotate(0 60.857177734375 1.7142791748046875)"><path d="M97.86 12.49 C105.93 10.29, 116.16 6.75, 121.53 4.45 M97.86 12.49 C103.27 10.08, 107.58 9.12, 121.53 4.45" stroke="#1e1e1e" stroke-width="2" fill="none"></path></g><g transform="translate(120.28567504882812 238.57144165039062) rotate(0 60.857177734375 1.7142791748046875)"><path d="M98.23 -4.6 C106.11 0, 116.19 3.26, 121.53 4.45 M98.23 -4.6 C103.7 -3.29, 107.92 -0.51, 121.53 4.45" stroke="#1e1e1e" stroke-width="2" fill="none"></path></g></g><mask></mask><g stroke-linecap="round"><g transform="translate(337.4286193847656 239.71429443359375) rotate(0 41.42852783203125 2)"><path d="M0.81 -0.07 C14.52 0.35, 68.71 2.38, 82.54 3.05 M-0.22 -1.15 C13.28 -0.65, 67.46 3.03, 81.43 4.09" stroke="#1e1e1e" stroke-width="2" fill="none"></path></g><g transform="translate(337.4286193847656 239.71429443359375) rotate(0 41.42852783203125 2)"><path d="M57.39 10.96 C65.02 8.05, 71.33 7.98, 81.43 4.09 M57.39 10.96 C64 9.75, 70.93 7.38, 81.43 4.09" stroke="#1e1e1e" stroke-width="2" fill="none"></path></g><g transform="translate(337.4286193847656 239.71429443359375) rotate(0 41.42852783203125 2)"><path d="M58.6 -6.1 C65.92 -3.48, 71.84 1.96, 81.43 4.09 M58.6 -6.1 C64.94 -2.26, 71.51 0.43, 81.43 4.09" stroke="#1e1e1e" stroke-width="2" fill="none"></path></g></g><mask></mask><g stroke-linecap="round"><g transform="translate(226.00003051757812 144.85714721679688) rotate(0 24.285675048828125 44.285736083984375)"><path d="M-1.2 -0.34 C7.03 14.54, 40.38 73.79, 48.74 88.53 M0.37 -1.56 C8.51 13.59, 39.87 74.92, 47.88 90.05" stroke="#e03131" stroke-width="2" fill="none"></path></g><g transform="translate(226.00003051757812 144.85714721679688) rotate(0 24.285675048828125 44.285736083984375)"><path d="M29.46 73.14 C33.35 77.78, 38.38 82.33, 47.88 90.05 M29.46 73.14 C33.66 78.26, 40.16 82.72, 47.88 90.05" stroke="#e03131" stroke-width="2" fill="none"></path></g><g transform="translate(226.00003051757812 144.85714721679688) rotate(0 24.285675048828125 44.285736083984375)"><path d="M44.64 65.26 C44.73 71.69, 46.02 78.19, 47.88 90.05 M44.64 65.26 C44.9 72.39, 47.41 78.92, 47.88 90.05" stroke="#e03131" stroke-width="2" fill="none"></path></g></g><mask></mask><g stroke-linecap="round"><g transform="translate(107.14285278320312 233.42861938476562) rotate(0 30.5714111328125 -44.00001525878906)"><path d="M1.14 -0.46 C11.57 -15.06, 51.44 -72.98, 61.52 -87.54 M0.28 -1.75 C10.67 -16.71, 50.63 -75.31, 60.76 -89.42" stroke="#e03131" stroke-width="2" fill="none"></path></g><g transform="translate(107.14285278320312 233.42861938476562) rotate(0 30.5714111328125 -44.00001525878906)"><path d="M54.34 -65.26 C54.93 -69.84, 57.84 -74.82, 60.76 -89.42 M54.34 -65.26 C56.14 -73.5, 58.71 -80.09, 60.76 -89.42" stroke="#e03131" stroke-width="2" fill="none"></path></g><g transform="translate(107.14285278320312 233.42861938476562) rotate(0 30.5714111328125 -44.00001525878906)"><path d="M40.31 -75.04 C43.89 -77.67, 49.78 -80.57, 60.76 -89.42 M40.31 -75.04 C46.57 -80.22, 53.57 -83.72, 60.76 -89.42" stroke="#e03131" stroke-width="2" fill="none"></path></g></g><mask></mask><g stroke-linecap="round"><g transform="translate(269.4285583496094 172.85714721679688) rotate(0 0 6.857147216796875)"><path d="M0.33 -0.4 C0.25 1.83, -0.41 11.1, -0.47 13.51 M-0.17 0.58 C-0.08 2.87, 0.56 12.01, 0.52 14.1" stroke="#e03131" stroke-width="2" fill="none"></path></g></g><mask></mask><g transform="translate(103.7142333984375 160.85714721679688) rotate(0 8.285720825195312 9.428619384765625)" stroke="none"><path fill="#e03131" d="M -0.43,-2.58 Q -0.43,-2.58 0.55,-2.77 1.53,-2.97 2.89,-3.15 4.25,-3.34 5.32,-3.44 6.39,-3.53 7.53,-3.60 8.67,-3.67 10.47,-2.91 12.27,-2.15 12.95,-0.87 13.62,0.39 14.05,1.73 14.49,3.07 14.62,4.40 14.75,5.73 14.79,6.93 14.84,8.14 14.87,9.28 14.91,10.43 14.54,12.44 14.18,14.44 13.48,15.61 12.78,16.77 11.84,17.75 10.89,18.74 9.83,19.82 8.77,20.89 7.60,21.74 6.42,22.59 6.15,22.64 5.88,22.69 5.45,22.82 5.03,22.94 4.59,22.97 4.15,22.99 3.72,22.90 3.29,22.82 2.89,22.63 2.49,22.45 2.15,22.17 1.80,21.90 1.54,21.55 1.27,21.20 1.09,20.79 0.92,20.39 0.84,19.96 0.77,19.52 0.80,19.08 0.83,18.64 0.97,18.23 1.11,17.81 1.34,17.43 1.57,17.06 1.89,16.75 2.20,16.44 2.58,16.22 2.96,16.00 4.51,16.06 6.06,16.12 7.39,15.92 8.72,15.72 9.86,15.71 11.00,15.70 12.14,15.69 13.29,15.68 14.93,15.68 16.57,15.68 17.16,15.78 17.76,15.87 18.30,16.16 18.83,16.44 19.25,16.88 19.67,17.32 19.92,17.87 20.17,18.42 20.24,19.02 20.31,19.63 20.18,20.22 20.05,20.81 19.73,21.33 19.42,21.85 18.96,22.24 18.50,22.63 17.93,22.86 17.37,23.08 16.77,23.11 16.16,23.15 15.58,22.98 14.99,22.82 14.49,22.48 13.99,22.14 13.62,21.66 13.26,21.18 13.06,20.60 12.87,20.03 12.87,19.42 12.87,18.82 13.06,18.24 13.26,17.67 13.62,17.19 13.99,16.70 14.49,16.36 14.99,16.02 15.58,15.86 16.16,15.70 16.77,15.73 17.37,15.77 17.93,15.99 18.50,16.22 18.96,16.61 19.42,17.00 19.73,17.52 20.05,18.04 20.18,18.63 20.31,19.22 20.24,19.82 20.17,20.43 19.92,20.98 19.67,21.53 19.25,21.97 18.83,22.41 18.30,22.69 17.76,22.97 17.16,23.07 16.57,23.17 16.57,23.17 16.57,23.17 14.36,23.16 12.14,23.16 11.00,23.15 9.86,23.14 8.72,23.12 7.57,23.11 6.43,23.10 5.29,23.08 4.12,22.87 2.95,22.66 4.41,22.67 5.88,22.69 5.45,22.82 5.03,22.94 4.59,22.97 4.15,22.99 3.72,22.90 3.29,22.82 2.89,22.63 2.49,22.45 2.15,22.17 1.81,21.90 1.54,21.55 1.27,21.20 1.09,20.79 0.92,20.39 0.84,19.96 0.77,19.52 0.80,19.08 0.83,18.64 0.97,18.23 1.11,17.81 1.34,17.43 1.57,17.06 1.89,16.75 2.20,16.44 2.58,16.22 2.96,16.00 3.47,15.70 3.98,15.41 4.96,14.48 5.94,13.55 6.92,12.56 7.91,11.57 7.94,10.43 7.97,9.29 8.01,8.15 8.04,7.01 8.07,5.90 8.09,4.79 7.71,3.62 7.33,2.45 5.96,2.37 4.60,2.29 3.50,2.30 2.41,2.31 1.42,2.44 0.43,2.58 0.11,2.59 -0.20,2.60 -0.50,2.54 -0.81,2.48 -1.10,2.35 -1.38,2.21 -1.63,2.01 -1.87,1.81 -2.06,1.56 -2.26,1.31 -2.38,1.02 -2.50,0.73 -2.56,0.42 -2.61,0.11 -2.58,-0.19 -2.56,-0.51 -2.46,-0.81 -2.36,-1.11 -2.20,-1.37 -2.03,-1.64 -1.80,-1.86 -1.57,-2.08 -1.30,-2.24 -1.03,-2.40 -0.73,-2.49 -0.42,-2.58 -0.42,-2.58 L -0.43,-2.58 Z"></path></g><g transform="translate(168.85714721679688 196.85714721679688) rotate(0 30 12.5)"><text x="0" y="0" font-family="Virgil, Segoe UI Emoji" font-size="20px" fill="#e03131" text-anchor="start" style="white-space: pre;" direction="ltr" dominant-baseline="text-before-edge">头插法</text></g></svg>