<svg version="1.1" xmlns="http://www.w3.org/2000/svg" viewBox="0 0 1028.000015258789 509.02252584807565" width="1028.000015258789" height="509.02252584807565">
  <!-- svg-source:excalidraw -->
  
  <defs>
    <style class="style-fonts">
      @font-face {
        font-family: "Virgil";
        src: url("https://excalidraw.com/Virgil.woff2");
      }
      @font-face {
        font-family: "Cascadia";
        src: url("https://excalidraw.com/Cascadia.woff2");
      }
      @font-face {
        font-family: "Assistant";
        src: url("https://excalidraw.com/Assistant-Regular.woff2");
      }
    </style>
    
  </defs>
  <rect x="0" y="0" width="1028.000015258789" height="509.02252584807565" fill="#ffffff"></rect><g stroke-linecap="round" transform="translate(484.0000762939453 10.015073180943716) rotate(0 138.5714111328125 41.71428680419922)"><path d="M20.86 0 C85.77 -0.25, 148.85 0.1, 256.29 0 M20.86 0 C110.37 0.96, 202.16 0.75, 256.29 0 M256.29 0 C268.52 -0.46, 278.72 7.41, 277.14 20.86 M256.29 0 C268.22 1.65, 277.51 6.92, 277.14 20.86 M277.14 20.86 C276.54 30.06, 278.88 40.66, 277.14 62.57 M277.14 20.86 C276.8 34.89, 276.71 49.73, 277.14 62.57 M277.14 62.57 C279 78.41, 270.6 85.31, 256.29 83.43 M277.14 62.57 C279.11 76.57, 271.6 84.09, 256.29 83.43 M256.29 83.43 C201.26 85.09, 146.27 83.53, 20.86 83.43 M256.29 83.43 C166.08 84.12, 74.46 84.07, 20.86 83.43 M20.86 83.43 C8.16 85.37, -1.06 76.14, 0 62.57 M20.86 83.43 C5.03 81.44, -1.33 75.16, 0 62.57 M0 62.57 C0.81 52.8, 1.69 40.47, 0 20.86 M0 62.57 C0.88 50.79, 0.04 37.34, 0 20.86 M0 20.86 C-0.18 6.67, 7.35 1.51, 20.86 0 M0 20.86 C2.25 8.6, 5.14 -2.08, 20.86 0" stroke="#1e1e1e" stroke-width="2" fill="none"></path></g><g stroke-linecap="round"><g transform="translate(572.5714569091797 11.157971740514029) rotate(0 1.14288330078125 40)"><path d="M0.52 -0.03 C0.81 13.42, 1.91 66.93, 2.21 80.43 M-0.67 -1.09 C-0.59 12.01, 0.84 65.16, 1.22 78.53" stroke="#1e1e1e" stroke-width="2" fill="none"></path></g></g><mask></mask><g stroke-linecap="round"><g transform="translate(664.0000152587891 10.015118957310904) rotate(0 2.857147216796875 41.142852783203125)"><path d="M1.11 0.68 C2.07 14.55, 4.74 68.91, 5.37 82.6 M0.24 -0.02 C1.04 13.54, 3.06 67.19, 4.25 80.64" stroke="#1e1e1e" stroke-width="2" fill="none"></path></g></g><mask></mask><g transform="translate(498.85716247558594 36.87220513895153) rotate(0 28.259971618652344 12.5)"><text x="0" y="0" font-family="Virgil, Segoe UI Emoji" font-size="20px" fill="#1e1e1e" text-anchor="start" style="white-space: pre;" direction="ltr" dominant-baseline="text-before-edge">*lchild</text></g><g transform="translate(684.0000152587891 36.300824523717154) rotate(0 29.929969787597656 12.5)"><text x="0" y="0" font-family="Virgil, Segoe UI Emoji" font-size="20px" fill="#1e1e1e" text-anchor="start" style="white-space: pre;" direction="ltr" dominant-baseline="text-before-edge">*rchild</text></g><g transform="translate(594.8571929931641 37.443646789342154) rotate(0 24.67998504638672 12.5)"><text x="0" y="0" font-family="Virgil, Segoe UI Emoji" font-size="20px" fill="#1e1e1e" text-anchor="start" style="white-space: pre;" direction="ltr" dominant-baseline="text-before-edge">data</text></g><g stroke-linecap="round" transform="translate(190.7142791748047 208.02266317717726) rotate(0 138.5714111328125 41.71428680419919)"><path d="M20.86 0 C113.73 1.61, 208.55 1.27, 256.29 0 M20.86 0 C75.39 -1.12, 129.8 -0.58, 256.29 0 M256.29 0 C271.65 -1.04, 277.65 6.21, 277.14 20.86 M256.29 0 C269.36 1.64, 275.71 8.75, 277.14 20.86 M277.14 20.86 C275.44 30.2, 275.57 43.17, 277.14 62.57 M277.14 20.86 C277.24 32.02, 278.04 44.32, 277.14 62.57 M277.14 62.57 C278.08 76.38, 270.39 84.05, 256.29 83.43 M277.14 62.57 C275.16 75.94, 268.37 82.92, 256.29 83.43 M256.29 83.43 C205.61 86.04, 156.64 85.68, 20.86 83.43 M256.29 83.43 C207.03 83.13, 156.49 82.9, 20.86 83.43 M20.86 83.43 C7.21 85.17, 1.13 76.57, 0 62.57 M20.86 83.43 C8.19 82.06, 0.05 76.71, 0 62.57 M0 62.57 C1.24 46.27, -0.25 31.81, 0 20.86 M0 62.57 C-0.11 52.92, 0.53 43.21, 0 20.86 M0 20.86 C1.45 7.65, 5.26 -0.76, 20.86 0 M0 20.86 C0.54 5.1, 8.15 -1.87, 20.86 0" stroke="#1e1e1e" stroke-width="2" fill="none"></path></g><g stroke-linecap="round"><g transform="translate(279.28565979003906 209.16556173674758) rotate(0 1.14288330078125 39.99999999999997)"><path d="M1.18 -0.35 C1.71 12.99, 3.23 65.66, 3.22 79.17 M0.34 -1.57 C0.8 11.97, 2.25 66.88, 2.76 80.28" stroke="#1e1e1e" stroke-width="2" fill="none"></path></g></g><mask></mask><g stroke-linecap="round"><g transform="translate(370.71421813964844 208.02270895354445) rotate(0 2.857147216796875 41.1428527832031)"><path d="M0.93 -0.83 C1.5 13.07, 3.74 69.16, 4.57 83.05 M-0.04 1.35 C0.78 14.94, 5.8 67.57, 6.68 81.32" stroke="#1e1e1e" stroke-width="2" fill="none"></path></g></g><mask></mask><g transform="translate(205.5713653564453 234.87979513518508) rotate(0 28.259971618652344 12.5)"><text x="0" y="0" font-family="Virgil, Segoe UI Emoji" font-size="20px" fill="#1e1e1e" text-anchor="start" style="white-space: pre;" direction="ltr" dominant-baseline="text-before-edge">*lchild</text></g><g transform="translate(390.71421813964844 234.3084145199507) rotate(0 29.929969787597656 12.5)"><text x="0" y="0" font-family="Virgil, Segoe UI Emoji" font-size="20px" fill="#1e1e1e" text-anchor="start" style="white-space: pre;" direction="ltr" dominant-baseline="text-before-edge">*rchild</text></g><g transform="translate(301.57139587402344 235.4512367855757) rotate(0 24.67998504638672 12.5)"><text x="0" y="0" font-family="Virgil, Segoe UI Emoji" font-size="20px" fill="#1e1e1e" text-anchor="start" style="white-space: pre;" direction="ltr" dominant-baseline="text-before-edge">data</text></g><g stroke-linecap="round" transform="translate(740.8571929931641 206.4511604916304) rotate(0 138.5714111328125 41.71428680419919)"><path d="M20.86 0 C112.69 -2.44, 203.77 0.12, 256.29 0 M20.86 0 C81.87 2.07, 141.16 1.01, 256.29 0 M256.29 0 C270.26 -1.13, 277.84 5.17, 277.14 20.86 M256.29 0 C270.19 1.19, 276.24 6.68, 277.14 20.86 M277.14 20.86 C275.43 32.03, 278.96 40.05, 277.14 62.57 M277.14 20.86 C276.95 34.72, 277.3 49.18, 277.14 62.57 M277.14 62.57 C275.48 78.42, 270.69 83.48, 256.29 83.43 M277.14 62.57 C275.12 78.37, 270.79 82.92, 256.29 83.43 M256.29 83.43 C174.21 83.09, 93.32 83.59, 20.86 83.43 M256.29 83.43 C183.93 84.01, 110.55 83.66, 20.86 83.43 M20.86 83.43 C7.63 84.39, -1.06 76.16, 0 62.57 M20.86 83.43 C7.75 82.23, -1.12 74.83, 0 62.57 M0 62.57 C0.26 54.04, -0.32 42.12, 0 20.86 M0 62.57 C-1.37 54.11, -0.91 46.15, 0 20.86 M0 20.86 C-0.09 7.57, 6.73 0.23, 20.86 0 M0 20.86 C0.97 7.76, 5.52 1.51, 20.86 0" stroke="#1e1e1e" stroke-width="2" fill="none"></path></g><g stroke-linecap="round"><g transform="translate(829.4285736083984 207.5940590512007) rotate(0 1.14288330078125 39.99999999999997)"><path d="M-0.9 -0.26 C-0.48 12.97, 2.48 66.28, 3.21 79.48 M0.83 -1.44 C1.1 11.93, 2.33 67.22, 2.75 80.75" stroke="#1e1e1e" stroke-width="2" fill="none"></path></g></g><mask></mask><g stroke-linecap="round"><g transform="translate(920.8571319580078 206.45120626799758) rotate(0 2.857147216796875 41.1428527832031)"><path d="M0.93 -0.52 C2.23 13.07, 5.98 67.37, 6.9 81.26 M-0.05 1.83 C1.28 15.55, 5.56 69.1, 6.58 82.25" stroke="#1e1e1e" stroke-width="2" fill="none"></path></g></g><mask></mask><g transform="translate(755.7142791748047 233.3082924496382) rotate(0 28.259971618652344 12.5)"><text x="0" y="0" font-family="Virgil, Segoe UI Emoji" font-size="20px" fill="#1e1e1e" text-anchor="start" style="white-space: pre;" direction="ltr" dominant-baseline="text-before-edge">*lchild</text></g><g transform="translate(940.8571319580078 232.73691183440383) rotate(0 29.929969787597656 12.5)"><text x="0" y="0" font-family="Virgil, Segoe UI Emoji" font-size="20px" fill="#1e1e1e" text-anchor="start" style="white-space: pre;" direction="ltr" dominant-baseline="text-before-edge">*rchild</text></g><g transform="translate(851.7143096923828 233.87973410002883) rotate(0 24.67998504638672 12.5)"><text x="0" y="0" font-family="Virgil, Segoe UI Emoji" font-size="20px" fill="#1e1e1e" text-anchor="start" style="white-space: pre;" direction="ltr" dominant-baseline="text-before-edge">data</text></g><g stroke-linecap="round" transform="translate(10 410.0225411068647) rotate(0 138.5714111328125 41.71428680419922)"><path d="M20.86 0 C102.48 -3.05, 182.43 -2.34, 256.29 0 M20.86 0 C103.18 0.14, 186.76 0.56, 256.29 0 M256.29 0 C270.23 1.85, 276.1 8.94, 277.14 20.86 M256.29 0 C268.46 0.26, 277.79 6.86, 277.14 20.86 M277.14 20.86 C277.33 34.9, 276.85 47.06, 277.14 62.57 M277.14 20.86 C277.65 30.52, 277.21 40.19, 277.14 62.57 M277.14 62.57 C278.48 74.84, 272.19 81.45, 256.29 83.43 M277.14 62.57 C278.1 78.43, 268.93 84.21, 256.29 83.43 M256.29 83.43 C205.57 85.01, 154.53 85.52, 20.86 83.43 M256.29 83.43 C195.14 82.35, 133.15 82.51, 20.86 83.43 M20.86 83.43 C6.57 82.36, -1.26 75.16, 0 62.57 M20.86 83.43 C7.4 81.8, -0.9 74.7, 0 62.57 M0 62.57 C-0.49 51.11, -0.77 35.47, 0 20.86 M0 62.57 C-0.35 48.88, -0.7 36.62, 0 20.86 M0 20.86 C-1.14 8.34, 6.95 -0.71, 20.86 0 M0 20.86 C-0.41 6.84, 5.16 -2.15, 20.86 0" stroke="#1e1e1e" stroke-width="2" fill="none"></path></g><g stroke-linecap="round"><g transform="translate(98.57138061523438 411.165439666435) rotate(0 1.14288330078125 40)"><path d="M-1 0.08 C-0.86 13.41, 1.18 67.31, 1.8 80.61 M0.68 -0.92 C0.52 12, 0.35 65.13, 0.59 78.81" stroke="#1e1e1e" stroke-width="2" fill="none"></path></g></g><mask></mask><g stroke-linecap="round"><g transform="translate(189.99993896484375 410.0225868832319) rotate(0 2.857147216796875 41.142852783203125)"><path d="M-0.49 0.61 C0.69 14.29, 5.15 68.58, 6.11 82.19 M1.45 -0.11 C2.6 13.76, 4.9 69.73, 5.37 83.67" stroke="#1e1e1e" stroke-width="2" fill="none"></path></g></g><mask></mask><g transform="translate(24.857086181640625 436.8796730648725) rotate(0 28.259971618652344 12.5)"><text x="0" y="0" font-family="Virgil, Segoe UI Emoji" font-size="20px" fill="#1e1e1e" text-anchor="start" style="white-space: pre;" direction="ltr" dominant-baseline="text-before-edge">*lchild</text></g><g transform="translate(209.99993896484375 436.30829244963815) rotate(0 29.929969787597656 12.5)"><text x="0" y="0" font-family="Virgil, Segoe UI Emoji" font-size="20px" fill="#1e1e1e" text-anchor="start" style="white-space: pre;" direction="ltr" dominant-baseline="text-before-edge">*rchild</text></g><g transform="translate(120.85711669921875 437.45111471526315) rotate(0 24.67998504638672 12.5)"><text x="0" y="0" font-family="Virgil, Segoe UI Emoji" font-size="20px" fill="#1e1e1e" text-anchor="start" style="white-space: pre;" direction="ltr" dominant-baseline="text-before-edge">data</text></g><g stroke-linecap="round" transform="translate(342.7142791748047 415.5939522396772) rotate(0 138.5714111328125 41.71428680419922)"><path d="M20.86 0 C114.47 -1.79, 206.84 -1.1, 256.29 0 M20.86 0 C91.38 -1.13, 160.48 -0.83, 256.29 0 M256.29 0 C269.07 0.6, 277.46 5.09, 277.14 20.86 M256.29 0 C270.69 0.56, 278.56 4.78, 277.14 20.86 M277.14 20.86 C275.65 31.57, 278.74 41.08, 277.14 62.57 M277.14 20.86 C277.6 34.82, 277.81 48.22, 277.14 62.57 M277.14 62.57 C277.56 77.02, 269.28 83.38, 256.29 83.43 M277.14 62.57 C278.91 76.03, 269.93 84.64, 256.29 83.43 M256.29 83.43 C191.65 82.95, 127.07 84.08, 20.86 83.43 M256.29 83.43 C206.23 85.15, 155.61 85.72, 20.86 83.43 M20.86 83.43 C5.1 81.45, -0.21 77.03, 0 62.57 M20.86 83.43 C7.77 82.71, 1.61 76.09, 0 62.57 M0 62.57 C-2.19 48.07, 0.14 33.39, 0 20.86 M0 62.57 C-0.85 49.27, -0.93 33.84, 0 20.86 M0 20.86 C-1.44 7.9, 6.57 -0.55, 20.86 0 M0 20.86 C-1.5 5.91, 8.32 -0.88, 20.86 0" stroke="#1e1e1e" stroke-width="2" fill="none"></path></g><g stroke-linecap="round"><g transform="translate(431.28565979003906 416.7368507992475) rotate(0 1.14288330078125 40)"><path d="M-0.37 0.7 C-0.1 13.89, 1.91 66.68, 2.41 79.95 M1.64 0.02 C1.7 13.34, 1.46 67.83, 1.53 81.47" stroke="#1e1e1e" stroke-width="2" fill="none"></path></g></g><mask></mask><g stroke-linecap="round"><g transform="translate(522.7142181396484 415.5939980160444) rotate(0 2.857147216796875 41.142852783203125)"><path d="M0.12 -0.05 C1.19 13.61, 4.92 69.04, 6.05 82.62 M-1.27 -1.12 C-0.3 12.1, 3.94 66.76, 5.28 80.67" stroke="#1e1e1e" stroke-width="2" fill="none"></path></g></g><mask></mask><g transform="translate(357.5713653564453 442.451084197685) rotate(0 28.259971618652344 12.5)"><text x="0" y="0" font-family="Virgil, Segoe UI Emoji" font-size="20px" fill="#1e1e1e" text-anchor="start" style="white-space: pre;" direction="ltr" dominant-baseline="text-before-edge">*lchild</text></g><g transform="translate(542.7142181396484 441.87970358245065) rotate(0 29.929969787597656 12.5)"><text x="0" y="0" font-family="Virgil, Segoe UI Emoji" font-size="20px" fill="#1e1e1e" text-anchor="start" style="white-space: pre;" direction="ltr" dominant-baseline="text-before-edge">*rchild</text></g><g transform="translate(453.57139587402344 443.02252584807565) rotate(0 24.67998504638672 12.5)"><text x="0" y="0" font-family="Virgil, Segoe UI Emoji" font-size="20px" fill="#1e1e1e" text-anchor="start" style="white-space: pre;" direction="ltr" dominant-baseline="text-before-edge">data</text></g><g stroke-linecap="round" transform="translate(666.5713653564453 409.8797188412397) rotate(0 138.5714111328125 41.71428680419922)"><path d="M20.86 0 C105.19 1.86, 190.04 2.95, 256.29 0 M20.86 0 C110.32 2.19, 198.02 1.81, 256.29 0 M256.29 0 C268.71 -0.21, 278.52 7.99, 277.14 20.86 M256.29 0 C271.5 -0.27, 276.21 8.09, 277.14 20.86 M277.14 20.86 C275.34 29.75, 275.61 41.59, 277.14 62.57 M277.14 20.86 C276.58 37.26, 278.1 53.66, 277.14 62.57 M277.14 62.57 C277.63 77.32, 269.37 81.72, 256.29 83.43 M277.14 62.57 C276.07 74.29, 271.07 81.33, 256.29 83.43 M256.29 83.43 C183.57 85.46, 112.78 85.33, 20.86 83.43 M256.29 83.43 C174.18 83.4, 91.46 82.22, 20.86 83.43 M20.86 83.43 C6.76 82.91, -1.3 76.41, 0 62.57 M20.86 83.43 C7.63 81.33, 1.97 75.96, 0 62.57 M0 62.57 C-1.09 46.53, 1 33.99, 0 20.86 M0 62.57 C-1.05 53.59, -0.45 44.92, 0 20.86 M0 20.86 C-1.43 8.3, 7.43 -1.45, 20.86 0 M0 20.86 C-0.63 8.9, 9.06 0.17, 20.86 0" stroke="#1e1e1e" stroke-width="2" fill="none"></path></g><g stroke-linecap="round"><g transform="translate(755.1427459716797 411.02261740081) rotate(0 1.14288330078125 40)"><path d="M-0.03 1.18 C0.67 14.6, 2.77 67.96, 3.03 80.92 M-1.5 0.76 C-0.8 13.82, 1.55 66.12, 2.48 79.29" stroke="#1e1e1e" stroke-width="2" fill="none"></path></g></g><mask></mask><g stroke-linecap="round"><g transform="translate(846.5713043212891 409.8797646176069) rotate(0 2.857147216796875 41.142852783203125)"><path d="M0.75 0.92 C1.58 14.27, 3.99 67.59, 4.98 81.27 M-0.32 0.36 C0.91 14.34, 6.18 68.83, 7.31 82.28" stroke="#1e1e1e" stroke-width="2" fill="none"></path></g></g><mask></mask><g transform="translate(681.4284515380859 436.7368507992475) rotate(0 28.259971618652344 12.5)"><text x="0" y="0" font-family="Virgil, Segoe UI Emoji" font-size="20px" fill="#1e1e1e" text-anchor="start" style="white-space: pre;" direction="ltr" dominant-baseline="text-before-edge">*lchild</text></g><g transform="translate(866.5713043212891 436.16547018401315) rotate(0 29.929969787597656 12.5)"><text x="0" y="0" font-family="Virgil, Segoe UI Emoji" font-size="20px" fill="#1e1e1e" text-anchor="start" style="white-space: pre;" direction="ltr" dominant-baseline="text-before-edge">*rchild</text></g><g transform="translate(777.4284820556641 437.30829244963815) rotate(0 24.67998504638672 12.5)"><text x="0" y="0" font-family="Virgil, Segoe UI Emoji" font-size="20px" fill="#1e1e1e" text-anchor="start" style="white-space: pre;" direction="ltr" dominant-baseline="text-before-edge">data</text></g><g stroke-linecap="round"><g transform="translate(525.7143096923828 63.729291320592154) rotate(0 -83.14285278320312 64)"><path d="M-0.44 -0.18 C-28.14 21.06, -139.3 106.41, -166.78 127.83 M1.53 -1.32 C-26.33 20.07, -140.13 107.42, -167.98 129.28" stroke="#1e1e1e" stroke-width="2" fill="none"></path></g><g transform="translate(525.7143096923828 63.729291320592154) rotate(0 -83.14285278320312 64)"><path d="M-154.65 108.13 C-158.28 112.67, -161.67 120.52, -167.98 129.28 M-154.65 108.13 C-160.05 115.09, -163.69 122.29, -167.98 129.28" stroke="#1e1e1e" stroke-width="2" fill="none"></path></g><g transform="translate(525.7143096923828 63.729291320592154) rotate(0 -83.14285278320312 64)"><path d="M-144.18 121.65 C-150.53 122.7, -156.6 127.09, -167.98 129.28 M-144.18 121.65 C-152.99 124.12, -160.06 126.89, -167.98 129.28" stroke="#1e1e1e" stroke-width="2" fill="none"></path></g></g><mask></mask><g stroke-linecap="round"><g transform="translate(724.5715484619141 66.58645379617809) rotate(0 67.142822265625 63.428565979003906)"><path d="M0.52 -0.28 C22.63 21.08, 111.31 105.92, 133.52 127.04 M-0.67 -1.47 C21.76 20.21, 113.6 107.17, 135.82 128.67" stroke="#1e1e1e" stroke-width="2" fill="none"></path></g><g transform="translate(724.5715484619141 66.58645379617809) rotate(0 67.142822265625 63.428565979003906)"><path d="M112.93 118.62 C120.79 120.93, 129.98 124.99, 135.82 128.67 M112.93 118.62 C119.27 121.78, 125.31 123.07, 135.82 128.67" stroke="#1e1e1e" stroke-width="2" fill="none"></path></g><g transform="translate(724.5715484619141 66.58645379617809) rotate(0 67.142822265625 63.428565979003906)"><path d="M124.75 106.26 C128.15 113.17, 132.99 121.77, 135.82 128.67 M124.75 106.26 C127.95 112.67, 130.87 117.23, 135.82 128.67" stroke="#1e1e1e" stroke-width="2" fill="none"></path></g></g><mask></mask><g stroke-linecap="round"><g transform="translate(249.1428985595703 269.4435857541859) rotate(0 -43.42858123779297 61.42860412597656)"><path d="M-0.82 -1.17 C-15.67 19.17, -73.74 101.48, -88.02 122.04 M0.95 0.84 C-13.64 21.3, -71.24 102.76, -85.92 123.15" stroke="#1e1e1e" stroke-width="2" fill="none"></path></g><g transform="translate(249.1428985595703 269.4435857541859) rotate(0 -43.42858123779297 61.42860412597656)"><path d="M-79.25 99.06 C-83.78 106.43, -85.79 118.26, -85.92 123.15 M-79.25 99.06 C-81.41 105.67, -82.49 109.9, -85.92 123.15" stroke="#1e1e1e" stroke-width="2" fill="none"></path></g><g transform="translate(249.1428985595703 269.4435857541859) rotate(0 -43.42858123779297 61.42860412597656)"><path d="M-65.33 108.98 C-75.27 112.4, -82.69 120.38, -85.92 123.15 M-65.33 108.98 C-70.86 113.08, -75.37 114.86, -85.92 123.15" stroke="#1e1e1e" stroke-width="2" fill="none"></path></g></g><mask></mask><g stroke-linecap="round"><g transform="translate(420.5714569091797 262.01505792215465) rotate(0 32.285736083984375 70.28570556640625)"><path d="M0.62 0.55 C11.46 24.12, 53.95 118.3, 64.7 141.66 M-0.52 -0.21 C10.2 23.03, 52.95 116.39, 63.82 140.11" stroke="#1e1e1e" stroke-width="2" fill="none"></path></g><g transform="translate(420.5714569091797 262.01505792215465) rotate(0 32.285736083984375 70.28570556640625)"><path d="M46.26 122.32 C52 127.3, 57.69 132.9, 63.82 140.11 M46.26 122.32 C52.02 127.19, 57.68 134.26, 63.82 140.11" stroke="#1e1e1e" stroke-width="2" fill="none"></path></g><g transform="translate(420.5714569091797 262.01505792215465) rotate(0 32.285736083984375 70.28570556640625)"><path d="M61.81 115.19 C63.32 122.2, 64.77 129.74, 63.82 140.11 M61.81 115.19 C62.66 122.21, 63.44 131.52, 63.82 140.11" stroke="#1e1e1e" stroke-width="2" fill="none"></path></g></g><mask></mask><g stroke-linecap="round"><g transform="translate(782.8571929931641 269.4435857541859) rotate(0 -1.142822265625 62.571441650390625)"><path d="M-1.04 -0.1 C-1.4 20.44, -1.47 103.18, -1.73 124 M0.61 -1.2 C0.11 19.38, -1.69 103.75, -2.39 124.94" stroke="#1e1e1e" stroke-width="2" fill="none"></path></g><g transform="translate(782.8571929931641 269.4435857541859) rotate(0 -1.142822265625 62.571441650390625)"><path d="M-10.32 101.23 C-7.67 110.2, -6.73 116.67, -2.39 124.94 M-10.32 101.23 C-7.64 107.24, -6.67 113.25, -2.39 124.94" stroke="#1e1e1e" stroke-width="2" fill="none"></path></g><g transform="translate(782.8571929931641 269.4435857541859) rotate(0 -1.142822265625 62.571441650390625)"><path d="M6.78 101.68 C3.68 110.35, -1.13 116.67, -2.39 124.94 M6.78 101.68 C4.77 107.72, 1.06 113.61, -2.39 124.94" stroke="#1e1e1e" stroke-width="2" fill="none"></path></g></g><mask></mask></svg>