<svg version="1.1" xmlns="http://www.w3.org/2000/svg" viewBox="0 0 1592.5855407714844 1488.628108215332" width="1592.5855407714844" height="1488.628108215332">
  <!-- svg-source:excalidraw -->
  
  <defs>
    <style class="style-fonts">
      @font-face {
        font-family: "Virgil";
        src: url("https://excalidraw.com/Virgil.woff2");
      }
      @font-face {
        font-family: "Cascadia";
        src: url("https://excalidraw.com/Cascadia.woff2");
      }
      @font-face {
        font-family: "Assistant";
        src: url("https://excalidraw.com/Assistant-Regular.woff2");
      }
    </style>
    
  </defs>
  <rect x="0" y="0" width="1592.5855407714844" height="1488.628108215332" fill="#ffffff"></rect><g stroke-linecap="round" transform="translate(738.5715103149414 10) rotate(0 29.28577423095703 32)"><path d="M32.77 -0.6 C38.99 -0.36, 46.93 4.85, 51.26 9.95 C55.6 15.04, 58.48 23.14, 58.78 29.98 C59.08 36.82, 56.75 45.47, 53.05 51 C49.35 56.53, 42.65 61.63, 36.56 63.16 C30.47 64.7, 22.03 63.17, 16.53 60.22 C11.03 57.26, 6.23 51.56, 3.53 45.42 C0.83 39.28, -1.26 29.97, 0.33 23.37 C1.92 16.77, 7.5 9.82, 13.05 5.83 C18.6 1.85, 29.83 0.15, 33.61 -0.54 C37.4 -1.23, 35.66 0.96, 35.77 1.71 M19.67 3.3 C25.01 0.52, 33.66 -1.4, 39.32 0.63 C44.98 2.65, 50.44 9.36, 53.64 15.45 C56.84 21.54, 59.52 30.55, 58.5 37.16 C57.47 43.76, 52.28 50.43, 47.48 55.09 C42.69 59.74, 35.94 64.93, 29.71 65.1 C23.48 65.26, 15.17 60.68, 10.09 56.07 C5 51.47, 0.29 43.97, -0.81 37.49 C-1.9 31.01, 0.2 23.08, 3.52 17.19 C6.84 11.29, 16.55 4.31, 19.11 2.1 C21.68 -0.12, 18.85 3.56, 18.89 3.9" stroke="#2f9e44" stroke-width="2" fill="none"></path></g><g transform="translate(758.4651168869804 24.372583002030467) rotate(0 9.183998107910156 17.5)"><text x="9.183998107910156" y="0" font-family="Virgil, Segoe UI Emoji" font-size="28px" fill="#2f9e44" text-anchor="middle" style="white-space: pre;" direction="ltr" dominant-baseline="text-before-edge">A</text></g><g stroke-linecap="round" transform="translate(663.5713195800781 133.03565979003906) rotate(0 29.28577423095703 32)"><path d="M20.66 0.82 C26.12 -1.42, 34.85 -0.65, 40.81 2.17 C46.77 5, 53.57 11.53, 56.42 17.76 C59.26 23.99, 59.44 32.81, 57.88 39.56 C56.32 46.31, 52.21 54.14, 47.06 58.27 C41.91 62.4, 33.23 64.84, 26.99 64.34 C20.74 63.84, 13.97 60.13, 9.61 55.26 C5.25 50.4, 1.65 42.01, 0.82 35.14 C0 28.28, 0.89 19.7, 4.67 14.08 C8.44 8.46, 19.8 3.75, 23.47 1.4 C27.13 -0.95, 26.58 -0.46, 26.65 -0.02 M43.56 4.69 C49.07 7.24, 52.93 12.45, 55.48 18.48 C58.03 24.5, 60.66 34.15, 58.86 40.84 C57.06 47.53, 49.94 54.88, 44.69 58.61 C39.44 62.34, 33.48 64.09, 27.36 63.21 C21.23 62.33, 12.43 58.28, 7.94 53.32 C3.44 48.36, 0.79 40.07, 0.39 33.44 C-0.02 26.82, 1.98 18.78, 5.52 13.57 C9.07 8.37, 15.63 3.88, 21.65 2.21 C27.67 0.54, 38.12 3.42, 41.66 3.55 C45.2 3.67, 42.87 2.32, 42.9 2.96" stroke="#2f9e44" stroke-width="2" fill="none"></path></g><g transform="translate(682.4709304856132 147.40824279206953) rotate(0 10.177993774414062 17.5)"><text x="10.177993774414062" y="0" font-family="Virgil, Segoe UI Emoji" font-size="28px" fill="#2f9e44" text-anchor="middle" style="white-space: pre;" direction="ltr" dominant-baseline="text-before-edge">B</text></g><g stroke-linecap="round" transform="translate(817.6786804199219 130.35709381103516) rotate(0 29.28577423095703 32)"><path d="M23.71 0.65 C29.52 -1.1, 37.37 0.23, 42.89 3.48 C48.41 6.72, 54.47 13.69, 56.8 20.1 C59.14 26.51, 58.75 35.45, 56.9 41.95 C55.05 48.45, 50.82 55.54, 45.7 59.12 C40.58 62.7, 32.57 64.37, 26.2 63.45 C19.83 62.52, 11.91 58.43, 7.46 53.59 C3.01 48.74, -0.2 41.32, -0.49 34.36 C-0.78 27.4, 1.53 17.44, 5.71 11.83 C9.88 6.22, 20.77 2.59, 24.56 0.68 C28.36 -1.23, 28.42 -0.24, 28.5 0.39 M44.65 3.97 C49.99 6.81, 53.25 14.13, 55.5 20.39 C57.75 26.65, 60 35.19, 58.12 41.52 C56.25 47.84, 49.74 54.77, 44.26 58.31 C38.79 61.86, 31.43 63.58, 25.28 62.78 C19.12 61.98, 11.63 58.31, 7.33 53.53 C3.04 48.75, -0.24 40.94, -0.47 34.09 C-0.7 27.24, 1.79 18.14, 5.96 12.43 C10.13 6.72, 18.15 1.04, 24.53 -0.17 C30.92 -1.38, 41.38 4.32, 44.28 5.17 C47.19 6.03, 42.53 4.57, 41.97 4.94" stroke="#2f9e44" stroke-width="2" fill="none"></path></g><g transform="translate(838.7202896164725 144.72967681306562) rotate(0 8.035995483398438 17.5)"><text x="8.035995483398438" y="0" font-family="Virgil, Segoe UI Emoji" font-size="28px" fill="#2f9e44" text-anchor="middle" style="white-space: pre;" direction="ltr" dominant-baseline="text-before-edge">F</text></g><g stroke-linecap="round" transform="translate(719.2857360839844 256.60717010498047) rotate(0 29.28577423095703 32)"><path d="M27.84 0.5 C33.68 -0.25, 41.16 2.58, 46.24 6.59 C51.32 10.6, 56.67 18, 58.33 24.54 C60 31.08, 59.14 39.73, 56.22 45.83 C53.3 51.94, 46.75 58.21, 40.81 61.18 C34.88 64.14, 26.62 65.63, 20.6 63.61 C14.57 61.58, 8.17 54.82, 4.66 49.04 C1.15 43.26, -1.34 35.66, -0.46 28.92 C0.41 22.18, 4.53 13.23, 9.92 8.61 C15.31 3.98, 27.15 2.36, 31.88 1.18 C36.6 0, 38.28 1.01, 38.27 1.53 M31.27 -0.61 C37.35 -1, 43.92 2.65, 48.47 7.18 C53.02 11.71, 57.63 19.56, 58.58 26.56 C59.53 33.56, 57.59 43, 54.15 49.18 C50.71 55.36, 43.98 61.5, 37.95 63.64 C31.93 65.79, 23.57 64.94, 18.01 62.05 C12.45 59.17, 7.3 52.19, 4.57 46.31 C1.85 40.43, 0.72 33.25, 1.65 26.76 C2.59 20.27, 5.57 11.7, 10.17 7.36 C14.78 3.03, 25.73 1.64, 29.27 0.75 C32.81 -0.14, 31.22 1.77, 31.4 2.01" stroke="#2f9e44" stroke-width="2" fill="none"></path></g><g transform="translate(739.3473419236014 270.979753107011) rotate(0 9.015998840332031 17.5)"><text x="9.015998840332031" y="0" font-family="Virgil, Segoe UI Emoji" font-size="28px" fill="#2f9e44" text-anchor="middle" style="white-space: pre;" direction="ltr" dominant-baseline="text-before-edge">C</text></g><g stroke-linecap="round" transform="translate(645.8928680419922 370.17852783203125) rotate(0 29.28577423095703 32)"><path d="M36.17 0.92 C42.24 1.8, 49.45 6.79, 53.14 12.17 C56.82 17.56, 58.71 26.18, 58.25 33.23 C57.8 40.27, 54.63 49.49, 50.4 54.44 C46.17 59.4, 39.11 62.13, 32.88 62.95 C26.64 63.78, 18.07 62.99, 12.97 59.39 C7.87 55.8, 4.17 47.82, 2.28 41.39 C0.39 34.96, -0.76 27.16, 1.64 20.82 C4.05 14.47, 10.24 6.19, 16.7 3.3 C23.16 0.4, 35.65 3.15, 40.4 3.46 C45.14 3.77, 45.29 4.69, 45.17 5.15 M23.53 -0.18 C29.34 -1.71, 37.63 0.5, 43.03 4.08 C48.44 7.66, 53.68 14.92, 55.97 21.28 C58.25 27.65, 58.41 36.08, 56.73 42.26 C55.05 48.43, 50.96 54.55, 45.88 58.34 C40.79 62.13, 32.78 65.73, 26.22 64.99 C19.66 64.25, 11.03 59.09, 6.5 53.9 C1.98 48.71, -1.07 40.54, -0.92 33.82 C-0.76 27.11, 3.37 19.32, 7.44 13.63 C11.51 7.95, 20.62 1.77, 23.48 -0.29 C26.35 -2.35, 24.48 0.45, 24.61 1.28" stroke="#2f9e44" stroke-width="2" fill="none"></path></g><g transform="translate(664.050474552996 384.5511108340618) rotate(0 10.919998168945312 17.5)"><text x="10.919998168945312" y="0" font-family="Virgil, Segoe UI Emoji" font-size="28px" fill="#2f9e44" text-anchor="middle" style="white-space: pre;" direction="ltr" dominant-baseline="text-before-edge">D</text></g><g stroke-linecap="round" transform="translate(787.3213195800781 373.03565979003906) rotate(0 29.28577423095703 32)"><path d="M31.63 0.03 C37.41 0.41, 45.11 5.56, 49.53 10.32 C53.96 15.07, 57.66 21.8, 58.17 28.54 C58.68 35.29, 56.01 45.12, 52.59 50.8 C49.18 56.48, 43.74 60.77, 37.68 62.63 C31.63 64.49, 21.93 64.88, 16.27 61.96 C10.6 59.03, 6.29 51.32, 3.7 45.09 C1.11 38.85, -0.76 31.23, 0.73 24.56 C2.22 17.89, 6.28 8.74, 12.62 5.05 C18.97 1.36, 33.54 2.37, 38.82 2.42 C44.09 2.46, 44.55 4.9, 44.27 5.32 M20.43 2.58 C25.97 0.33, 34.48 0.59, 40.51 2.97 C46.53 5.35, 53.51 10.56, 56.57 16.85 C59.62 23.14, 60.61 33.82, 58.81 40.71 C57.01 47.6, 51.12 54.2, 45.75 58.19 C40.39 62.19, 32.52 64.94, 26.62 64.68 C20.73 64.42, 14.75 61.61, 10.39 56.62 C6.02 51.62, 1.17 41.75, 0.46 34.71 C-0.26 27.66, 2.61 19.77, 6.1 14.35 C9.59 8.93, 18.77 4.07, 21.39 2.19 C24.01 0.31, 21.52 2.91, 21.81 3.07" stroke="#2f9e44" stroke-width="2" fill="none"></path></g><g transform="translate(806.9629272507499 387.4082427920696) rotate(0 9.435997009277344 17.5)"><text x="9.435997009277344" y="0" font-family="Virgil, Segoe UI Emoji" font-size="28px" fill="#2f9e44" text-anchor="middle" style="white-space: pre;" direction="ltr" dominant-baseline="text-before-edge">E</text></g><g stroke-linecap="round"><g transform="translate(745.7143783569336 63.57139587402344) rotate(0 -18.928565979003906 34.28571701049805)"><path d="M0.4 -0.03 C-5.76 11.77, -30.92 58.36, -37.33 69.72 M-0.85 -1.08 C-7.09 10.5, -31.66 56.49, -38 68.2" stroke="#2f9e44" stroke-width="2" fill="none"></path></g></g><mask></mask><g stroke-linecap="round"><g transform="translate(791.4287948608398 57.14282989501953) rotate(0 20 37.85717010498047)"><path d="M0.07 0.94 C6.82 13.63, 34.14 63.52, 40.72 75.95 M-1.35 0.39 C5.28 12.71, 33.5 61.22, 40.15 73.95" stroke="#2f9e44" stroke-width="2" fill="none"></path></g></g><mask></mask><g stroke-linecap="round"><g transform="translate(697.1430587768555 192.14282989501953) rotate(0 17.142868041992188 31.428565979003906)"><path d="M-0.51 0.36 C5.35 10.88, 29.28 53.77, 35.2 64.03 M1.43 -0.5 C7.2 9.65, 29.19 51.99, 34.73 62.53" stroke="#2f9e44" stroke-width="2" fill="none"></path></g></g><mask></mask><g stroke-linecap="round"><g transform="translate(728.5715103149414 317.14282989501953) rotate(0 -15 28.928565979003906)"><path d="M1.07 1.16 C-3.94 10.76, -23.73 47.81, -28.88 57.29 M0.17 0.73 C-4.99 10.51, -24.13 48.74, -29.23 58.53" stroke="#2f9e44" stroke-width="2" fill="none"></path></g></g><mask></mask><g stroke-linecap="round"><g transform="translate(762.1430587768555 313.5714340209961) rotate(0 17.5 28.928565979003906)"><path d="M-0.54 0.65 C5.36 10.64, 29.1 49.29, 35.05 58.94 M1.38 -0.05 C7.15 9.71, 28.61 47.94, 34.13 57.39" stroke="#2f9e44" stroke-width="2" fill="none"></path></g></g><mask></mask><g transform="translate(11.42852783203125 117.85713195800781) rotate(0 147.7861328125 32.19999999999999)"><text x="0" y="0" font-family="Helvetica, Segoe UI Emoji" font-size="28px" fill="#1971c2" text-anchor="start" style="white-space: pre;" direction="ltr" dominant-baseline="text-before-edge">中序序列：BDCEAFHG</text><text x="0" y="32.199999999999996" font-family="Helvetica, Segoe UI Emoji" font-size="28px" fill="#1971c2" text-anchor="start" style="white-space: pre;" direction="ltr" dominant-baseline="text-before-edge">后续序列：DECBHGFA</text></g><g transform="translate(15 67.14282989501953) rotate(0 28 16.099999999999994)"><text x="0" y="0" font-family="Helvetica, Segoe UI Emoji" font-size="28px" fill="#1971c2" text-anchor="start" style="white-space: pre;" direction="ltr" dominant-baseline="text-before-edge">已知</text></g><g transform="translate(10 199.9999237060547) rotate(0 112 16.100000000000023)"><text x="0" y="0" font-family="Helvetica, Segoe UI Emoji" font-size="28px" fill="#1971c2" text-anchor="start" style="white-space: pre;" direction="ltr" dominant-baseline="text-before-edge">请画出这颗二叉树</text></g><g transform="translate(31.785545349121094 368.3927345275879) rotate(0 247.96798706054688 17.5)"><text x="0" y="0" font-family="Virgil, Segoe UI Emoji" font-size="28px" fill="#1e1e1e" text-anchor="start" style="white-space: pre;" direction="ltr" dominant-baseline="text-before-edge">2、后序遍历，根结点必在后序序列尾部</text></g><g transform="translate(36.07128143310547 317.6784896850586) rotate(0 269.79400634765625 17.5)"><text x="0" y="0" font-family="Virgil, Segoe UI Emoji" font-size="28px" fill="#1e1e1e" text-anchor="start" style="white-space: pre;" direction="ltr" dominant-baseline="text-before-edge">1、中序遍历，根结点在两边子树的元素中间</text></g><g stroke-linecap="round" transform="translate(18.928451538085938 307.6784133911133) rotate(0 290.3571891784668 51.42855644226074)"><path d="M25.71 0 C208.03 1.25, 389.4 0.17, 555 0 M25.71 0 C209.85 0.56, 393.7 0.44, 555 0 M555 0 C571.23 -0.29, 580.1 9.23, 580.71 25.71 M555 0 C570.02 1.47, 580.46 7.81, 580.71 25.71 M580.71 25.71 C583.01 42.11, 579.44 56.53, 580.71 77.14 M580.71 25.71 C581.7 38.61, 580.48 50.43, 580.71 77.14 M580.71 77.14 C582.45 93.44, 573.87 101.55, 555 102.86 M580.71 77.14 C578.84 92.43, 569.85 100.82, 555 102.86 M555 102.86 C377.62 104.32, 201.19 103.52, 25.71 102.86 M555 102.86 C422.32 104.22, 290.42 104.58, 25.71 102.86 M25.71 102.86 C6.77 103.97, 1.19 95.32, 0 77.14 M25.71 102.86 C6.94 103.72, 0.82 95.93, 0 77.14 M0 77.14 C-0.71 63.13, 1.48 45.32, 0 25.71 M0 77.14 C-0.41 57.73, -0.11 39.43, 0 25.71 M0 25.71 C1.01 8.3, 9.47 0.12, 25.71 0 M0 25.71 C1.38 10.23, 8.92 -1.23, 25.71 0" stroke="#e03131" stroke-width="2" fill="none"></path></g><g stroke-linecap="round"><g transform="translate(484.6426773071289 351.96420669555664) rotate(0 27.5 0)"><path d="M1.07 0.88 C10.2 0.78, 45.43 0.74, 54.45 0.57 M0.18 0.29 C9.12 0.35, 44.16 -1.39, 53.21 -1.25" stroke="#e03131" stroke-width="2" fill="none"></path></g></g><mask></mask><g stroke-linecap="round"><g transform="translate(440.35694122314453 406.964168548584) rotate(0 30.357208251953125 -1.0714340209960938)"><path d="M-0.55 0.57 C9.42 0.05, 50.64 -1.98, 60.91 -2.26 M1.36 -0.17 C11.1 -0.58, 50.21 -0.33, 60.07 -0.79" stroke="#e03131" stroke-width="2" fill="none"></path></g></g><mask></mask><g transform="translate(12.499809265136719 264.8213005065918) rotate(0 28 16.100000000000023)"><text x="0" y="0" font-family="Helvetica, Segoe UI Emoji" font-size="28px" fill="#e03131" text-anchor="start" style="white-space: pre;" direction="ltr" dominant-baseline="text-before-edge">提示</text></g><g transform="translate(40.71418762207031 514.1070556640625) rotate(0 147.7861328125 16.100000000000023)"><text x="0" y="0" font-family="Helvetica, Segoe UI Emoji" font-size="28px" fill="#1e1e1e" text-anchor="start" style="white-space: pre;" direction="ltr" dominant-baseline="text-before-edge">中序序列：BDCEAFHG</text></g><g transform="translate(41.42852783203125 462.0213577270508) rotate(0 147.013671875 16.100000000000023)"><text x="0" y="0" font-family="Helvetica, Segoe UI Emoji" font-size="28px" fill="#1e1e1e" text-anchor="start" style="white-space: pre;" direction="ltr" dominant-baseline="text-before-edge">后续序列：DECBHGFA</text></g><g stroke-linecap="round" transform="translate(317.1428680419922 460) rotate(0 10.714282989501953 19.64282989501953)"><path d="M10.97 -0.36 C13.08 -0.32, 15.92 2.32, 17.65 5.23 C19.39 8.13, 21.07 12.86, 21.38 17.06 C21.7 21.26, 20.73 26.81, 19.54 30.42 C18.34 34.02, 16.31 37.44, 14.19 38.69 C12.08 39.95, 9.09 39.6, 6.87 37.95 C4.64 36.3, 1.87 32.65, 0.83 28.79 C-0.21 24.94, 0.01 18.99, 0.62 14.82 C1.23 10.64, 2.65 6.18, 4.5 3.74 C6.34 1.3, 10.41 0.77, 11.67 0.18 C12.94 -0.4, 12.03 0, 12.09 0.24 M12.13 0.13 C14.2 0.3, 16.65 3.16, 18.21 6.06 C19.77 8.96, 21.33 13.46, 21.49 17.53 C21.66 21.6, 20.48 27.07, 19.2 30.49 C17.93 33.9, 15.87 36.78, 13.84 38.03 C11.8 39.27, 9.21 39.65, 6.98 37.97 C4.75 36.28, 1.46 31.87, 0.46 27.93 C-0.54 23.99, 0.24 18.37, 0.98 14.33 C1.72 10.28, 3.09 6.09, 4.9 3.67 C6.71 1.25, 10.6 0.37, 11.83 -0.19 C13.06 -0.75, 12.33 0.04, 12.26 0.3" stroke="#e03131" stroke-width="2" fill="none"></path></g><g stroke-linecap="round" transform="translate(257.1428680419922 510.71422576904297) rotate(0 10.714282989501953 21.428604125976562)"><path d="M9.54 -0.05 C11.57 -0.61, 14.7 1.51, 16.54 4.12 C18.39 6.73, 19.93 11.23, 20.59 15.61 C21.25 20, 21.36 26.16, 20.52 30.43 C19.68 34.69, 17.59 39.27, 15.54 41.22 C13.5 43.16, 10.5 43.29, 8.25 42.11 C6.01 40.94, 3.49 37.97, 2.08 34.16 C0.67 30.35, -0.33 23.87, -0.2 19.24 C-0.08 14.62, 1.1 9.56, 2.84 6.42 C4.59 3.27, 9.06 1.35, 10.27 0.39 C11.47 -0.57, 10.08 0.31, 10.07 0.65 M11.88 0.03 C14.11 0.15, 17.15 2.98, 18.79 6.13 C20.43 9.28, 21.62 14.22, 21.71 18.94 C21.81 23.65, 20.79 30.51, 19.35 34.42 C17.91 38.34, 15.18 41.44, 13.06 42.43 C10.95 43.42, 8.58 42.44, 6.66 40.38 C4.74 38.32, 2.68 34.14, 1.54 30.07 C0.4 26, -0.62 20.33, -0.2 15.97 C0.22 11.62, 2.1 6.67, 4.07 3.94 C6.04 1.21, 10.45 0.12, 11.6 -0.38 C12.75 -0.89, 10.94 0.58, 10.99 0.91" stroke="#e03131" stroke-width="2" fill="none"></path></g><g stroke-linecap="round" transform="translate(177.1428680419922 545) rotate(0 37.857112884521484 1.0713958740234375)"><path d="M36.76 -0.07 C44.48 -0.05, 54.75 0.46, 61.14 0.57 C67.52 0.68, 73.38 0.39, 75.07 0.6 C76.77 0.8, 75.1 1.54, 71.3 1.8 C67.5 2.06, 59.72 2.11, 52.26 2.16 C44.79 2.21, 34.18 2.25, 26.48 2.1 C18.78 1.95, 10.45 1.51, 6.04 1.25 C1.62 0.99, -1.1 0.63, -0.01 0.54 C1.08 0.44, 6.13 0.74, 12.57 0.69 C19.01 0.63, 33.77 0.37, 38.62 0.18 C43.47 -0.01, 41.62 -0.36, 41.66 -0.45 M32.16 0.41 C39.52 0.42, 50.31 0.44, 57.37 0.55 C64.43 0.67, 71.95 0.98, 74.54 1.1 C77.13 1.22, 76.15 1.15, 72.92 1.28 C69.68 1.4, 62.21 1.64, 55.12 1.85 C48.03 2.06, 38.25 2.58, 30.38 2.53 C22.51 2.47, 13.02 1.9, 7.9 1.53 C2.78 1.17, -0.66 0.58, -0.34 0.33 C-0.03 0.08, 4.35 0.1, 9.77 0.02 C15.18 -0.06, 28.43 -0.05, 32.14 -0.13 C35.84 -0.22, 31.9 -0.62, 32.01 -0.5" stroke="#2f9e44" stroke-width="2" fill="none"></path></g><g stroke-linecap="round" transform="translate(279.99996185302734 545) rotate(0 27.5 0.3571128845214844)"><path d="M30.46 0.03 C36.08 0.04, 43.76 0.17, 47.83 0.17 C51.9 0.18, 54.61 -0.01, 54.9 0.08 C55.18 0.17, 53.1 0.62, 49.55 0.72 C45.99 0.81, 39.39 0.64, 33.57 0.65 C27.74 0.66, 19.8 0.81, 14.57 0.76 C9.34 0.71, 4.44 0.5, 2.17 0.36 C-0.1 0.21, -0.73 -0.05, 0.97 -0.12 C2.67 -0.19, 7.34 -0.07, 12.38 -0.05 C17.41 -0.04, 27.96 -0.06, 31.18 -0.03 C34.4 0, 31.66 0.09, 31.69 0.13 M28.84 -0.38 C34.48 -0.53, 41.98 -0.39, 46.18 -0.31 C50.38 -0.22, 53.44 -0.04, 54.05 0.13 C54.67 0.3, 52.98 0.56, 49.86 0.72 C46.75 0.89, 41.01 1.07, 35.37 1.14 C29.72 1.21, 21.39 1.33, 15.99 1.15 C10.59 0.98, 5.56 0.29, 2.97 0.1 C0.38 -0.08, -0.88 -0.05, 0.46 0.04 C1.79 0.12, 6.2 0.5, 10.98 0.59 C15.77 0.69, 26.15 0.64, 29.16 0.62 C32.18 0.59, 29.09 0.43, 29.09 0.44" stroke="#1971c2" stroke-width="2" fill="none"></path></g><g transform="translate(422.14290618896484 461.4285659790039) rotate(0 392.7998046875 48.30000000000001)"><text x="0" y="0" font-family="Helvetica, Segoe UI Emoji" font-size="28px" fill="#1e1e1e" text-anchor="start" style="white-space: pre;" direction="ltr" dominant-baseline="text-before-edge">1、利用提示2，从后序序列末尾中寻找子树元素的根，这里是 A</text><text x="0" y="32.199999999999996" font-family="Helvetica, Segoe UI Emoji" font-size="28px" fill="#1e1e1e" text-anchor="start" style="white-space: pre;" direction="ltr" dominant-baseline="text-before-edge">2、利用提示1，利用从中序序列划分根两边的元素</text><text x="0" y="64.39999999999999" font-family="Helvetica, Segoe UI Emoji" font-size="28px" fill="#1e1e1e" text-anchor="start" style="white-space: pre;" direction="ltr" dominant-baseline="text-before-edge"></text></g><g stroke-linecap="round" transform="translate(355.71422576904297 579.2856979370117) rotate(0 25.714378356933594 30.5)"><path d="M37.46 3.44 C42.21 6.03, 47.95 12.78, 50.15 19.04 C52.36 25.29, 52.45 34.59, 50.7 41 C48.94 47.4, 44.6 54.33, 39.64 57.49 C34.68 60.65, 26.41 61.23, 20.95 59.97 C15.5 58.7, 10.3 54.57, 6.9 49.92 C3.5 45.27, 0.76 38.5, 0.57 32.06 C0.38 25.62, 2.54 16.51, 5.75 11.3 C8.96 6.08, 14.21 1.73, 19.81 0.75 C25.41 -0.23, 35.92 4.44, 39.35 5.4 C42.77 6.36, 40.77 6.11, 40.37 6.51 M26.97 -1.05 C32.56 -1.52, 39.65 2.08, 43.74 6.55 C47.84 11.02, 51.09 19.23, 51.55 25.77 C52 32.31, 49.28 40.18, 46.45 45.79 C43.62 51.39, 39.55 57.46, 34.58 59.4 C29.62 61.33, 22.13 60, 16.65 57.41 C11.18 54.83, 4.39 49.65, 1.74 43.88 C-0.91 38.12, -0.69 28.88, 0.76 22.84 C2.22 16.8, 6.39 11.39, 10.46 7.65 C14.54 3.9, 22.36 1.8, 25.21 0.39 C28.07 -1.02, 27.57 -1.21, 27.59 -0.81" stroke="#2f9e44" stroke-width="2" fill="none"></path></g><g transform="translate(371.90790219079224 593.618941110822) rotate(0 9.337890625 16.100000000000023)"><text x="9.337890625" y="0" font-family="Helvetica, Segoe UI Emoji" font-size="28px" fill="#2f9e44" text-anchor="middle" style="white-space: pre;" direction="ltr" dominant-baseline="text-before-edge">A</text></g><g stroke-linecap="round" transform="translate(194.46407318115234 699.9998474121094) rotate(0 25.714378356933594 30.5)"><path d="M20.88 1.73 C26.09 0.23, 32.91 1.35, 37.72 4.31 C42.53 7.27, 47.51 13.63, 49.74 19.51 C51.96 25.39, 52.68 33.44, 51.1 39.57 C49.52 45.71, 44.87 52.76, 40.26 56.3 C35.65 59.84, 29.05 61.63, 23.42 60.82 C17.79 60.01, 10.29 56.25, 6.49 51.44 C2.68 46.62, 0.85 38.56, 0.6 31.92 C0.34 25.27, 1.31 16.91, 4.98 11.58 C8.64 6.24, 19.33 1.85, 22.6 -0.1 C25.87 -2.06, 24.6 -0.9, 24.57 -0.16 M35.66 3.12 C40.74 4.51, 45.01 8.64, 47.57 13.85 C50.12 19.07, 51.92 27.63, 51.01 34.42 C50.1 41.2, 46.35 49.93, 42.1 54.56 C37.85 59.18, 30.88 62.07, 25.5 62.18 C20.12 62.28, 14.09 59.8, 9.82 55.21 C5.55 50.61, 1.12 41.02, -0.12 34.63 C-1.37 28.25, -0.45 22.11, 2.36 16.9 C5.17 11.69, 11.6 5.89, 16.74 3.36 C21.88 0.84, 30.54 2, 33.21 1.74 C35.87 1.48, 32.72 1.44, 32.72 1.83" stroke="#2f9e44" stroke-width="2" fill="none"></path></g><g transform="translate(210.65774960290162 714.3330905859196) rotate(0 9.337890625 16.099999999999966)"><text x="9.337890625" y="0" font-family="Helvetica, Segoe UI Emoji" font-size="28px" fill="#2f9e44" text-anchor="middle" style="white-space: pre;" direction="ltr" dominant-baseline="text-before-edge">B</text></g><g stroke-linecap="round" transform="translate(260.714111328125 684.464225769043) rotate(0 25.714378356933594 30.5)"><path d="M37.94 4.34 C42.82 6.73, 48.14 13.04, 50.28 18.96 C52.43 24.89, 52.45 33.67, 50.81 39.89 C49.16 46.11, 45.2 52.78, 40.39 56.29 C35.58 59.79, 27.46 61.8, 21.94 60.91 C16.43 60.02, 11 55.89, 7.3 50.96 C3.61 46.02, 0 37.86, -0.2 31.28 C-0.41 24.69, 2.55 16.7, 6.08 11.46 C9.6 6.23, 15.03 0.55, 20.95 -0.14 C26.87 -0.83, 37.59 5.62, 41.61 7.31 C45.62 9, 45.23 9.62, 45.03 10.01 M36.91 1.92 C41.77 4.63, 46.73 12.56, 48.91 18.91 C51.1 25.27, 51.42 33.72, 50.03 40.06 C48.65 46.41, 45.19 53.74, 40.6 56.97 C36.01 60.2, 28.22 60.09, 22.5 59.45 C16.77 58.82, 9.98 57.38, 6.24 53.16 C2.5 48.93, 0.47 40.86, 0.06 34.1 C-0.35 27.33, 0.78 18.18, 3.78 12.57 C6.77 6.95, 12.54 2.08, 18.04 0.4 C23.53 -1.28, 33.65 2.03, 36.73 2.5 C39.82 2.97, 36.87 2.81, 36.54 3.24" stroke="#2f9e44" stroke-width="2" fill="none"></path></g><g transform="translate(276.1353268123743 698.7974689428532) rotate(0 10.1103515625 16.100000000000023)"><text x="10.1103515625" y="0" font-family="Helvetica, Segoe UI Emoji" font-size="28px" fill="#2f9e44" text-anchor="middle" style="white-space: pre;" direction="ltr" dominant-baseline="text-before-edge">D</text></g><g stroke-linecap="round" transform="translate(328.57128143310547 712.1427917480469) rotate(0 25.714378356933594 30.5)"><path d="M37.29 3.13 C42.17 5.42, 47.82 11.88, 49.96 17.81 C52.1 23.75, 51.63 32.46, 50.12 38.73 C48.61 45, 45.41 51.85, 40.91 55.45 C36.41 59.05, 28.56 61, 23.1 60.34 C17.65 59.68, 11.89 56.2, 8.18 51.5 C4.47 46.79, 1.41 38.41, 0.86 32.13 C0.32 25.86, 1.76 19.08, 4.93 13.84 C8.1 8.59, 13.62 1.65, 19.88 0.63 C26.14 -0.38, 38.01 5.8, 42.49 7.75 C46.97 9.7, 47.26 12.09, 46.77 12.33 M15.62 3.43 C20.47 0.79, 28.87 1.09, 34.09 2.67 C39.31 4.24, 44.25 7.31, 46.94 12.89 C49.62 18.47, 50.86 29.18, 50.2 36.12 C49.54 43.07, 47.08 50.42, 42.97 54.56 C38.86 58.7, 31.3 61.04, 25.55 60.96 C19.81 60.87, 12.7 58.17, 8.49 54.07 C4.29 49.97, 1.29 42.71, 0.34 36.34 C-0.62 29.97, 0.34 21.67, 2.78 15.86 C5.21 10.06, 12.85 3.63, 14.96 1.49 C17.06 -0.65, 15.29 2.41, 15.42 3.04" stroke="#2f9e44" stroke-width="2" fill="none"></path></g><g transform="translate(344.76495785485474 726.4760349218571) rotate(0 9.337890625 16.099999999999966)"><text x="9.337890625" y="0" font-family="Helvetica, Segoe UI Emoji" font-size="28px" fill="#2f9e44" text-anchor="middle" style="white-space: pre;" direction="ltr" dominant-baseline="text-before-edge">E</text></g><g stroke-linecap="round" transform="translate(267.67845153808594 770.1785659790039) rotate(0 25.714378356933594 30.5)"><path d="M27.85 0.32 C33.03 0.51, 40.78 4.49, 44.66 9.04 C48.54 13.6, 50.68 21.19, 51.13 27.65 C51.58 34.11, 50.41 42.56, 47.36 47.82 C44.32 53.08, 38.3 57.33, 32.87 59.19 C27.44 61.05, 19.77 61.71, 14.79 58.97 C9.8 56.22, 5.19 48.69, 2.97 42.72 C0.75 36.75, -0.05 29.44, 1.47 23.17 C3 16.9, 6.9 8.74, 12.11 5.11 C17.31 1.48, 28.48 1.52, 32.69 1.39 C36.9 1.26, 37.28 3.87, 37.38 4.32 M35 0.94 C39.72 2.99, 44.9 11.6, 47.53 17.86 C50.17 24.13, 52.03 32.41, 50.82 38.54 C49.61 44.67, 44.86 51.02, 40.25 54.67 C35.64 58.32, 28.52 60.84, 23.16 60.46 C17.8 60.09, 11.96 56.81, 8.11 52.41 C4.25 48.02, 0.88 40.61, 0.02 34.1 C-0.84 27.59, 0.1 18.77, 2.96 13.36 C5.82 7.95, 11.96 3.45, 17.18 1.64 C22.41 -0.18, 31.33 2.48, 34.3 2.48 C37.26 2.48, 35.07 1.24, 34.97 1.64" stroke="#2f9e44" stroke-width="2" fill="none"></path></g><g transform="translate(283.0996670223352 784.5118091528143) rotate(0 10.1103515625 16.100000000000023)"><text x="10.1103515625" y="0" font-family="Helvetica, Segoe UI Emoji" font-size="28px" fill="#2f9e44" text-anchor="middle" style="white-space: pre;" direction="ltr" dominant-baseline="text-before-edge">C</text></g><g stroke-linecap="round" transform="translate(464.64271545410156 749.8215103149414) rotate(0 25.714378356933594 30.5)"><path d="M27.69 -0.42 C32.96 -0.33, 40.55 3.89, 44.62 8.45 C48.69 13.01, 51.71 20.19, 52.11 26.94 C52.5 33.69, 50.17 43.48, 47 48.92 C43.83 54.37, 38.36 57.9, 33.09 59.59 C27.83 61.27, 20.37 61.78, 15.41 59.05 C10.45 56.32, 5.89 49.29, 3.33 43.22 C0.78 37.14, -1.07 28.92, 0.06 22.61 C1.2 16.3, 5 9.08, 10.16 5.35 C15.32 1.63, 27.11 0.79, 31.02 0.25 C34.92 -0.28, 33.63 1.66, 33.6 2.15 M14.28 4.63 C18.8 1.27, 25.52 -0.38, 30.63 0.83 C35.75 2.04, 41.55 6.72, 44.97 11.89 C48.39 17.05, 51.28 25.29, 51.14 31.83 C51 38.38, 48.07 46.44, 44.14 51.14 C40.2 55.85, 33.09 59.22, 27.52 60.05 C21.95 60.88, 15.32 59.59, 10.69 56.13 C6.07 52.67, 1.28 45.79, -0.2 39.28 C-1.69 32.77, -0.5 23.11, 1.77 17.05 C4.04 10.99, 11.18 5.25, 13.42 2.9 C15.66 0.55, 15.02 2.47, 15.21 2.93" stroke="#2f9e44" stroke-width="2" fill="none"></path></g><g transform="translate(480.06393093835084 764.1547534887518) rotate(0 10.1103515625 16.100000000000023)"><text x="10.1103515625" y="0" font-family="Helvetica, Segoe UI Emoji" font-size="28px" fill="#2f9e44" text-anchor="middle" style="white-space: pre;" direction="ltr" dominant-baseline="text-before-edge">H</text></g><g stroke-linecap="round" transform="translate(506.42845153808594 691.7855834960938) rotate(0 25.714378356933594 30.5)"><path d="M19.76 0.21 C24.63 -1.56, 31.72 0.96, 36.7 3.78 C41.69 6.61, 47.27 11.26, 49.67 17.16 C52.07 23.06, 52.47 32.84, 51.1 39.19 C49.73 45.53, 46.16 51.6, 41.44 55.21 C36.71 58.82, 28.53 61.4, 22.76 60.85 C16.99 60.31, 10.5 56.59, 6.82 51.95 C3.14 47.3, 0.9 39.41, 0.66 32.99 C0.43 26.57, 1.74 18.91, 5.39 13.41 C9.04 7.92, 19.51 2.24, 22.56 0 C25.61 -2.24, 23.59 -0.58, 23.69 -0.02 M36.2 2.97 C41.14 5.41, 46.95 12.25, 49.25 18.31 C51.56 24.38, 51.83 33.15, 50.02 39.35 C48.21 45.55, 43.17 51.9, 38.42 55.5 C33.67 59.1, 27 61.67, 21.51 60.95 C16.02 60.24, 9.11 56.29, 5.47 51.22 C1.82 46.15, -0.2 37.12, -0.36 30.52 C-0.52 23.92, 0.94 16.7, 4.49 11.6 C8.03 6.49, 15.53 1.31, 20.91 -0.09 C26.29 -1.5, 33.94 2.74, 36.77 3.19 C39.6 3.64, 37.7 2.29, 37.87 2.58" stroke="#2f9e44" stroke-width="2" fill="none"></path></g><g transform="translate(523.4082607723352 706.118826669904) rotate(0 8.5517578125 16.100000000000023)"><text x="8.5517578125" y="0" font-family="Helvetica, Segoe UI Emoji" font-size="28px" fill="#2f9e44" text-anchor="middle" style="white-space: pre;" direction="ltr" dominant-baseline="text-before-edge">F</text></g><g stroke-linecap="round" transform="translate(552.3211669921875 747.4999618530273) rotate(0 25.714378356933594 30.5)"><path d="M15.73 2.39 C20.41 -0.56, 27.76 0.23, 33.11 2 C38.45 3.77, 44.91 7.78, 47.81 13.01 C50.71 18.24, 51.32 26.87, 50.51 33.38 C49.7 39.89, 46.67 47.52, 42.97 52.06 C39.27 56.6, 33.53 60.04, 28.29 60.64 C23.06 61.24, 16.02 59.47, 11.57 55.66 C7.12 51.85, 3.28 44.27, 1.62 37.78 C-0.05 31.29, -1.54 22.85, 1.58 16.71 C4.71 10.57, 16.47 3.73, 20.36 0.94 C24.25 -1.86, 25 -0.4, 24.94 -0.07 M21.17 0.05 C26.13 -1.41, 32.95 0, 37.61 3.4 C42.27 6.79, 47.3 14.12, 49.13 20.43 C50.95 26.73, 50.42 35.34, 48.58 41.23 C46.74 47.12, 42.8 52.58, 38.08 55.74 C33.37 58.91, 25.51 61.32, 20.27 60.23 C15.03 59.13, 10.17 54.22, 6.64 49.19 C3.12 44.16, -0.85 36.71, -0.87 30.07 C-0.88 23.43, 2.64 14.5, 6.57 9.35 C10.5 4.21, 20.27 0.51, 22.71 -0.8 C25.15 -2.12, 21.12 0.8, 21.21 1.47" stroke="#2f9e44" stroke-width="2" fill="none"></path></g><g transform="translate(566.9630856014368 761.8332050268377) rotate(0 10.8896484375 16.100000000000023)"><text x="10.8896484375" y="0" font-family="Helvetica, Segoe UI Emoji" font-size="28px" fill="#2f9e44" text-anchor="middle" style="white-space: pre;" direction="ltr" dominant-baseline="text-before-edge">G</text></g><g stroke-linecap="round"><g transform="translate(358.5714340209961 641.4285659790039) rotate(0 -15.714282989501953 17.857112884521484)"><path d="M0.34 -0.48 C-4.81 5.23, -26.81 29.21, -31.92 35.06 M-0.94 -1.77 C-6.2 4.01, -28.2 30.07, -33.13 36.25" stroke="#2f9e44" stroke-width="2" fill="none"></path></g></g><mask></mask><g stroke-linecap="round"><g transform="translate(403.5715103149414 636.4285659790039) rotate(0 38.57135772705078 25.714282989501953)"><path d="M0.45 1.13 C13.29 9.67, 64.39 43.61, 77.18 52.19 M-0.77 0.67 C11.9 8.79, 63.38 42.09, 76.25 50.47" stroke="#2f9e44" stroke-width="2" fill="none"></path></g></g><mask></mask><g stroke-linecap="round"><g transform="translate(65.71422576904297 847.8571319580078) rotate(0 472.5000762939453 4.285717010498047)"><path d="M-0.95 -0.16 C156.73 1.18, 787.36 6.62, 944.94 7.91 M0.75 -1.29 C158.36 0.2, 786.84 7.5, 943.96 9.1" stroke="#1e1e1e" stroke-width="2" fill="none"></path></g></g><mask></mask><g transform="translate(104.99996185302734 609.2856788635254) rotate(0 84 16.100000000000023)"><text x="0" y="0" font-family="Helvetica, Segoe UI Emoji" font-size="28px" fill="#2f9e44" text-anchor="start" style="white-space: pre;" direction="ltr" dominant-baseline="text-before-edge">处理完是这样</text></g><g stroke-linecap="round" transform="translate(132.9462432861328 991.4640731811523) rotate(0 25.714378356933594 30.5)"><path d="M17.28 1.24 C21.92 -1.21, 28.48 0.13, 33.62 2.54 C38.76 4.95, 45.23 10.24, 48.1 15.71 C50.97 21.17, 51.74 29, 50.85 35.33 C49.95 41.65, 46.82 49.47, 42.75 53.66 C38.68 57.84, 31.97 60.53, 26.43 60.45 C20.88 60.37, 13.7 57.26, 9.49 53.17 C5.29 49.08, 2.12 42.08, 1.21 35.9 C0.3 29.71, 1.44 21.81, 4.05 16.07 C6.66 10.33, 14.44 3.83, 16.88 1.46 C19.32 -0.91, 18.25 1.29, 18.67 1.84 M25.66 -1.19 C31.1 -1.88, 37.51 2.47, 41.87 6.75 C46.23 11.04, 50.58 18.49, 51.82 24.54 C53.06 30.59, 51.91 37.53, 49.31 43.05 C46.71 48.58, 41.2 55.17, 36.23 57.7 C31.27 60.24, 24.86 60.25, 19.53 58.28 C14.2 56.31, 7.64 51.02, 4.25 45.88 C0.86 40.74, -1.72 33.61, -0.82 27.44 C0.07 21.26, 5.31 13.45, 9.62 8.82 C13.94 4.19, 22.66 1.21, 25.06 -0.34 C27.45 -1.88, 24.23 -1.15, 24 -0.45" stroke="#2f9e44" stroke-width="2" fill="none"></path></g><g transform="translate(149.13991970788206 1005.7973163549627) rotate(0 9.337890625 16.100000000000023)"><text x="9.337890625" y="0" font-family="Helvetica, Segoe UI Emoji" font-size="28px" fill="#2f9e44" text-anchor="middle" style="white-space: pre;" direction="ltr" dominant-baseline="text-before-edge">B</text></g><g stroke-linecap="round" transform="translate(199.19628143310547 975.9284515380859) rotate(0 25.714378356933594 30.5)"><path d="M17.35 2.42 C22.25 -0.19, 29.31 -0.47, 34.49 1.7 C39.67 3.86, 45.61 9.79, 48.45 15.43 C51.28 21.06, 52.55 29.21, 51.51 35.5 C50.47 41.8, 46.43 48.96, 42.23 53.18 C38.02 57.41, 31.69 60.68, 26.28 60.86 C20.86 61.05, 14.17 58.54, 9.72 54.31 C5.28 50.07, 0.64 41.99, -0.39 35.45 C-1.42 28.9, -0.45 20.88, 3.56 15.06 C7.57 9.25, 19.55 3.02, 23.67 0.55 C27.78 -1.91, 28.29 -0.32, 28.25 0.26 M16.55 3.23 C21.26 0.09, 28.63 -1.75, 33.84 -0.16 C39.04 1.44, 44.65 7.33, 47.8 12.81 C50.94 18.28, 53.43 26.24, 52.72 32.7 C52.01 39.17, 47.96 46.74, 43.54 51.59 C39.11 56.43, 31.48 61.08, 26.18 61.77 C20.87 62.45, 15.86 59.8, 11.7 55.7 C7.55 51.6, 2.83 43.83, 1.25 37.16 C-0.34 30.5, -0.02 21.36, 2.2 15.72 C4.42 10.07, 12.28 5.2, 14.57 3.27 C16.86 1.34, 15.39 4.02, 15.94 4.11" stroke="#2f9e44" stroke-width="2" fill="none"></path></g><g transform="translate(214.61749691735474 990.2616947118963) rotate(0 10.1103515625 16.100000000000023)"><text x="10.1103515625" y="0" font-family="Helvetica, Segoe UI Emoji" font-size="28px" fill="#2f9e44" text-anchor="middle" style="white-space: pre;" direction="ltr" dominant-baseline="text-before-edge">D</text></g><g stroke-linecap="round" transform="translate(267.05345153808594 1003.6070175170898) rotate(0 25.714378356933594 30.5)"><path d="M34.47 1.62 C39.64 3.23, 45.48 8.8, 48.28 14.27 C51.08 19.74, 52.08 27.93, 51.26 34.45 C50.44 40.98, 47.42 48.88, 43.35 53.4 C39.28 57.93, 32.61 61.49, 26.84 61.61 C21.08 61.72, 13.16 58.31, 8.77 54.09 C4.37 49.88, 1.23 42.67, 0.47 36.33 C-0.29 29.98, 1.56 21.83, 4.22 16.02 C6.88 10.22, 10.56 3.31, 16.43 1.5 C22.3 -0.3, 35.15 3.92, 39.45 5.19 C43.74 6.47, 42.45 8.75, 42.22 9.17 M32.6 -0.01 C37.88 1.15, 44.86 6.03, 48.02 11.3 C51.18 16.57, 52.36 24.74, 51.54 31.61 C50.72 38.49, 46.77 47.57, 43.13 52.57 C39.49 57.56, 34.89 61.12, 29.68 61.58 C24.46 62.05, 16.7 59.34, 11.83 55.37 C6.96 51.39, 2.2 43.83, 0.44 37.73 C-1.31 31.63, -1.09 24.4, 1.29 18.79 C3.67 13.19, 9.37 7.33, 14.71 4.11 C20.04 0.89, 30.44 -0.07, 33.3 -0.55 C36.16 -1.03, 32.24 0.27, 31.87 1.22" stroke="#2f9e44" stroke-width="2" fill="none"></path></g><g transform="translate(283.2471279598352 1017.9402606909002) rotate(0 9.337890625 16.100000000000023)"><text x="9.337890625" y="0" font-family="Helvetica, Segoe UI Emoji" font-size="28px" fill="#2f9e44" text-anchor="middle" style="white-space: pre;" direction="ltr" dominant-baseline="text-before-edge">E</text></g><g stroke-linecap="round" transform="translate(206.1606216430664 1061.6427917480469) rotate(0 25.714378356933594 30.5)"><path d="M25.2 -0.84 C30.47 -1.32, 38.11 2.19, 42.51 6.5 C46.91 10.81, 50.78 18.63, 51.62 25.04 C52.46 31.45, 50.31 39.32, 47.57 44.97 C44.82 50.62, 39.97 56.45, 35.13 58.92 C30.29 61.38, 23.77 61.93, 18.53 59.76 C13.29 57.59, 6.67 51.42, 3.69 45.92 C0.72 40.42, -0.02 33.07, 0.68 26.76 C1.38 20.44, 3.06 12.33, 7.87 8.03 C12.67 3.73, 25.22 1.89, 29.5 0.95 C33.77 0.01, 33.79 1.93, 33.52 2.39 M18.01 0.37 C22.47 -1.54, 29.07 0.3, 34.37 3.07 C39.67 5.84, 46.96 11.41, 49.79 16.99 C52.63 22.57, 52.88 30.46, 51.41 36.54 C49.93 42.63, 45.57 49.28, 40.96 53.49 C36.36 57.69, 29.18 61.64, 23.79 61.75 C18.41 61.87, 12.37 58.94, 8.66 54.18 C4.95 49.42, 2.32 39.89, 1.53 33.19 C0.75 26.49, 1.26 19.06, 3.93 13.97 C6.6 8.89, 15.27 4.57, 17.54 2.69 C19.82 0.81, 17.25 2.46, 17.56 2.7" stroke="#2f9e44" stroke-width="2" fill="none"></path></g><g transform="translate(221.58183712731568 1075.9760349218573) rotate(0 10.1103515625 16.100000000000023)"><text x="10.1103515625" y="0" font-family="Helvetica, Segoe UI Emoji" font-size="28px" fill="#2f9e44" text-anchor="middle" style="white-space: pre;" direction="ltr" dominant-baseline="text-before-edge">C</text></g><g transform="translate(57.857093811035156 897.8570938110352) rotate(0 168 16.100000000000023)"><text x="0" y="0" font-family="Helvetica, Segoe UI Emoji" font-size="28px" fill="#2f9e44" text-anchor="start" style="white-space: pre;" direction="ltr" dominant-baseline="text-before-edge">接下来对这一团做同样处理</text></g><g transform="translate(473.82096099853516 964.2285278320312) rotate(0 147.7861328125 32.200000000000045)"><text x="0" y="0" font-family="Helvetica, Segoe UI Emoji" font-size="28px" fill="#1971c2" text-anchor="start" style="white-space: pre;" direction="ltr" dominant-baseline="text-before-edge">中序序列：BDCEAFHG</text><text x="0" y="32.199999999999996" font-family="Helvetica, Segoe UI Emoji" font-size="28px" fill="#1971c2" text-anchor="start" style="white-space: pre;" direction="ltr" dominant-baseline="text-before-edge">后续序列：DECBHGFA</text></g><g stroke-linecap="round"><g transform="translate(607.8570938110352 1027.8570938110352) rotate(0 41.071434020996094 0)"><path d="M0.05 0.6 C13.75 0.59, 68.11 -0.17, 81.88 -0.33 M-1.38 -0.13 C12.16 0.05, 66.86 0.88, 80.8 1.03" stroke="#2f9e44" stroke-width="2" fill="none"></path></g></g><mask></mask><g stroke-linecap="round" transform="translate(664.2856979370117 995) rotate(0 16.428565979003906 19.64282989501953)"><path d="M13.96 -0.06 C17.26 -0.99, 21.91 0.35, 24.88 2.5 C27.86 4.65, 30.72 8.91, 31.8 12.85 C32.89 16.8, 32.52 22.18, 31.4 26.18 C30.28 30.19, 27.96 34.73, 25.06 36.89 C22.15 39.05, 17.44 39.9, 13.95 39.14 C10.46 38.38, 6.42 35.48, 4.11 32.31 C1.8 29.15, 0.2 24.29, 0.09 20.14 C-0.02 15.99, 1.2 10.64, 3.45 7.4 C5.71 4.15, 11.79 1.87, 13.62 0.67 C15.46 -0.52, 14.37 0.06, 14.48 0.24 M15.94 -0.5 C19.08 -0.7, 23.31 2.28, 26.08 4.93 C28.85 7.59, 31.72 11.38, 32.58 15.42 C33.44 19.46, 32.86 25.4, 31.26 29.17 C29.66 32.94, 26.44 36.54, 23 38.03 C19.55 39.52, 14.03 39.51, 10.59 38.1 C7.14 36.7, 3.96 33.1, 2.33 29.58 C0.71 26.06, 0.39 21.04, 0.83 16.98 C1.26 12.93, 2.48 8.07, 4.95 5.23 C7.43 2.39, 13.91 0.75, 15.66 -0.07 C17.4 -0.89, 15.27 -0.12, 15.41 0.3" stroke="#e03131" stroke-width="2" fill="none"></path></g><g transform="translate(348.9859313964844 1102.2356216430662) rotate(0 616.7998046875 48.299999999999955)"><text x="0" y="0" font-family="Helvetica, Segoe UI Emoji" font-size="28px" fill="#1e1e1e" text-anchor="start" style="white-space: pre;" direction="ltr" dominant-baseline="text-before-edge">1、到后序序列找这几个元素，然后利用提示2，后序序列中这几个元素的最后一个就是根，这里是 B</text><text x="0" y="32.199999999999996" font-family="Helvetica, Segoe UI Emoji" font-size="28px" fill="#1e1e1e" text-anchor="start" style="white-space: pre;" direction="ltr" dominant-baseline="text-before-edge">2、利用提示1，利用从中序序列划分根两边的元素</text><text x="0" y="64.39999999999999" font-family="Helvetica, Segoe UI Emoji" font-size="28px" fill="#1e1e1e" text-anchor="start" style="white-space: pre;" direction="ltr" dominant-baseline="text-before-edge"></text></g><g stroke-linecap="round"><g transform="translate(612.1428990364075 991.4284896850586) rotate(0 41.07145309448242 -0.35717010498046875)"><path d="M0.81 0.73 C14.62 0.46, 68.43 -0.79, 81.94 -1.01 M-0.22 0.07 C13.49 -0.08, 67.35 0.25, 80.89 0.38" stroke="#2f9e44" stroke-width="2" fill="none"></path></g></g><mask></mask><g stroke-linecap="round" transform="translate(611.4287877082825 957.1424865722656) rotate(0 10 20)"><path d="M9.61 0.18 C11.6 -0.02, 14.09 2, 15.86 4.69 C17.63 7.37, 19.72 12.17, 20.22 16.27 C20.72 20.37, 19.92 25.61, 18.87 29.28 C17.82 32.95, 15.94 36.64, 13.9 38.27 C11.85 39.91, 8.67 40.39, 6.62 39.09 C4.57 37.79, 2.74 34.12, 1.59 30.49 C0.44 26.86, -0.56 21.52, -0.29 17.3 C-0.03 13.09, 1.45 8.11, 3.16 5.2 C4.86 2.3, 8.69 0.75, 9.94 -0.1 C11.19 -0.95, 10.63 -0.21, 10.65 0.09 M10.25 -0.26 C12.4 -0.41, 15.45 2.33, 17.15 5.25 C18.85 8.17, 20.19 13.22, 20.47 17.26 C20.76 21.3, 20.13 25.86, 18.87 29.5 C17.61 33.14, 15.09 37.61, 12.92 39.1 C10.76 40.58, 7.83 39.82, 5.87 38.42 C3.9 37.02, 2.05 34.45, 1.12 30.68 C0.19 26.92, -0.14 20.07, 0.28 15.84 C0.7 11.62, 2.12 7.89, 3.66 5.34 C5.2 2.8, 8.44 1.27, 9.51 0.57 C10.58 -0.13, 9.95 0.79, 10.05 1.15" stroke="#e03131" stroke-width="2" fill="none"></path></g><g stroke-linecap="round" transform="translate(948.3035206794739 1273.0711288452148) rotate(0 25.714378356933594 30.5)"><path d="M36.09 2.21 C40.99 4.56, 46.42 12.04, 48.72 17.78 C51.01 23.52, 51.14 30.5, 49.86 36.68 C48.58 42.86, 45.25 50.68, 41.01 54.85 C36.78 59.03, 29.89 62, 24.46 61.73 C19.04 61.46, 12.57 57.98, 8.46 53.23 C4.35 48.49, 0.62 39.95, -0.2 33.27 C-1.01 26.59, 0.59 18.41, 3.57 13.15 C6.56 7.89, 11.58 2.96, 17.72 1.71 C23.86 0.45, 35.71 3.98, 40.42 5.64 C45.13 7.29, 46.26 11.21, 45.97 11.61 M30.14 -0.3 C35.29 0.66, 42.18 7.31, 45.9 12.47 C49.62 17.63, 52.87 24.32, 52.45 30.65 C52.03 36.98, 47.2 45.6, 43.38 50.46 C39.56 55.31, 34.96 58.81, 29.54 59.8 C24.13 60.79, 15.5 59.97, 10.89 56.4 C6.29 52.82, 3.53 44.41, 1.91 38.35 C0.29 32.29, -0.98 26.11, 1.18 20.06 C3.33 14.02, 10.02 5.18, 14.84 2.08 C19.65 -1.02, 27.29 1.43, 30.07 1.44 C32.86 1.45, 31.61 2.03, 31.55 2.16" stroke="#2f9e44" stroke-width="2" fill="none"></path></g><g transform="translate(963.7247361637233 1287.4043720190252) rotate(0 10.1103515625 16.100000000000023)"><text x="10.1103515625" y="0" font-family="Helvetica, Segoe UI Emoji" font-size="28px" fill="#2f9e44" text-anchor="middle" style="white-space: pre;" direction="ltr" dominant-baseline="text-before-edge">D</text></g><g stroke-linecap="round" transform="translate(996.8753361701965 1296.4639587402344) rotate(0 25.714378356933594 30.5)"><path d="M20.49 -0.55 C25.6 -2.17, 33.72 0.35, 38.69 3.94 C43.65 7.52, 48.33 14.67, 50.28 20.96 C52.22 27.25, 52.36 35.78, 50.33 41.68 C48.31 47.57, 43.12 53.28, 38.14 56.34 C33.16 59.4, 25.92 61.03, 20.44 60.05 C14.95 59.08, 8.75 55.52, 5.22 50.49 C1.69 45.47, -1.05 36.48, -0.76 29.9 C-0.48 23.32, 2.89 16.06, 6.93 11 C10.96 5.94, 19.96 1.24, 23.45 -0.48 C26.93 -2.19, 27.6 0.23, 27.83 0.71 M18.37 0.61 C23.01 -1.98, 28.52 -0.9, 33.55 1.46 C38.58 3.83, 45.85 8.95, 48.56 14.78 C51.28 20.6, 50.86 30.08, 49.86 36.41 C48.87 42.74, 46.82 48.47, 42.6 52.75 C38.38 57.03, 29.98 62.22, 24.54 62.11 C19.1 62, 14.17 56.45, 9.94 52.1 C5.72 47.76, 0.18 42.1, -0.78 36.03 C-1.75 29.96, 1.29 21.64, 4.16 15.67 C7.02 9.7, 14.33 2.42, 16.41 0.22 C18.49 -1.99, 16.57 1.74, 16.64 2.44" stroke="#2f9e44" stroke-width="2" fill="none"></path></g><g transform="translate(1013.0690125919459 1310.7972019140448) rotate(0 9.337890625 16.100000000000023)"><text x="9.337890625" y="0" font-family="Helvetica, Segoe UI Emoji" font-size="28px" fill="#2f9e44" text-anchor="middle" style="white-space: pre;" direction="ltr" dominant-baseline="text-before-edge">E</text></g><g stroke-linecap="round" transform="translate(940.2681660652161 1326.6425247192383) rotate(0 25.714378356933594 30.5)"><path d="M13.76 4.53 C18.27 1.35, 25.98 0.2, 31.26 1.25 C36.54 2.3, 42.2 5.91, 45.44 10.83 C48.68 15.75, 50.89 24.04, 50.69 30.76 C50.5 37.47, 47.92 46.22, 44.28 51.12 C40.63 56.02, 34 59.22, 28.82 60.15 C23.64 61.09, 17.92 60.13, 13.19 56.73 C8.46 53.32, 2.25 45.95, 0.42 39.73 C-1.41 33.52, -0.24 25.67, 2.19 19.42 C4.63 13.17, 12.81 5.03, 15.04 2.24 C17.28 -0.55, 15.4 2, 15.6 2.69 M17.21 0.95 C22.06 -1.45, 28.1 -0.21, 33.34 1.92 C38.58 4.04, 45.8 7.91, 48.63 13.73 C51.46 19.54, 51.19 30.38, 50.31 36.82 C49.44 43.26, 47.66 48.23, 43.39 52.38 C39.12 56.53, 30.3 61.34, 24.69 61.74 C19.08 62.14, 13.94 59.34, 9.73 54.79 C5.53 50.24, 0.69 40.98, -0.51 34.44 C-1.71 27.9, -0.13 20.97, 2.55 15.53 C5.22 10.08, 13.09 3.8, 15.53 1.77 C17.96 -0.26, 17.02 2.93, 17.16 3.33" stroke="#2f9e44" stroke-width="2" fill="none"></path></g><g transform="translate(955.6893815494655 1340.9757678930487) rotate(0 10.1103515625 16.100000000000023)"><text x="10.1103515625" y="0" font-family="Helvetica, Segoe UI Emoji" font-size="28px" fill="#2f9e44" text-anchor="middle" style="white-space: pre;" direction="ltr" dominant-baseline="text-before-edge">C</text></g><g stroke-linecap="round" transform="translate(838.2144474983215 1204.8567504882812) rotate(0 25.714378356933594 30.5)"><path d="M29.22 -0.19 C34.29 0.44, 41.43 5.01, 45.2 10.2 C48.98 15.38, 51.84 24.31, 51.89 30.91 C51.94 37.5, 49.21 44.74, 45.52 49.75 C41.82 54.75, 35.04 59.79, 29.71 60.92 C24.37 62.06, 18.07 59.83, 13.51 56.54 C8.95 53.25, 4.35 47.21, 2.34 41.18 C0.34 35.15, -0.1 26.33, 1.49 20.34 C3.07 14.35, 7 8.68, 11.86 5.24 C16.72 1.81, 27.23 0.2, 30.64 -0.24 C34.05 -0.68, 32.34 2.07, 32.29 2.61 M27.35 -0.9 C32.53 -0.39, 38.95 5.6, 42.92 10.71 C46.89 15.81, 50.68 23.52, 51.16 29.75 C51.64 35.98, 48.89 42.84, 45.82 48.09 C42.75 53.34, 38.03 59.81, 32.74 61.26 C27.45 62.7, 19.22 59.64, 14.07 56.76 C8.92 53.88, 4.27 49.68, 1.86 44 C-0.55 38.32, -1.82 29.37, -0.41 22.69 C1 16.01, 5.62 7.45, 10.34 3.93 C15.06 0.42, 24.94 2.37, 27.9 1.6 C30.86 0.84, 27.95 -0.84, 28.1 -0.66" stroke="#2f9e44" stroke-width="2" fill="none"></path></g><g transform="translate(854.4081239200708 1219.1899936620916) rotate(0 9.337890625 16.100000000000023)"><text x="9.337890625" y="0" font-family="Helvetica, Segoe UI Emoji" font-size="28px" fill="#2f9e44" text-anchor="middle" style="white-space: pre;" direction="ltr" dominant-baseline="text-before-edge">B</text></g><g stroke-linecap="round"><g transform="translate(900.0002980232239 1246.4282989501953) rotate(0 18.571434020996094 25.35715103149414)"><path d="M0.21 0.27 C6.26 8.81, 30.96 43.36, 37.26 51.71 M-1.15 -0.64 C4.67 7.55, 29.89 41.42, 36.37 50.11" stroke="#2f9e44" stroke-width="2" fill="none"></path></g></g><mask></mask><g transform="translate(852.8575444221497 1446.428108215332) rotate(0 252 16.100000000000023)"><text x="0" y="0" font-family="Helvetica, Segoe UI Emoji" font-size="28px" fill="#2f9e44" text-anchor="start" style="white-space: pre;" direction="ltr" dominant-baseline="text-before-edge">让后重复递归这个操作还原所有子树即可</text></g></svg>